<mxfile host="app.diagrams.net" agent="Mozilla/5.0 (Windows NT 10.0; Win64; x64) AppleWebKit/537.36 (KHTML, like Gecko) Chrome/135.0.0.0 Safari/537.36" version="26.2.13">
  <diagram name="第 1 页" id="V8Jq2Les3ZoU0s326M1G">
    <mxGraphModel dx="1723" dy="926" grid="1" gridSize="10" guides="1" tooltips="1" connect="1" arrows="1" fold="1" page="1" pageScale="1" pageWidth="827" pageHeight="1169" math="0" shadow="0">
      <root>
        <mxCell id="0" />
        <mxCell id="1" parent="0" />
        <mxCell id="h3T8TqcD6zdrMj5TEYQt-1" value="" style="rounded=0;whiteSpace=wrap;html=1;labelBackgroundColor=none;fontFamily=Helvetica;fontSize=14;fontColor=#000000;fillColor=#FFFFFF;" vertex="1" parent="1">
          <mxGeometry x="2940" y="592.5" width="330" height="415" as="geometry" />
        </mxCell>
        <mxCell id="h3T8TqcD6zdrMj5TEYQt-2" value="eureka server" style="rounded=0;whiteSpace=wrap;html=1;" vertex="1" parent="1">
          <mxGeometry x="2060" y="230" width="130" height="70" as="geometry" />
        </mxCell>
        <mxCell id="h3T8TqcD6zdrMj5TEYQt-3" value="eureka client" style="rounded=0;whiteSpace=wrap;html=1;" vertex="1" parent="1">
          <mxGeometry x="1390" y="220" width="130" height="70" as="geometry" />
        </mxCell>
        <mxCell id="h3T8TqcD6zdrMj5TEYQt-4" value="" style="endArrow=none;dashed=1;html=1;rounded=0;entryX=0.5;entryY=1;entryDx=0;entryDy=0;strokeWidth=2;startArrow=none;" edge="1" parent="1" source="h3T8TqcD6zdrMj5TEYQt-8" target="h3T8TqcD6zdrMj5TEYQt-3">
          <mxGeometry width="50" height="50" relative="1" as="geometry">
            <mxPoint x="1455" y="1240" as="sourcePoint" />
            <mxPoint x="1470" y="360" as="targetPoint" />
          </mxGeometry>
        </mxCell>
        <mxCell id="h3T8TqcD6zdrMj5TEYQt-5" value="" style="endArrow=none;dashed=1;html=1;rounded=0;strokeWidth=2;startArrow=none;" edge="1" parent="1" source="h3T8TqcD6zdrMj5TEYQt-57" target="h3T8TqcD6zdrMj5TEYQt-2">
          <mxGeometry width="50" height="50" relative="1" as="geometry">
            <mxPoint x="2124.5" y="1250" as="sourcePoint" />
            <mxPoint x="2124.5" y="300" as="targetPoint" />
          </mxGeometry>
        </mxCell>
        <mxCell id="h3T8TqcD6zdrMj5TEYQt-6" style="edgeStyle=orthogonalEdgeStyle;rounded=0;orthogonalLoop=1;jettySize=auto;html=1;exitX=1;exitY=0.5;exitDx=0;exitDy=0;strokeWidth=2;entryX=0;entryY=0.5;entryDx=0;entryDy=0;" edge="1" parent="1" source="h3T8TqcD6zdrMj5TEYQt-8" target="h3T8TqcD6zdrMj5TEYQt-11">
          <mxGeometry relative="1" as="geometry">
            <mxPoint x="2040" y="360" as="targetPoint" />
          </mxGeometry>
        </mxCell>
        <mxCell id="h3T8TqcD6zdrMj5TEYQt-7" value="&lt;font style=&quot;font-size: 14px&quot;&gt;1、添加实例，post&amp;nbsp;&amp;nbsp;&lt;span style=&quot;color: rgb(33 , 33 , 33) ; font-family: &amp;#34;inter&amp;#34; , &amp;#34;opensans&amp;#34; , &amp;#34;helvetica&amp;#34; , &amp;#34;arial&amp;#34; , sans-serif ; text-align: left&quot;&gt;http://localhost:7001/eureka/apps/xxx&lt;/span&gt;&lt;/font&gt;" style="edgeLabel;html=1;align=center;verticalAlign=middle;resizable=0;points=[];" vertex="1" connectable="0" parent="h3T8TqcD6zdrMj5TEYQt-6">
          <mxGeometry x="-0.3231" y="3" relative="1" as="geometry">
            <mxPoint x="53" y="3" as="offset" />
          </mxGeometry>
        </mxCell>
        <mxCell id="h3T8TqcD6zdrMj5TEYQt-8" value="" style="rounded=0;whiteSpace=wrap;html=1;" vertex="1" parent="1">
          <mxGeometry x="1440" y="340" width="30" height="40" as="geometry" />
        </mxCell>
        <mxCell id="h3T8TqcD6zdrMj5TEYQt-9" value="" style="endArrow=none;dashed=1;html=1;rounded=0;entryX=0.5;entryY=1;entryDx=0;entryDy=0;strokeWidth=2;startArrow=none;" edge="1" parent="1" source="h3T8TqcD6zdrMj5TEYQt-54" target="h3T8TqcD6zdrMj5TEYQt-8">
          <mxGeometry width="50" height="50" relative="1" as="geometry">
            <mxPoint x="1455" y="1240" as="sourcePoint" />
            <mxPoint x="1455" y="290" as="targetPoint" />
          </mxGeometry>
        </mxCell>
        <mxCell id="h3T8TqcD6zdrMj5TEYQt-10" style="edgeStyle=orthogonalEdgeStyle;rounded=0;orthogonalLoop=1;jettySize=auto;html=1;exitX=1;exitY=0.5;exitDx=0;exitDy=0;fontSize=14;strokeWidth=2;" edge="1" parent="1" source="h3T8TqcD6zdrMj5TEYQt-11" target="h3T8TqcD6zdrMj5TEYQt-13">
          <mxGeometry relative="1" as="geometry" />
        </mxCell>
        <mxCell id="h3T8TqcD6zdrMj5TEYQt-11" value="" style="rounded=0;whiteSpace=wrap;html=1;" vertex="1" parent="1">
          <mxGeometry x="2110" y="345" width="30" height="30" as="geometry" />
        </mxCell>
        <mxCell id="h3T8TqcD6zdrMj5TEYQt-12" value="" style="edgeStyle=orthogonalEdgeStyle;rounded=0;orthogonalLoop=1;jettySize=auto;html=1;fontFamily=Helvetica;fontSize=14;fontColor=#000000;strokeWidth=2;" edge="1" parent="1" source="h3T8TqcD6zdrMj5TEYQt-13" target="h3T8TqcD6zdrMj5TEYQt-41">
          <mxGeometry relative="1" as="geometry" />
        </mxCell>
        <mxCell id="h3T8TqcD6zdrMj5TEYQt-13" value="ApplicationResource.addInstance" style="rounded=0;whiteSpace=wrap;html=1;fontSize=14;" vertex="1" parent="1">
          <mxGeometry x="2310" y="330" width="220" height="60" as="geometry" />
        </mxCell>
        <mxCell id="h3T8TqcD6zdrMj5TEYQt-14" value="" style="edgeStyle=orthogonalEdgeStyle;rounded=0;orthogonalLoop=1;jettySize=auto;html=1;fontSize=14;strokeWidth=2;" edge="1" parent="1" source="h3T8TqcD6zdrMj5TEYQt-15" target="h3T8TqcD6zdrMj5TEYQt-17">
          <mxGeometry relative="1" as="geometry" />
        </mxCell>
        <mxCell id="h3T8TqcD6zdrMj5TEYQt-15" value="refresh()" style="rounded=0;whiteSpace=wrap;html=1;fontSize=14;" vertex="1" parent="1">
          <mxGeometry x="135" y="240" width="120" height="60" as="geometry" />
        </mxCell>
        <mxCell id="h3T8TqcD6zdrMj5TEYQt-16" value="" style="edgeStyle=orthogonalEdgeStyle;rounded=0;orthogonalLoop=1;jettySize=auto;html=1;fontFamily=Helvetica;fontSize=18;fontColor=#000000;strokeWidth=2;" edge="1" parent="1" source="h3T8TqcD6zdrMj5TEYQt-17" target="h3T8TqcD6zdrMj5TEYQt-30">
          <mxGeometry relative="1" as="geometry" />
        </mxCell>
        <mxCell id="h3T8TqcD6zdrMj5TEYQt-17" value="&lt;pre&gt;&lt;pre&gt;&lt;font style=&quot;font-size: 14px&quot; face=&quot;Helvetica&quot;&gt;DiscoveryClient.initScheduledTasks()&lt;/font&gt;&lt;/pre&gt;&lt;/pre&gt;" style="whiteSpace=wrap;html=1;fontSize=14;rounded=0;" vertex="1" parent="1">
          <mxGeometry x="40" y="365" width="310" height="40" as="geometry" />
        </mxCell>
        <mxCell id="h3T8TqcD6zdrMj5TEYQt-18" style="edgeStyle=orthogonalEdgeStyle;rounded=0;orthogonalLoop=1;jettySize=auto;html=1;exitX=1;exitY=0.75;exitDx=0;exitDy=0;entryX=0;entryY=0.5;entryDx=0;entryDy=0;" edge="1" parent="1" source="h3T8TqcD6zdrMj5TEYQt-19" target="h3T8TqcD6zdrMj5TEYQt-151">
          <mxGeometry relative="1" as="geometry" />
        </mxCell>
        <mxCell id="h3T8TqcD6zdrMj5TEYQt-19" value="&lt;pre style=&quot;background-color: #2b2b2b ; color: #a9b7c6 ; font-family: &amp;#34;consolas&amp;#34; , monospace ; font-size: 12.0pt&quot;&gt;DiscoveryClient.&lt;span style=&quot;color: #ffc66d&quot;&gt;fetchRegistry&lt;/span&gt;&lt;/pre&gt;线程" style="whiteSpace=wrap;html=1;fontSize=14;rounded=0;" vertex="1" parent="1">
          <mxGeometry x="400" y="260" width="320" height="70" as="geometry" />
        </mxCell>
        <mxCell id="h3T8TqcD6zdrMj5TEYQt-20" style="edgeStyle=orthogonalEdgeStyle;rounded=0;orthogonalLoop=1;jettySize=auto;html=1;entryX=0.5;entryY=0;entryDx=0;entryDy=0;fontFamily=Helvetica;fontSize=18;fontColor=#000000;strokeWidth=2;" edge="1" parent="1" source="h3T8TqcD6zdrMj5TEYQt-23" target="h3T8TqcD6zdrMj5TEYQt-19">
          <mxGeometry relative="1" as="geometry" />
        </mxCell>
        <mxCell id="h3T8TqcD6zdrMj5TEYQt-21" style="edgeStyle=orthogonalEdgeStyle;rounded=0;orthogonalLoop=1;jettySize=auto;html=1;entryX=0;entryY=0.5;entryDx=0;entryDy=0;fontFamily=Helvetica;fontSize=14;fontColor=#000000;strokeWidth=2;exitX=1;exitY=0.5;exitDx=0;exitDy=0;" edge="1" parent="1" source="h3T8TqcD6zdrMj5TEYQt-19" target="h3T8TqcD6zdrMj5TEYQt-54">
          <mxGeometry relative="1" as="geometry">
            <Array as="points">
              <mxPoint x="1380" y="295" />
              <mxPoint x="1380" y="660" />
            </Array>
          </mxGeometry>
        </mxCell>
        <mxCell id="h3T8TqcD6zdrMj5TEYQt-22" value="初始拉取" style="edgeLabel;html=1;align=center;verticalAlign=middle;resizable=0;points=[];" vertex="1" connectable="0" parent="h3T8TqcD6zdrMj5TEYQt-21">
          <mxGeometry x="0.5046" y="1" relative="1" as="geometry">
            <mxPoint as="offset" />
          </mxGeometry>
        </mxCell>
        <mxCell id="h3T8TqcD6zdrMj5TEYQt-23" value="&lt;h1 style=&quot;font-size: 18px&quot;&gt;从远端拉取实例到本地的定时线程&lt;/h1&gt;&lt;p&gt;默认是每隔30s对eureka server 进行获取实例，我们是配置为5s获取一次 &lt;span&gt;registryFetchIntervalSeconds=5s|30s&lt;/span&gt;&lt;/p&gt;" style="text;html=1;strokeColor=none;fillColor=none;spacing=5;spacingTop=-20;whiteSpace=wrap;overflow=hidden;rounded=0;labelBackgroundColor=none;fontFamily=Helvetica;fontSize=14;fontColor=#000000;" vertex="1" parent="1">
          <mxGeometry x="570" y="120" width="290" height="95" as="geometry" />
        </mxCell>
        <mxCell id="h3T8TqcD6zdrMj5TEYQt-24" style="edgeStyle=orthogonalEdgeStyle;rounded=0;orthogonalLoop=1;jettySize=auto;html=1;exitX=1;exitY=0.5;exitDx=0;exitDy=0;entryX=0;entryY=0.5;entryDx=0;entryDy=0;" edge="1" parent="1" source="h3T8TqcD6zdrMj5TEYQt-25" target="h3T8TqcD6zdrMj5TEYQt-125">
          <mxGeometry relative="1" as="geometry" />
        </mxCell>
        <mxCell id="h3T8TqcD6zdrMj5TEYQt-25" value="heartbeat timer线程" style="whiteSpace=wrap;html=1;fontSize=14;rounded=0;" vertex="1" parent="1">
          <mxGeometry x="410" y="420" width="140" height="65" as="geometry" />
        </mxCell>
        <mxCell id="h3T8TqcD6zdrMj5TEYQt-26" value="" style="strokeWidth=2;html=1;shape=mxgraph.flowchart.annotation_2;align=left;labelPosition=right;pointerEvents=1;labelBackgroundColor=none;fontFamily=Helvetica;fontSize=18;fontColor=#000000;" vertex="1" parent="1">
          <mxGeometry x="350" y="290" width="60" height="170" as="geometry" />
        </mxCell>
        <mxCell id="h3T8TqcD6zdrMj5TEYQt-27" style="edgeStyle=orthogonalEdgeStyle;rounded=0;orthogonalLoop=1;jettySize=auto;html=1;entryX=0.5;entryY=0;entryDx=0;entryDy=0;fontFamily=Helvetica;fontSize=18;fontColor=#000000;strokeWidth=2;" edge="1" parent="1" source="h3T8TqcD6zdrMj5TEYQt-28" target="h3T8TqcD6zdrMj5TEYQt-25">
          <mxGeometry relative="1" as="geometry" />
        </mxCell>
        <mxCell id="h3T8TqcD6zdrMj5TEYQt-28" value="&lt;h1 style=&quot;font-size: 18px&quot;&gt;保持心跳的定时线程&lt;/h1&gt;&lt;p&gt;默认是每隔30s对eureka server 进行发送实例的心态&lt;span&gt;renewalIntervalInSecs=30s&lt;/span&gt;&lt;/p&gt;" style="text;html=1;strokeColor=none;fillColor=none;spacing=5;spacingTop=-20;whiteSpace=wrap;overflow=hidden;rounded=0;labelBackgroundColor=none;fontFamily=Helvetica;fontSize=14;fontColor=#000000;" vertex="1" parent="1">
          <mxGeometry x="610" y="345" width="360" height="75" as="geometry" />
        </mxCell>
        <mxCell id="h3T8TqcD6zdrMj5TEYQt-29" value="" style="edgeStyle=orthogonalEdgeStyle;rounded=0;orthogonalLoop=1;jettySize=auto;html=1;fontFamily=Helvetica;fontSize=18;fontColor=#000000;strokeWidth=2;" edge="1" parent="1" source="h3T8TqcD6zdrMj5TEYQt-30" target="h3T8TqcD6zdrMj5TEYQt-32">
          <mxGeometry relative="1" as="geometry" />
        </mxCell>
        <mxCell id="h3T8TqcD6zdrMj5TEYQt-30" value="start" style="whiteSpace=wrap;html=1;fontSize=14;rounded=0;" vertex="1" parent="1">
          <mxGeometry x="137.5" y="460" width="115" height="50" as="geometry" />
        </mxCell>
        <mxCell id="h3T8TqcD6zdrMj5TEYQt-31" value="" style="edgeStyle=orthogonalEdgeStyle;rounded=0;orthogonalLoop=1;jettySize=auto;html=1;fontFamily=Helvetica;fontSize=14;fontColor=#000000;strokeWidth=2;" edge="1" parent="1" source="h3T8TqcD6zdrMj5TEYQt-32" target="h3T8TqcD6zdrMj5TEYQt-36">
          <mxGeometry relative="1" as="geometry" />
        </mxCell>
        <mxCell id="h3T8TqcD6zdrMj5TEYQt-32" value="run（）" style="whiteSpace=wrap;html=1;fontSize=14;rounded=0;" vertex="1" parent="1">
          <mxGeometry x="135" y="560" width="120" height="40" as="geometry" />
        </mxCell>
        <mxCell id="h3T8TqcD6zdrMj5TEYQt-33" value="&lt;font style=&quot;font-size: 14px&quot;&gt;延迟40s执行&lt;/font&gt;" style="text;html=1;align=center;verticalAlign=middle;resizable=0;points=[];autosize=1;strokeColor=none;fillColor=none;fontSize=18;fontFamily=Helvetica;fontColor=#000000;" vertex="1" parent="1">
          <mxGeometry x="200" y="520" width="90" height="30" as="geometry" />
        </mxCell>
        <mxCell id="h3T8TqcD6zdrMj5TEYQt-34" value="" style="edgeStyle=orthogonalEdgeStyle;rounded=0;orthogonalLoop=1;jettySize=auto;html=1;fontFamily=Helvetica;fontSize=14;fontColor=#000000;strokeWidth=2;" edge="1" parent="1" source="h3T8TqcD6zdrMj5TEYQt-36" target="h3T8TqcD6zdrMj5TEYQt-38">
          <mxGeometry relative="1" as="geometry" />
        </mxCell>
        <mxCell id="h3T8TqcD6zdrMj5TEYQt-35" value="" style="edgeStyle=orthogonalEdgeStyle;rounded=0;orthogonalLoop=1;jettySize=auto;html=1;" edge="1" parent="1" source="h3T8TqcD6zdrMj5TEYQt-36" target="h3T8TqcD6zdrMj5TEYQt-129">
          <mxGeometry relative="1" as="geometry" />
        </mxCell>
        <mxCell id="h3T8TqcD6zdrMj5TEYQt-36" value="discoveryClient.register()" style="whiteSpace=wrap;html=1;fontSize=14;rounded=0;" vertex="1" parent="1">
          <mxGeometry x="107.5" y="640" width="175" height="50" as="geometry" />
        </mxCell>
        <mxCell id="h3T8TqcD6zdrMj5TEYQt-37" style="edgeStyle=orthogonalEdgeStyle;rounded=0;orthogonalLoop=1;jettySize=auto;html=1;entryX=0;entryY=0.5;entryDx=0;entryDy=0;fontFamily=Helvetica;fontSize=14;fontColor=#000000;strokeWidth=2;" edge="1" parent="1" source="h3T8TqcD6zdrMj5TEYQt-38" target="h3T8TqcD6zdrMj5TEYQt-8">
          <mxGeometry relative="1" as="geometry">
            <Array as="points">
              <mxPoint x="1340" y="665" />
              <mxPoint x="1340" y="360" />
            </Array>
          </mxGeometry>
        </mxCell>
        <mxCell id="h3T8TqcD6zdrMj5TEYQt-38" value="eurekaTransport.registrationClient.register" style="whiteSpace=wrap;html=1;fontSize=14;rounded=0;" vertex="1" parent="1">
          <mxGeometry x="400" y="632.5" width="320" height="65" as="geometry" />
        </mxCell>
        <mxCell id="h3T8TqcD6zdrMj5TEYQt-39" value="一直调用父类" style="edgeStyle=orthogonalEdgeStyle;rounded=0;orthogonalLoop=1;jettySize=auto;html=1;fontFamily=Helvetica;fontSize=14;fontColor=#000000;strokeWidth=2;" edge="1" parent="1" source="h3T8TqcD6zdrMj5TEYQt-41" target="h3T8TqcD6zdrMj5TEYQt-50">
          <mxGeometry relative="1" as="geometry" />
        </mxCell>
        <mxCell id="h3T8TqcD6zdrMj5TEYQt-40" value="" style="edgeStyle=orthogonalEdgeStyle;rounded=0;orthogonalLoop=1;jettySize=auto;html=1;fontFamily=Helvetica;fontSize=14;fontColor=#000000;strokeWidth=2;" edge="1" parent="1" source="h3T8TqcD6zdrMj5TEYQt-41" target="h3T8TqcD6zdrMj5TEYQt-110">
          <mxGeometry relative="1" as="geometry" />
        </mxCell>
        <mxCell id="h3T8TqcD6zdrMj5TEYQt-41" value="InstanceRegistry.register()" style="whiteSpace=wrap;html=1;fontSize=14;rounded=0;" vertex="1" parent="1">
          <mxGeometry x="2590" y="330" width="200" height="60" as="geometry" />
        </mxCell>
        <mxCell id="h3T8TqcD6zdrMj5TEYQt-42" value="" style="edgeStyle=orthogonalEdgeStyle;rounded=0;orthogonalLoop=1;jettySize=auto;html=1;fontFamily=Helvetica;fontSize=14;fontColor=#000000;strokeWidth=2;" edge="1" parent="1" source="h3T8TqcD6zdrMj5TEYQt-43" target="h3T8TqcD6zdrMj5TEYQt-44">
          <mxGeometry relative="1" as="geometry" />
        </mxCell>
        <mxCell id="h3T8TqcD6zdrMj5TEYQt-43" value="register&lt;br&gt;(ConcurrentHashMap)" style="rounded=0;whiteSpace=wrap;html=1;labelBackgroundColor=none;fontFamily=Helvetica;fontSize=14;fontColor=#000000;" vertex="1" parent="1">
          <mxGeometry x="2975" y="640" width="250" height="60" as="geometry" />
        </mxCell>
        <mxCell id="h3T8TqcD6zdrMj5TEYQt-44" value="readWriteCacheMap&lt;br&gt;(Guava)" style="whiteSpace=wrap;html=1;fontSize=14;fontColor=#000000;rounded=0;labelBackgroundColor=none;" vertex="1" parent="1">
          <mxGeometry x="3020" y="770" width="160" height="60" as="geometry" />
        </mxCell>
        <mxCell id="h3T8TqcD6zdrMj5TEYQt-45" value="readOnlyCacheMap&lt;br&gt;(ConcurrentHashMap)" style="rounded=0;whiteSpace=wrap;html=1;labelBackgroundColor=none;fontFamily=Helvetica;fontSize=14;fontColor=#000000;" vertex="1" parent="1">
          <mxGeometry x="3020" y="890" width="180" height="70" as="geometry" />
        </mxCell>
        <mxCell id="h3T8TqcD6zdrMj5TEYQt-46" style="rounded=0;orthogonalLoop=1;jettySize=auto;html=1;exitX=0;exitY=0.5;exitDx=0;exitDy=0;entryX=1;entryY=0.5;entryDx=0;entryDy=0;fontFamily=Helvetica;fontSize=14;fontColor=#000000;strokeWidth=2;" edge="1" parent="1" source="h3T8TqcD6zdrMj5TEYQt-47" target="h3T8TqcD6zdrMj5TEYQt-43">
          <mxGeometry relative="1" as="geometry" />
        </mxCell>
        <mxCell id="h3T8TqcD6zdrMj5TEYQt-47" value="evictionTimer" style="rounded=0;whiteSpace=wrap;html=1;labelBackgroundColor=none;fontFamily=Helvetica;fontSize=14;fontColor=#000000;fillColor=#C7C7C7;" vertex="1" parent="1">
          <mxGeometry x="3340" y="640" width="120" height="60" as="geometry" />
        </mxCell>
        <mxCell id="h3T8TqcD6zdrMj5TEYQt-48" style="edgeStyle=orthogonalEdgeStyle;rounded=0;orthogonalLoop=1;jettySize=auto;html=1;entryX=0;entryY=0.5;entryDx=0;entryDy=0;dashed=1;fontFamily=Helvetica;fontSize=14;fontColor=#000000;strokeWidth=2;" edge="1" parent="1" source="h3T8TqcD6zdrMj5TEYQt-50" target="h3T8TqcD6zdrMj5TEYQt-43">
          <mxGeometry relative="1" as="geometry" />
        </mxCell>
        <mxCell id="h3T8TqcD6zdrMj5TEYQt-49" value="put" style="edgeLabel;html=1;align=center;verticalAlign=middle;resizable=0;points=[];fontSize=14;fontFamily=Helvetica;fontColor=#000000;" vertex="1" connectable="0" parent="h3T8TqcD6zdrMj5TEYQt-48">
          <mxGeometry x="-0.0834" y="-1" relative="1" as="geometry">
            <mxPoint as="offset" />
          </mxGeometry>
        </mxCell>
        <mxCell id="h3T8TqcD6zdrMj5TEYQt-50" value="AbstractInstanceRegistry.register" style="whiteSpace=wrap;html=1;fontSize=14;rounded=0;" vertex="1" parent="1">
          <mxGeometry x="2575" y="480" width="230" height="60" as="geometry" />
        </mxCell>
        <mxCell id="h3T8TqcD6zdrMj5TEYQt-51" style="edgeStyle=orthogonalEdgeStyle;rounded=0;orthogonalLoop=1;jettySize=auto;html=1;entryX=1;entryY=0.25;entryDx=0;entryDy=0;fontFamily=Helvetica;fontSize=14;fontColor=#000000;strokeWidth=2;dashed=1;" edge="1" parent="1" source="h3T8TqcD6zdrMj5TEYQt-52" target="h3T8TqcD6zdrMj5TEYQt-43">
          <mxGeometry relative="1" as="geometry">
            <mxPoint x="3350" y="540.0526315789475" as="sourcePoint" />
          </mxGeometry>
        </mxCell>
        <mxCell id="h3T8TqcD6zdrMj5TEYQt-52" value="&lt;div style=&quot;text-align: left&quot;&gt;&lt;span&gt;Map的数据格式&lt;/span&gt;&lt;/div&gt;&lt;div style=&quot;text-align: left&quot;&gt;&lt;span&gt;如：key：OPEN-SERVER&lt;/span&gt;&lt;/div&gt;&lt;div style=&quot;text-align: left&quot;&gt;&lt;span&gt;value: lease对象&lt;/span&gt;&lt;/div&gt;&lt;div style=&quot;text-align: left&quot;&gt;&lt;span&gt;lease&amp;lt;&lt;/span&gt;&lt;span&gt;InstanceInfo&lt;/span&gt;&lt;span&gt;&amp;gt;&amp;nbsp;&lt;/span&gt;&lt;/div&gt;&lt;div style=&quot;text-align: left&quot;&gt;实际存储的是&amp;nbsp;InstanceInfo&lt;/div&gt;&lt;div style=&quot;text-align: left&quot;&gt;存有ip port 等相关信息&lt;/div&gt;" style="text;html=1;strokeColor=none;fillColor=none;align=center;verticalAlign=middle;whiteSpace=wrap;rounded=0;labelBackgroundColor=none;fontFamily=Helvetica;fontSize=14;fontColor=#000000;" vertex="1" parent="1">
          <mxGeometry x="3390" y="470" width="260" height="115" as="geometry" />
        </mxCell>
        <mxCell id="h3T8TqcD6zdrMj5TEYQt-53" value="&lt;font style=&quot;font-size: 14px&quot;&gt;获取所有的实例 &lt;br&gt;GET&amp;nbsp;&lt;span style=&quot;color: rgb(33 , 33 , 33) ; font-family: &amp;#34;inter&amp;#34; , &amp;#34;opensans&amp;#34; , &amp;#34;helvetica&amp;#34; , &amp;#34;arial&amp;#34; , sans-serif ; text-align: left&quot;&gt;http://localhost:7001/eureka/apps&lt;/span&gt;&lt;/font&gt;" style="edgeStyle=orthogonalEdgeStyle;rounded=0;orthogonalLoop=1;jettySize=auto;html=1;dashed=1;fontFamily=Helvetica;fontSize=14;fontColor=#000000;strokeWidth=2;entryX=0;entryY=0.5;entryDx=0;entryDy=0;" edge="1" parent="1" source="h3T8TqcD6zdrMj5TEYQt-54" target="h3T8TqcD6zdrMj5TEYQt-57">
          <mxGeometry relative="1" as="geometry">
            <mxPoint x="2050" y="600" as="targetPoint" />
          </mxGeometry>
        </mxCell>
        <mxCell id="h3T8TqcD6zdrMj5TEYQt-54" value="" style="rounded=0;whiteSpace=wrap;html=1;" vertex="1" parent="1">
          <mxGeometry x="1440" y="640" width="30" height="40" as="geometry" />
        </mxCell>
        <mxCell id="h3T8TqcD6zdrMj5TEYQt-55" value="" style="endArrow=none;dashed=1;html=1;rounded=0;entryX=0.5;entryY=1;entryDx=0;entryDy=0;strokeWidth=2;startArrow=none;" edge="1" parent="1" source="h3T8TqcD6zdrMj5TEYQt-141" target="h3T8TqcD6zdrMj5TEYQt-54">
          <mxGeometry width="50" height="50" relative="1" as="geometry">
            <mxPoint x="1455" y="1240" as="sourcePoint" />
            <mxPoint x="1455" y="379.9999999999998" as="targetPoint" />
          </mxGeometry>
        </mxCell>
        <mxCell id="h3T8TqcD6zdrMj5TEYQt-56" style="edgeStyle=orthogonalEdgeStyle;rounded=0;orthogonalLoop=1;jettySize=auto;html=1;exitX=1;exitY=0.5;exitDx=0;exitDy=0;fontFamily=Helvetica;fontSize=11;fontColor=#000000;strokeWidth=2;" edge="1" parent="1" source="h3T8TqcD6zdrMj5TEYQt-57" target="h3T8TqcD6zdrMj5TEYQt-60">
          <mxGeometry relative="1" as="geometry" />
        </mxCell>
        <mxCell id="h3T8TqcD6zdrMj5TEYQt-57" value="" style="rounded=0;whiteSpace=wrap;html=1;" vertex="1" parent="1">
          <mxGeometry x="2110" y="645" width="30" height="30" as="geometry" />
        </mxCell>
        <mxCell id="h3T8TqcD6zdrMj5TEYQt-58" value="" style="endArrow=none;dashed=1;html=1;rounded=0;strokeWidth=2;startArrow=none;" edge="1" parent="1" source="h3T8TqcD6zdrMj5TEYQt-146" target="h3T8TqcD6zdrMj5TEYQt-57">
          <mxGeometry width="50" height="50" relative="1" as="geometry">
            <mxPoint x="2124.5" y="1250" as="sourcePoint" />
            <mxPoint x="2124.982233502538" y="299.9999999999998" as="targetPoint" />
          </mxGeometry>
        </mxCell>
        <mxCell id="h3T8TqcD6zdrMj5TEYQt-59" value="&lt;span style=&quot;font-style: normal ; font-weight: 400 ; letter-spacing: normal ; text-align: center ; text-indent: 0px ; text-transform: none ; word-spacing: 0px ; color: rgb(106 , 135 , 89) ; font-family: &amp;#34;consolas&amp;#34; , monospace ; font-size: 16px ; background-color: rgb(43 , 43 , 43)&quot;&gt;key=&lt;/span&gt;&lt;span style=&quot;font-style: normal ; font-weight: 400 ; letter-spacing: normal ; text-align: center ; text-indent: 0px ; text-transform: none ; word-spacing: 0px ; color: rgb(106 , 135 , 89) ; background-color: rgb(43 , 43 , 43) ; font-family: &amp;#34;consolas&amp;#34; , monospace ; font-size: 12pt&quot;&gt;ALL_APPS&lt;/span&gt;" style="edgeStyle=orthogonalEdgeStyle;rounded=0;orthogonalLoop=1;jettySize=auto;html=1;fontFamily=Helvetica;fontSize=14;fontColor=#000000;strokeWidth=2;" edge="1" parent="1" source="h3T8TqcD6zdrMj5TEYQt-60" target="h3T8TqcD6zdrMj5TEYQt-64">
          <mxGeometry relative="1" as="geometry" />
        </mxCell>
        <mxCell id="h3T8TqcD6zdrMj5TEYQt-60" value="&lt;font style=&quot;font-size: 14px&quot;&gt;ApplicationsResource.&lt;span style=&quot;color: rgb(33 , 33 , 33) ; font-family: &amp;#34;inter&amp;#34; , &amp;#34;opensans&amp;#34; , &amp;#34;helvetica&amp;#34; , &amp;#34;arial&amp;#34; , sans-serif ; text-align: left ; background-color: rgb(255 , 255 , 255)&quot;&gt;getContainers&lt;/span&gt;&lt;/font&gt;" style="rounded=0;whiteSpace=wrap;html=1;fontSize=14;" vertex="1" parent="1">
          <mxGeometry x="2185" y="630" width="230" height="60" as="geometry" />
        </mxCell>
        <mxCell id="h3T8TqcD6zdrMj5TEYQt-61" value="false" style="edgeStyle=orthogonalEdgeStyle;rounded=0;orthogonalLoop=1;jettySize=auto;html=1;fontFamily=Helvetica;fontSize=14;fontColor=#000000;strokeWidth=2;" edge="1" parent="1" source="h3T8TqcD6zdrMj5TEYQt-139" target="h3T8TqcD6zdrMj5TEYQt-65">
          <mxGeometry relative="1" as="geometry">
            <mxPoint x="2702" y="760" as="sourcePoint" />
          </mxGeometry>
        </mxCell>
        <mxCell id="h3T8TqcD6zdrMj5TEYQt-62" value="&lt;pre style=&quot;background-color: #2b2b2b ; color: #a9b7c6 ; font-family: &amp;#34;consolas&amp;#34; , monospace ; font-size: 12.0pt&quot;&gt;&lt;br&gt;&lt;/pre&gt;" style="edgeLabel;html=1;align=center;verticalAlign=middle;resizable=0;points=[];" vertex="1" connectable="0" parent="h3T8TqcD6zdrMj5TEYQt-61">
          <mxGeometry x="-0.2069" relative="1" as="geometry">
            <mxPoint as="offset" />
          </mxGeometry>
        </mxCell>
        <mxCell id="h3T8TqcD6zdrMj5TEYQt-63" style="edgeStyle=orthogonalEdgeStyle;rounded=0;orthogonalLoop=1;jettySize=auto;html=1;entryX=0.5;entryY=0;entryDx=0;entryDy=0;" edge="1" parent="1" source="h3T8TqcD6zdrMj5TEYQt-64" target="h3T8TqcD6zdrMj5TEYQt-139">
          <mxGeometry relative="1" as="geometry" />
        </mxCell>
        <mxCell id="h3T8TqcD6zdrMj5TEYQt-64" value="ResponseCacheImpl.getGZIP" style="whiteSpace=wrap;html=1;fontSize=14;rounded=0;" vertex="1" parent="1">
          <mxGeometry x="2605" y="630" width="195" height="60" as="geometry" />
        </mxCell>
        <mxCell id="h3T8TqcD6zdrMj5TEYQt-65" value="" style="rounded=0;whiteSpace=wrap;html=1;labelBackgroundColor=none;fontFamily=Helvetica;fontSize=14;fontColor=#000000;fillColor=#FFFFFF;" vertex="1" parent="1">
          <mxGeometry x="2575" y="895" width="255" height="340" as="geometry" />
        </mxCell>
        <mxCell id="h3T8TqcD6zdrMj5TEYQt-66" style="edgeStyle=orthogonalEdgeStyle;rounded=0;orthogonalLoop=1;jettySize=auto;html=1;exitX=1;exitY=0.5;exitDx=0;exitDy=0;fontFamily=Helvetica;fontSize=14;fontColor=#000000;strokeWidth=2;dashed=1;" edge="1" parent="1" source="h3T8TqcD6zdrMj5TEYQt-69">
          <mxGeometry relative="1" as="geometry">
            <mxPoint x="3020" y="945" as="targetPoint" />
          </mxGeometry>
        </mxCell>
        <mxCell id="h3T8TqcD6zdrMj5TEYQt-67" value="1" style="edgeLabel;html=1;align=center;verticalAlign=middle;resizable=0;points=[];fontSize=14;fontFamily=Helvetica;fontColor=#000000;" vertex="1" connectable="0" parent="h3T8TqcD6zdrMj5TEYQt-66">
          <mxGeometry x="0.1097" y="-3" relative="1" as="geometry">
            <mxPoint x="-16" y="-3" as="offset" />
          </mxGeometry>
        </mxCell>
        <mxCell id="h3T8TqcD6zdrMj5TEYQt-68" value="" style="edgeStyle=orthogonalEdgeStyle;rounded=0;orthogonalLoop=1;jettySize=auto;html=1;fontFamily=Helvetica;fontSize=14;fontColor=#000000;strokeWidth=2;" edge="1" parent="1" source="h3T8TqcD6zdrMj5TEYQt-69" target="h3T8TqcD6zdrMj5TEYQt-71">
          <mxGeometry relative="1" as="geometry" />
        </mxCell>
        <mxCell id="h3T8TqcD6zdrMj5TEYQt-69" value="从readOnlyCacheMap&lt;br&gt;缓存获取" style="rounded=0;whiteSpace=wrap;html=1;labelBackgroundColor=none;fontFamily=Helvetica;fontSize=14;fontColor=#000000;fillColor=#FFFFFF;" vertex="1" parent="1">
          <mxGeometry x="2625" y="915" width="150" height="60" as="geometry" />
        </mxCell>
        <mxCell id="h3T8TqcD6zdrMj5TEYQt-70" value="为空" style="edgeStyle=orthogonalEdgeStyle;rounded=0;orthogonalLoop=1;jettySize=auto;html=1;fontFamily=Helvetica;fontSize=14;fontColor=#000000;strokeWidth=2;" edge="1" parent="1" source="h3T8TqcD6zdrMj5TEYQt-71" target="h3T8TqcD6zdrMj5TEYQt-73">
          <mxGeometry relative="1" as="geometry" />
        </mxCell>
        <mxCell id="h3T8TqcD6zdrMj5TEYQt-71" value="是否为空" style="rhombus;whiteSpace=wrap;html=1;fontSize=14;fillColor=#FFFFFF;fontColor=#000000;rounded=0;labelBackgroundColor=none;" vertex="1" parent="1">
          <mxGeometry x="2625" y="1005" width="150" height="80" as="geometry" />
        </mxCell>
        <mxCell id="h3T8TqcD6zdrMj5TEYQt-72" value="2" style="edgeStyle=orthogonalEdgeStyle;rounded=0;orthogonalLoop=1;jettySize=auto;html=1;exitX=1;exitY=0.5;exitDx=0;exitDy=0;entryX=0.5;entryY=1;entryDx=0;entryDy=0;dashed=1;fontFamily=Helvetica;fontSize=14;fontColor=#000000;strokeWidth=2;" edge="1" parent="1" source="h3T8TqcD6zdrMj5TEYQt-73" target="h3T8TqcD6zdrMj5TEYQt-44">
          <mxGeometry relative="1" as="geometry" />
        </mxCell>
        <mxCell id="h3T8TqcD6zdrMj5TEYQt-73" value="从readWriteCacheMap&lt;br&gt;缓存获取&lt;br&gt;并且写入readOnlyCacheMap&lt;br&gt;&amp;nbsp;" style="whiteSpace=wrap;html=1;fontSize=14;fillColor=#FFFFFF;fontColor=#000000;rounded=0;labelBackgroundColor=none;" vertex="1" parent="1">
          <mxGeometry x="2585" y="1135" width="235" height="80" as="geometry" />
        </mxCell>
        <mxCell id="h3T8TqcD6zdrMj5TEYQt-74" style="edgeStyle=orthogonalEdgeStyle;rounded=0;orthogonalLoop=1;jettySize=auto;html=1;fontFamily=Helvetica;fontSize=14;fontColor=#000000;strokeWidth=2;dashed=1;" edge="1" parent="1" source="h3T8TqcD6zdrMj5TEYQt-75" target="h3T8TqcD6zdrMj5TEYQt-44">
          <mxGeometry relative="1" as="geometry" />
        </mxCell>
        <mxCell id="h3T8TqcD6zdrMj5TEYQt-75" value="&lt;div&gt;ResponseCacheImpl.readWriteCacheMap&lt;br&gt;&lt;/div&gt;&lt;div&gt;初始大小 1000&lt;/div&gt;&lt;div&gt;过期时间：180s&lt;/div&gt;&lt;div&gt;从 registry 中建立缓存&lt;/div&gt;" style="text;html=1;strokeColor=none;fillColor=none;align=left;verticalAlign=middle;whiteSpace=wrap;rounded=0;labelBackgroundColor=none;fontFamily=Helvetica;fontSize=14;fontColor=#000000;" vertex="1" parent="1">
          <mxGeometry x="3620" y="761.25" width="270" height="77.5" as="geometry" />
        </mxCell>
        <mxCell id="h3T8TqcD6zdrMj5TEYQt-76" style="edgeStyle=orthogonalEdgeStyle;rounded=0;orthogonalLoop=1;jettySize=auto;html=1;dashed=1;fontFamily=Helvetica;fontSize=14;fontColor=#000000;strokeWidth=2;" edge="1" parent="1" source="h3T8TqcD6zdrMj5TEYQt-77" target="h3T8TqcD6zdrMj5TEYQt-47">
          <mxGeometry relative="1" as="geometry" />
        </mxCell>
        <mxCell id="h3T8TqcD6zdrMj5TEYQt-77" value="60s 扫描一次数据让数据过期，清理过期的实例(没有续命的实例)" style="text;html=1;strokeColor=none;fillColor=none;align=left;verticalAlign=middle;whiteSpace=wrap;rounded=0;labelBackgroundColor=none;fontFamily=Helvetica;fontSize=14;fontColor=#000000;" vertex="1" parent="1">
          <mxGeometry x="3580" y="644.38" width="430" height="51.25" as="geometry" />
        </mxCell>
        <mxCell id="h3T8TqcD6zdrMj5TEYQt-78" style="edgeStyle=orthogonalEdgeStyle;rounded=0;orthogonalLoop=1;jettySize=auto;html=1;dashed=1;fontFamily=Helvetica;fontSize=14;fontColor=#000000;strokeWidth=2;" edge="1" parent="1" source="h3T8TqcD6zdrMj5TEYQt-79" target="h3T8TqcD6zdrMj5TEYQt-83">
          <mxGeometry relative="1" as="geometry">
            <mxPoint x="3400" y="875" as="targetPoint" />
          </mxGeometry>
        </mxCell>
        <mxCell id="h3T8TqcD6zdrMj5TEYQt-79" value="30s会从readOnlyCacheMap缓存遍历获取数据 与 readWriteCacheMap 数据对比 如果不一致 就更新(put)&amp;nbsp; 如果一致就跳过" style="text;html=1;strokeColor=none;fillColor=none;align=left;verticalAlign=middle;whiteSpace=wrap;rounded=0;labelBackgroundColor=none;fontFamily=Helvetica;fontSize=14;fontColor=#000000;" vertex="1" parent="1">
          <mxGeometry x="3590" y="890" width="430" height="70" as="geometry" />
        </mxCell>
        <mxCell id="h3T8TqcD6zdrMj5TEYQt-80" style="edgeStyle=orthogonalEdgeStyle;rounded=0;orthogonalLoop=1;jettySize=auto;html=1;dashed=1;fontFamily=Helvetica;fontSize=14;fontColor=#000000;strokeWidth=2;" edge="1" parent="1" source="h3T8TqcD6zdrMj5TEYQt-81">
          <mxGeometry relative="1" as="geometry">
            <mxPoint x="3135" y="961" as="targetPoint" />
          </mxGeometry>
        </mxCell>
        <mxCell id="h3T8TqcD6zdrMj5TEYQt-81" value="readOnlyCacheMap 写入的可能就只有在 获取的时候&amp;nbsp; 拿不到数据 然后 从 readWriteCacheMap 读取 然后 写入进去&amp;nbsp;&lt;br&gt;自带的有&amp;nbsp; ALL_APPS xml 格式的，ALL_APPS json 格式 ，&amp;nbsp;&lt;br&gt;&lt;b&gt;注意：到了三级缓存的数据是不会被删除，只会标记下线。源码里并没有提供删除的口子出来被清楚掉。&lt;/b&gt;" style="text;html=1;strokeColor=none;fillColor=none;align=left;verticalAlign=middle;whiteSpace=wrap;rounded=0;labelBackgroundColor=none;fontFamily=Helvetica;fontSize=14;fontColor=#000000;" vertex="1" parent="1">
          <mxGeometry x="3330" y="1030" width="590" height="100" as="geometry" />
        </mxCell>
        <mxCell id="h3T8TqcD6zdrMj5TEYQt-82" style="edgeStyle=orthogonalEdgeStyle;rounded=0;orthogonalLoop=1;jettySize=auto;html=1;entryX=1;entryY=0.5;entryDx=0;entryDy=0;fontFamily=Helvetica;fontSize=14;fontColor=#000000;strokeWidth=2;" edge="1" parent="1" source="h3T8TqcD6zdrMj5TEYQt-83" target="h3T8TqcD6zdrMj5TEYQt-45">
          <mxGeometry relative="1" as="geometry" />
        </mxCell>
        <mxCell id="h3T8TqcD6zdrMj5TEYQt-83" value="&lt;span style=&quot;background-color: rgb(255 , 255 , 255)&quot;&gt;timer(30s) &lt;br&gt;缓存自检&lt;/span&gt;" style="rounded=0;whiteSpace=wrap;html=1;labelBackgroundColor=none;fontFamily=Helvetica;fontSize=14;fontColor=#000000;fillColor=#FFFFFF;" vertex="1" parent="1">
          <mxGeometry x="3280" y="895" width="120" height="60" as="geometry" />
        </mxCell>
        <mxCell id="h3T8TqcD6zdrMj5TEYQt-84" value="问题：自己创建了实例后&amp;nbsp; 不再进行健康检查&amp;nbsp; 但是实例 还是存在" style="rounded=0;whiteSpace=wrap;html=1;labelBackgroundColor=none;fontFamily=Helvetica;fontSize=14;fontColor=#000000;fillColor=#FFFFFF;" vertex="1" parent="1">
          <mxGeometry x="1530" y="90" width="540" height="30" as="geometry" />
        </mxCell>
        <mxCell id="h3T8TqcD6zdrMj5TEYQt-85" style="edgeStyle=orthogonalEdgeStyle;rounded=0;orthogonalLoop=1;jettySize=auto;html=1;fontFamily=Helvetica;fontSize=14;fontColor=#000000;strokeWidth=2;" edge="1" parent="1" source="h3T8TqcD6zdrMj5TEYQt-86" target="h3T8TqcD6zdrMj5TEYQt-93">
          <mxGeometry relative="1" as="geometry" />
        </mxCell>
        <mxCell id="h3T8TqcD6zdrMj5TEYQt-86" value="" style="rounded=0;whiteSpace=wrap;html=1;" vertex="1" parent="1">
          <mxGeometry x="2110" y="1100" width="30" height="30" as="geometry" />
        </mxCell>
        <mxCell id="h3T8TqcD6zdrMj5TEYQt-87" value="" style="endArrow=none;dashed=1;html=1;rounded=0;strokeWidth=2;startArrow=none;" edge="1" parent="1" source="h3T8TqcD6zdrMj5TEYQt-100" target="h3T8TqcD6zdrMj5TEYQt-86">
          <mxGeometry width="50" height="50" relative="1" as="geometry">
            <mxPoint x="2124.5" y="1345" as="sourcePoint" />
            <mxPoint x="2124.987288135593" y="770" as="targetPoint" />
          </mxGeometry>
        </mxCell>
        <mxCell id="h3T8TqcD6zdrMj5TEYQt-88" style="edgeStyle=orthogonalEdgeStyle;rounded=0;orthogonalLoop=1;jettySize=auto;html=1;entryX=0;entryY=0.5;entryDx=0;entryDy=0;fontFamily=Helvetica;fontSize=14;fontColor=#000000;strokeWidth=2;dashed=1;" edge="1" parent="1" source="h3T8TqcD6zdrMj5TEYQt-90" target="h3T8TqcD6zdrMj5TEYQt-86">
          <mxGeometry relative="1" as="geometry">
            <Array as="points">
              <mxPoint x="1870" y="1115" />
              <mxPoint x="1870" y="1115" />
            </Array>
          </mxGeometry>
        </mxCell>
        <mxCell id="h3T8TqcD6zdrMj5TEYQt-89" value="&lt;font style=&quot;font-size: 14px&quot;&gt;获取某个实例GET&amp;nbsp;&amp;nbsp;&lt;span style=&quot;color: rgb(33 , 33 , 33) ; font-family: &amp;#34;inter&amp;#34; , &amp;#34;opensans&amp;#34; , &amp;#34;helvetica&amp;#34; , &amp;#34;arial&amp;#34; , sans-serif ; text-align: left&quot;&gt;http://localhost:7001/eureka/apps/FEED-SERVICE/ 慎用 不会被删&lt;/span&gt;&lt;/font&gt;" style="edgeLabel;html=1;align=center;verticalAlign=middle;resizable=0;points=[];fontSize=14;fontFamily=Helvetica;fontColor=#000000;" vertex="1" connectable="0" parent="h3T8TqcD6zdrMj5TEYQt-88">
          <mxGeometry x="-0.102" y="2" relative="1" as="geometry">
            <mxPoint as="offset" />
          </mxGeometry>
        </mxCell>
        <mxCell id="h3T8TqcD6zdrMj5TEYQt-90" value="" style="rounded=0;whiteSpace=wrap;html=1;" vertex="1" parent="1">
          <mxGeometry x="1440" y="1095" width="30" height="40" as="geometry" />
        </mxCell>
        <mxCell id="h3T8TqcD6zdrMj5TEYQt-91" value="" style="endArrow=none;dashed=1;html=1;rounded=0;entryX=0.5;entryY=1;entryDx=0;entryDy=0;strokeWidth=2;startArrow=none;" edge="1" parent="1" source="h3T8TqcD6zdrMj5TEYQt-97" target="h3T8TqcD6zdrMj5TEYQt-90">
          <mxGeometry width="50" height="50" relative="1" as="geometry">
            <mxPoint x="1455" y="1335" as="sourcePoint" />
            <mxPoint x="1455" y="775" as="targetPoint" />
          </mxGeometry>
        </mxCell>
        <mxCell id="h3T8TqcD6zdrMj5TEYQt-92" style="edgeStyle=orthogonalEdgeStyle;rounded=0;orthogonalLoop=1;jettySize=auto;html=1;fontFamily=Helvetica;fontSize=14;fontColor=#000000;strokeWidth=2;" edge="1" parent="1" source="h3T8TqcD6zdrMj5TEYQt-93">
          <mxGeometry relative="1" as="geometry">
            <mxPoint x="2570" y="1115" as="targetPoint" />
          </mxGeometry>
        </mxCell>
        <mxCell id="h3T8TqcD6zdrMj5TEYQt-93" value="ApplicationResource.getApplication" style="rounded=0;whiteSpace=wrap;html=1;fontSize=14;" vertex="1" parent="1">
          <mxGeometry x="2200" y="1085" width="240" height="60" as="geometry" />
        </mxCell>
        <mxCell id="h3T8TqcD6zdrMj5TEYQt-94" style="edgeStyle=orthogonalEdgeStyle;rounded=0;orthogonalLoop=1;jettySize=auto;html=1;entryX=0.5;entryY=0;entryDx=0;entryDy=0;fontFamily=Helvetica;fontSize=14;fontColor=#000000;strokeWidth=2;dashed=1;" edge="1" parent="1" source="h3T8TqcD6zdrMj5TEYQt-95" target="h3T8TqcD6zdrMj5TEYQt-93">
          <mxGeometry relative="1" as="geometry" />
        </mxCell>
        <mxCell id="h3T8TqcD6zdrMj5TEYQt-95" value="此方式获取实例过后，eureka 不会被删除&amp;nbsp; 如果下线了 只会标记DOWN&amp;nbsp; 因为readOnlyCacheMap 不会删除 只能更新" style="text;html=1;strokeColor=none;fillColor=none;align=left;verticalAlign=middle;whiteSpace=wrap;rounded=0;labelBackgroundColor=none;fontFamily=Helvetica;fontSize=14;fontColor=#000000;" vertex="1" parent="1">
          <mxGeometry x="2207.5" y="915" width="225" height="80" as="geometry" />
        </mxCell>
        <mxCell id="h3T8TqcD6zdrMj5TEYQt-96" value="cancel 实例 DELETE&amp;nbsp;" style="edgeStyle=orthogonalEdgeStyle;rounded=0;orthogonalLoop=1;jettySize=auto;html=1;entryX=0;entryY=0.5;entryDx=0;entryDy=0;dashed=1;fontFamily=Helvetica;fontSize=14;fontColor=#000000;strokeWidth=2;" edge="1" parent="1" source="h3T8TqcD6zdrMj5TEYQt-97" target="h3T8TqcD6zdrMj5TEYQt-100">
          <mxGeometry relative="1" as="geometry" />
        </mxCell>
        <mxCell id="h3T8TqcD6zdrMj5TEYQt-97" value="" style="rounded=0;whiteSpace=wrap;html=1;" vertex="1" parent="1">
          <mxGeometry x="1440" y="1285" width="30" height="40" as="geometry" />
        </mxCell>
        <mxCell id="h3T8TqcD6zdrMj5TEYQt-98" value="" style="endArrow=none;dashed=1;html=1;rounded=0;entryX=0.5;entryY=1;entryDx=0;entryDy=0;strokeWidth=2;" edge="1" parent="1" target="h3T8TqcD6zdrMj5TEYQt-97">
          <mxGeometry width="50" height="50" relative="1" as="geometry">
            <mxPoint x="1455" y="1555" as="sourcePoint" />
            <mxPoint x="1454.9999999999995" y="1135" as="targetPoint" />
          </mxGeometry>
        </mxCell>
        <mxCell id="h3T8TqcD6zdrMj5TEYQt-99" style="edgeStyle=orthogonalEdgeStyle;rounded=0;orthogonalLoop=1;jettySize=auto;html=1;fontFamily=Helvetica;fontSize=14;fontColor=#000000;strokeWidth=2;entryX=0;entryY=0.5;entryDx=0;entryDy=0;" edge="1" parent="1" source="h3T8TqcD6zdrMj5TEYQt-100" target="h3T8TqcD6zdrMj5TEYQt-103">
          <mxGeometry relative="1" as="geometry">
            <mxPoint x="2190" y="1305" as="targetPoint" />
          </mxGeometry>
        </mxCell>
        <mxCell id="h3T8TqcD6zdrMj5TEYQt-100" value="" style="rounded=0;whiteSpace=wrap;html=1;" vertex="1" parent="1">
          <mxGeometry x="2110" y="1290" width="30" height="30" as="geometry" />
        </mxCell>
        <mxCell id="h3T8TqcD6zdrMj5TEYQt-101" value="" style="endArrow=none;dashed=1;html=1;rounded=0;strokeWidth=2;" edge="1" parent="1" target="h3T8TqcD6zdrMj5TEYQt-100">
          <mxGeometry width="50" height="50" relative="1" as="geometry">
            <mxPoint x="2125" y="1555" as="sourcePoint" />
            <mxPoint x="2124.967391304348" y="1130" as="targetPoint" />
          </mxGeometry>
        </mxCell>
        <mxCell id="h3T8TqcD6zdrMj5TEYQt-102" style="edgeStyle=orthogonalEdgeStyle;rounded=0;orthogonalLoop=1;jettySize=auto;html=1;fontFamily=Helvetica;fontSize=14;fontColor=#000000;strokeWidth=2;" edge="1" parent="1" source="h3T8TqcD6zdrMj5TEYQt-103" target="h3T8TqcD6zdrMj5TEYQt-106">
          <mxGeometry relative="1" as="geometry" />
        </mxCell>
        <mxCell id="h3T8TqcD6zdrMj5TEYQt-103" value="InstanceResource.cancelLease" style="rounded=0;whiteSpace=wrap;html=1;labelBackgroundColor=none;fontFamily=Helvetica;fontSize=14;fontColor=#000000;fillColor=#FFFFFF;" vertex="1" parent="1">
          <mxGeometry x="2190" y="1279.5" width="240" height="51" as="geometry" />
        </mxCell>
        <mxCell id="h3T8TqcD6zdrMj5TEYQt-104" style="edgeStyle=orthogonalEdgeStyle;rounded=0;orthogonalLoop=1;jettySize=auto;html=1;fontFamily=Helvetica;fontSize=14;fontColor=#000000;strokeWidth=2;exitX=0.5;exitY=0;exitDx=0;exitDy=0;" edge="1" parent="1" source="h3T8TqcD6zdrMj5TEYQt-108" target="h3T8TqcD6zdrMj5TEYQt-43">
          <mxGeometry relative="1" as="geometry">
            <Array as="points">
              <mxPoint x="2850" y="1210" />
              <mxPoint x="3000" y="1210" />
            </Array>
          </mxGeometry>
        </mxCell>
        <mxCell id="h3T8TqcD6zdrMj5TEYQt-105" style="edgeStyle=orthogonalEdgeStyle;rounded=0;orthogonalLoop=1;jettySize=auto;html=1;fontFamily=Helvetica;fontSize=14;fontColor=#000000;strokeWidth=2;" edge="1" parent="1" source="h3T8TqcD6zdrMj5TEYQt-106" target="h3T8TqcD6zdrMj5TEYQt-108">
          <mxGeometry relative="1" as="geometry" />
        </mxCell>
        <mxCell id="h3T8TqcD6zdrMj5TEYQt-106" value="AbstractInstanceRegistry.internalCancel" style="rounded=0;whiteSpace=wrap;html=1;labelBackgroundColor=none;fontFamily=Helvetica;fontSize=14;fontColor=#000000;fillColor=#FFFFFF;" vertex="1" parent="1">
          <mxGeometry x="2470" y="1280" width="260" height="50" as="geometry" />
        </mxCell>
        <mxCell id="h3T8TqcD6zdrMj5TEYQt-107" style="edgeStyle=orthogonalEdgeStyle;rounded=0;orthogonalLoop=1;jettySize=auto;html=1;exitX=0.5;exitY=1;exitDx=0;exitDy=0;fontFamily=Helvetica;fontSize=14;fontColor=#000000;strokeWidth=2;" edge="1" parent="1" source="h3T8TqcD6zdrMj5TEYQt-108" target="h3T8TqcD6zdrMj5TEYQt-113">
          <mxGeometry relative="1" as="geometry" />
        </mxCell>
        <mxCell id="h3T8TqcD6zdrMj5TEYQt-108" value="remove" style="rounded=0;whiteSpace=wrap;html=1;labelBackgroundColor=none;fontFamily=Helvetica;fontSize=14;fontColor=#000000;fillColor=#FFFFFF;" vertex="1" parent="1">
          <mxGeometry x="2790" y="1275" width="120" height="60" as="geometry" />
        </mxCell>
        <mxCell id="h3T8TqcD6zdrMj5TEYQt-109" value="" style="edgeStyle=orthogonalEdgeStyle;rounded=0;orthogonalLoop=1;jettySize=auto;html=1;fontFamily=Helvetica;fontSize=14;fontColor=#000000;strokeWidth=2;" edge="1" parent="1" source="h3T8TqcD6zdrMj5TEYQt-110" target="h3T8TqcD6zdrMj5TEYQt-111">
          <mxGeometry relative="1" as="geometry" />
        </mxCell>
        <mxCell id="h3T8TqcD6zdrMj5TEYQt-110" value="publishEvent" style="whiteSpace=wrap;html=1;fontSize=14;rounded=0;" vertex="1" parent="1">
          <mxGeometry x="2910" y="330" width="120" height="60" as="geometry" />
        </mxCell>
        <mxCell id="h3T8TqcD6zdrMj5TEYQt-111" value="EurekaInstanceRegisteredEvent" style="shape=tape;whiteSpace=wrap;html=1;fontSize=14;rounded=0;" vertex="1" parent="1">
          <mxGeometry x="3260" y="310" width="310" height="100" as="geometry" />
        </mxCell>
        <mxCell id="h3T8TqcD6zdrMj5TEYQt-112" value="" style="edgeStyle=orthogonalEdgeStyle;rounded=0;orthogonalLoop=1;jettySize=auto;html=1;fontFamily=Helvetica;fontSize=14;fontColor=#000000;strokeWidth=2;" edge="1" parent="1" source="h3T8TqcD6zdrMj5TEYQt-113">
          <mxGeometry relative="1" as="geometry">
            <mxPoint x="2990" y="1435" as="targetPoint" />
          </mxGeometry>
        </mxCell>
        <mxCell id="h3T8TqcD6zdrMj5TEYQt-113" value="publishEvent" style="whiteSpace=wrap;html=1;fontSize=14;rounded=0;" vertex="1" parent="1">
          <mxGeometry x="2790" y="1405" width="120" height="60" as="geometry" />
        </mxCell>
        <mxCell id="h3T8TqcD6zdrMj5TEYQt-114" style="edgeStyle=orthogonalEdgeStyle;rounded=0;orthogonalLoop=1;jettySize=auto;html=1;entryX=0;entryY=0.5;entryDx=0;entryDy=0;fontFamily=Helvetica;fontSize=14;fontColor=#000000;strokeWidth=2;dashed=1;" edge="1" parent="1" source="h3T8TqcD6zdrMj5TEYQt-115" target="h3T8TqcD6zdrMj5TEYQt-117">
          <mxGeometry relative="1" as="geometry" />
        </mxCell>
        <mxCell id="h3T8TqcD6zdrMj5TEYQt-115" value="EurekaInstanceCanceledEvent" style="shape=tape;whiteSpace=wrap;html=1;fontSize=14;rounded=0;" vertex="1" parent="1">
          <mxGeometry x="2990" y="1385" width="310" height="100" as="geometry" />
        </mxCell>
        <mxCell id="h3T8TqcD6zdrMj5TEYQt-116" style="edgeStyle=orthogonalEdgeStyle;rounded=0;orthogonalLoop=1;jettySize=auto;html=1;exitX=0.25;exitY=0;exitDx=0;exitDy=0;entryX=0.813;entryY=1;entryDx=0;entryDy=0;entryPerimeter=0;fontFamily=Helvetica;fontSize=14;fontColor=#000000;strokeWidth=2;" edge="1" parent="1" source="h3T8TqcD6zdrMj5TEYQt-117" target="h3T8TqcD6zdrMj5TEYQt-44">
          <mxGeometry relative="1" as="geometry" />
        </mxCell>
        <mxCell id="h3T8TqcD6zdrMj5TEYQt-117" value="invalidateCache" style="rounded=0;whiteSpace=wrap;html=1;labelBackgroundColor=none;fontFamily=Helvetica;fontSize=14;fontColor=#000000;fillColor=#FFFFFF;" vertex="1" parent="1">
          <mxGeometry x="3510" y="1200" width="120" height="60" as="geometry" />
        </mxCell>
        <mxCell id="h3T8TqcD6zdrMj5TEYQt-118" style="edgeStyle=orthogonalEdgeStyle;rounded=0;orthogonalLoop=1;jettySize=auto;html=1;strokeWidth=2;entryX=0;entryY=0.5;entryDx=0;entryDy=0;" edge="1" parent="1" source="h3T8TqcD6zdrMj5TEYQt-119" target="h3T8TqcD6zdrMj5TEYQt-122">
          <mxGeometry relative="1" as="geometry">
            <mxPoint x="2170" y="1535" as="targetPoint" />
          </mxGeometry>
        </mxCell>
        <mxCell id="h3T8TqcD6zdrMj5TEYQt-119" value="" style="rounded=0;whiteSpace=wrap;html=1;" vertex="1" parent="1">
          <mxGeometry x="2110" y="1520" width="30" height="30" as="geometry" />
        </mxCell>
        <mxCell id="h3T8TqcD6zdrMj5TEYQt-120" value="" style="endArrow=none;dashed=1;html=1;rounded=0;strokeWidth=2;" edge="1" parent="1" target="h3T8TqcD6zdrMj5TEYQt-119">
          <mxGeometry width="50" height="50" relative="1" as="geometry">
            <mxPoint x="2125" y="1585" as="sourcePoint" />
            <mxPoint x="2125" y="1320" as="targetPoint" />
          </mxGeometry>
        </mxCell>
        <mxCell id="h3T8TqcD6zdrMj5TEYQt-121" style="edgeStyle=orthogonalEdgeStyle;rounded=0;orthogonalLoop=1;jettySize=auto;html=1;strokeWidth=2;" edge="1" parent="1" source="h3T8TqcD6zdrMj5TEYQt-122" target="h3T8TqcD6zdrMj5TEYQt-123">
          <mxGeometry relative="1" as="geometry" />
        </mxCell>
        <mxCell id="h3T8TqcD6zdrMj5TEYQt-122" value="InstanceResource.renew" style="rounded=0;whiteSpace=wrap;html=1;fontSize=14;" vertex="1" parent="1">
          <mxGeometry x="2200" y="1505" width="200" height="60" as="geometry" />
        </mxCell>
        <mxCell id="h3T8TqcD6zdrMj5TEYQt-123" value="AbstractInstance.renew" style="rounded=0;whiteSpace=wrap;html=1;fontSize=14;" vertex="1" parent="1">
          <mxGeometry x="2560" y="1505" width="200" height="60" as="geometry" />
        </mxCell>
        <mxCell id="h3T8TqcD6zdrMj5TEYQt-124" value="&lt;font style=&quot;font-size: 14px&quot;&gt;只针对registry 进行renew&lt;/font&gt;" style="text;html=1;strokeColor=none;fillColor=none;align=center;verticalAlign=middle;whiteSpace=wrap;rounded=0;" vertex="1" parent="1">
          <mxGeometry x="2825" y="1505" width="215" height="30" as="geometry" />
        </mxCell>
        <mxCell id="h3T8TqcD6zdrMj5TEYQt-125" value="" style="rounded=0;whiteSpace=wrap;html=1;" vertex="1" parent="1">
          <mxGeometry x="1440" y="1515" width="30" height="40" as="geometry" />
        </mxCell>
        <mxCell id="h3T8TqcD6zdrMj5TEYQt-126" style="edgeStyle=orthogonalEdgeStyle;rounded=0;orthogonalLoop=1;jettySize=auto;html=1;entryX=0;entryY=0.5;entryDx=0;entryDy=0;strokeWidth=2;dashed=1;" edge="1" parent="1">
          <mxGeometry relative="1" as="geometry">
            <mxPoint x="1470" y="1535" as="sourcePoint" />
            <mxPoint x="2110" y="1535" as="targetPoint" />
          </mxGeometry>
        </mxCell>
        <mxCell id="h3T8TqcD6zdrMj5TEYQt-127" style="edgeStyle=orthogonalEdgeStyle;rounded=0;orthogonalLoop=1;jettySize=auto;html=1;entryX=0.94;entryY=1.057;entryDx=0;entryDy=0;entryPerimeter=0;strokeWidth=2;" edge="1" parent="1" source="h3T8TqcD6zdrMj5TEYQt-123" target="h3T8TqcD6zdrMj5TEYQt-43">
          <mxGeometry relative="1" as="geometry">
            <mxPoint x="2760" y="1440.0526315789475" as="sourcePoint" />
            <mxPoint x="3176.2000000000003" y="713.7099999999998" as="targetPoint" />
          </mxGeometry>
        </mxCell>
        <mxCell id="h3T8TqcD6zdrMj5TEYQt-128" style="edgeStyle=orthogonalEdgeStyle;rounded=0;orthogonalLoop=1;jettySize=auto;html=1;exitX=1;exitY=0.5;exitDx=0;exitDy=0;entryX=0;entryY=0.5;entryDx=0;entryDy=0;" edge="1" parent="1" source="h3T8TqcD6zdrMj5TEYQt-129" target="h3T8TqcD6zdrMj5TEYQt-97">
          <mxGeometry relative="1" as="geometry" />
        </mxCell>
        <mxCell id="h3T8TqcD6zdrMj5TEYQt-129" value="销毁应用" style="whiteSpace=wrap;html=1;fontSize=14;rounded=0;" vertex="1" parent="1">
          <mxGeometry x="135" y="765" width="120" height="60" as="geometry" />
        </mxCell>
        <mxCell id="h3T8TqcD6zdrMj5TEYQt-130" value="&lt;font style=&quot;font-size: 14px&quot;&gt;为什么只对register 缓存renew 呢？&lt;br&gt;当 二级缓存过期后 会继续向register 获取&lt;br&gt;&lt;/font&gt;" style="text;html=1;strokeColor=none;fillColor=none;align=center;verticalAlign=middle;whiteSpace=wrap;rounded=0;" vertex="1" parent="1">
          <mxGeometry x="2840.5" y="1540" width="259" height="40" as="geometry" />
        </mxCell>
        <mxCell id="h3T8TqcD6zdrMj5TEYQt-131" style="edgeStyle=orthogonalEdgeStyle;rounded=0;orthogonalLoop=1;jettySize=auto;html=1;" edge="1" parent="1" source="h3T8TqcD6zdrMj5TEYQt-132" target="h3T8TqcD6zdrMj5TEYQt-75">
          <mxGeometry relative="1" as="geometry" />
        </mxCell>
        <mxCell id="h3T8TqcD6zdrMj5TEYQt-132" value="" style="shape=image;verticalLabelPosition=bottom;labelBackgroundColor=default;verticalAlign=top;aspect=fixed;imageAspect=0;image=data:image/png,iVBORw0KGgoAAAANSUhEUgAAA8gAAAHqCAYAAADYqWcWAAAgAElEQVR4nOzdf3RU9b3v/+cG9Zx7iC5bkswk9ELrr1Ay3PwCi3CONAgWQum6Cd+jFjzfBoRwr7H3lkK1Zy2INbhWq8Xacyt+DxGonqucar/Gu0oJVASqPUROlYQcJpZYtYWWSSYJrV9+nNtbhc/3jz2/f+5JJskAr8daLsnMns/+7M/+7Jn9ns/78xmrtLTUICIiIiIiInKFGzfWFRARERERERHJBQqQRURERERERFCALCIiIiIiIgIoQBYREREREREBshQgz555Dc/OdFaUKb6K55b8Bd+ZamVj1znplqomHqjyjFj5puhuvrr4Ye4tcY3YPkbTSLeXiIiIiIiIE1c52cgUX8VzldCy6yParcs3sB0Jt1Q1cWfeIX7089cYjGm7W6qauJNWnjrizeo+TdHdfLUCXt39I94dxvkyxsWcz6+hKi9cxvsd36KtN/f6gDEeFi+u44bz4bYO1r9yQs+w20JERERERC5/jgLkbLJ8H/MV38ejvdsx84dzpyEv+fMfnhvIuEyr90V+sHsYlXIgFHD6W/nB6+EA/paqe7jFl4PB5nUuPgkwYSq3XPcag2eB6zzcMAEgn/zr4N2zY1pDERERERHJcZqDLAmVzAiMxr59LOrxd4+8mHvBcUgPHe/DDcVuAAqKp/KHzlY+GONaiYiIiIjIpSHlCPKUqVfTfHM4hl7zpfGsCfy799d/5pvHTdLtzbmPefjAx5wIBFOm+Cr+qWp8aNuOI3/iH3zxgVbsPo25kHFqtym6m6/eMsiPfu7n1sV13Bh4bWx6sCm6m/9WOTX8d9/LcenOcduc+5e4dOnYbeyy7P8PnBmEG/P5JDBw7R383d9M5YNfPMWhM27y84Bzzuscu5/Y48kvaeTLN+WH/v7CF7/FFwL//uN7/8jzPX5Hx26Mh5tc8OH73ri08FiO2idBqnZsfWLr76SdE52vQd9xbrilAGPgFvcg7x2Hmyoyq/MtVU3cem4rv8xbwxfcgbY3x5WmLSIiIiJymUsZIJ84/hFfOe5sDrLlvppH+Iiv7PoIY8bxtSVX8V8/ezEURAdTq4PPJWKKr+KRmwxbf/Kn6P0MISix8v6aexYP0vGLR/jBWYv8kkbuqQinB+eXNHLPjYP87Kff4t2I+aoPVBEOFK+9g78r7uYHu1+0/w6kHd8zwx/aJrYcCM4tTiAvn09Y+dxQ7ObQGfuhP5zpAyxHdQ6mVgfrEWuwZws/6Ek/BzntsQfSlSPrloiT9kmWqh13vtxLuafvZX6w2xt6zcKp3lAQ7eR8AXDGywd5n6fkukFuONfNIeCmDOsM8Imb/gt3hupj7+vOGdN51+F8cWNmcffmlUxN0P6mfw8tj72MX8G2iIiIiEhOydocZNP3EfVvXQTAsi7ylh8arrUAk/qFMSxrPDMnfUS7b5j1MYN0/OIp2s/aQciA7zgf3jiV/Oug54yLW9wT+fD9/zcUQFqWn0Pv9lBZUcot5pgdkJ7dz/NHIuvm5T1/HTeE9uHh1hsn8kHnU8lHFs8N8iH2qGhJcT5H3jtOpdtDwfH4QCtVnbM1f9aY9Mfe47CsdO0DUDB1bjhVO0VAGDkaHCznzrwCwO+sznn5XH9+kD/Qxx/68llYmc8f3n0NmA5M5Po84KyzOsfXJ75vpG0b6zAvfeNwqg3SliEiIiIiIqNr1BfpSsXyfcz/fdbw2Ny/4LkqO4BIlMrtzCCDZwgNgFpn9/N82/7AAwVcP8EeJfzqTdGvMuZ4xL/jU4MhnD4dGmlNW5d88q+bzvWuQd57u5sPbizlkxRw/YTTfHjOaZ2zxdmxO5G2fYBP5k2Ec/60qdqpZVbnAd9xuDGf9xJ8yeKkzslpsS8RERERkctZTgXIANbZC3zzpxcAMNeO57G5V/MdPhpikJxa0p8sivyJIA7xzz+Nnp8aSp8+43cQHAcUl3KDv5s2ywv+Om4q7s7CEQxdqmPnjJcPzs+h8pb55Pvif54KcNY+QXku8s2xYQbJaeoc+efZ/TzfFnjcDPDhebg+0zonFP0FRipKsRYRERERufQ4W8X6rKGPccycNMK1iXXmIh3nEz/lqW+hafMz3F8zOeNiLcvLL98/zQ0V93CLSRN4R4x+mqK7Q4s2Bct5zw833DKffGMwxsXsuU1R29hB9ESqbprKBz57RegeXw833DLX/lmikXBukA8p4abi+KecHHswpdjK+2vumTE96rlbqu6Ofl2K9gHoefcQH06Yw8Kp7iEfjpM6F1yXn/DxoE9eF7H/NHWOZYyHxRUlfPj+zx0v0mWnWDfQvH513H+bHm9VcCwiIiIikoMcjSBbZy/w/7w3juaqv+S5KvuxTFOfZ8+8hjWRgUigrMi5y7ErWDvZz8TCYuCk43oEDfZs4Uc08uWIlZ4hPPfUsvwc6jjEDX9Tx1cXL7WfO/cv/Oy9Qe6M+F3jnrdbuWlxHV/+4l8D9urM/8z/xT0xv31szGA4ndrXzQcVddxAj+MRSbBHOqOCucpv8VWIW83ZOrufve9P5cuB54P1Ci54le7Ywf6t5f/xU3sBq+DxQ2AU17KwcNY+1tn9/M9fwN/9zRq+elPqVaxTcVLndJyeU7AXDYs97ucTjV6LiIiIiMhlwyotLc1+7rLIJcxOuW51HHiLiIiIiMjlwVmKtYiIiIiIiMhlTgGyiIiIiIiICEqxFhEREREREQE0giwiIiIiIiICKEAWERERERERARQgi4iIiIiIiAAJAuS8vLxE24mIiIiIiIhc1jSCLCIiIiIiIoICZBERERERERFAAbKIiIiIiIgIoABZRHKEqWhkY/2suMc99S3cXzN5DGokV6Jk/TDX6LoQEREZGQqQLyGe+pacvHEzFY00bX4m4c1a8Lngf3dVGEdl5uqxXgpcNc1JzwcEAoDvNuIxzs5FsMxMX5MJU9FI0zIX7a++GffcsVf3QvUGx30n7X5StM2lVs5Qr69LRbbaOaP9JemHuSab14WIiIiEXTXWFbgcGDOZ+Q9tYE6hFXrs+AureKnTSvGqseOpb6HOE103493OpmcPZ31fVucWmjvBmFncvXll1su/HCQ8H/17aHnsZfxW9vvQ9LIyGNjLQAavKSh0Q3cb3hGojzGzuHtZGacPPsp+X3z5lq+VLTuLaFr2AJ6Op0akDtlmB1rwyvqRra/T6+tSe49yKpvtnK4fAky47ZtUVrkx7z/Pv+x5O76Mm+/j9i9MD/197shmOt/8/YhscyleFyIiIpcCBcjDFLwxLeneQfPj4QDTU5/bNy2RAXHwGO6v8fF028mMywrepEvmjJmMqxAGD2wKtb0prqNx7UKWLn57SOfD39ZEc1vq/Z32vu04+A6/xpdxXZyYvmIlJQN7adl9ApLVqWMX7Qs2ULviNrzD+CInW30118pJ5VJ9j4LRfW9J1Q+NmcFnH1jOf+jYz4BxkZ/g9ebm+/ibOws4+aP/zolBC5P/RSrvXkcFT4SC22xtE5Kl60JERETClGI9TKGbqh9Gp+R5n92S0zeekSzrMO90w8TC4rGuyhWomIkFMNh7IvzQKR+Do7m/EXmNM8bMYlop9OxLPVpuWSd5bV8XlFaNWJr35epyeI8aaen6YUHNcnj1a3S09yV5/af49EwP5zue58Sg/Xpr8Ke82+FnQuUXyDcma9tE0nUhIiKSfRpBHobgTdXpg+lH40xFIw8vLw//nSCFNlEaZOTIYpCrppk184qSlxO7rzTp06a4jttLoWfnm4Bdjqe+hVp2RL0u9rHY/QwnZTO2LLveqbeJPS5T0UjTgl5aHvMxd/NKpgbaJNN6hdM2jzAtopxE5yI2PTq4TfBcTty3Om7f9ghxOT1PbuQ1ismnjx5/+PnYkazI7YOpn7GPxfadpMc8KX5/cccfGHGcGtU3e2mPeU2yY48sg52reb1oU7i/mqPR6bCVVZTQxSsdBLtech1H6Fm2kmmV4M1wVNFJX/XUt3B7/6O8UbghdFyx9U1XTuS1CVD3xDbqAv+Oah+H146T942Ux53F9ygn7eO0zune67LRzsFMjMGd0ddgaJ5xxPWUrh8O7lnLYKoOWlDOJz/h5w+v/i5UgMn/IrdUugCYUAADZGebwdhvz4ZxXYiIiEg8BcjDMamYfIIja8lvnkxxHY1lR2hev8X+OxA8NKzwxaU5x6ZBxrI899Hg3U7z+sOh10Sm4rpqmmmo9tO6bhVeKxw4bawnKpi0PPfRtPm+0N+DBzZlHNxma35xbJ0hGIwn3ybpcRUuomFzL+1PrqbZZ9mvy3COnrvIhWUVUbvZFV2OZwau3SfwW1b0+Vof/sKgadkq7ji6kddOFTOxoI/TiQJRVxET8eM/Be7F5eRbReR/fRtzAk8b73Y2PX44nOYZsX2om8U8Nn3FKnh+NY+cmsL8hzZQUjQFOuPTs93l5fFlRQgGFRx8lOaIYKVpGaHXpDv2/T4rFIiz4Bka+ndE9dfbF0/BGyjbXeSCgaMO50P7OD1A0mNLxWlfzZ+3kdqY6yuyvunKCaa3p5sb66Q+Tt430srie1R8+9jXYGR6b7be67LRzpavlTe6F1K7YCmujnCAPr2sDLp3RM0zzqwfJvAJFxOAPwTbadGTTL3Bz+9e3Q933sF/+ARAlraJSy8Z+nUhIiIi8ZRiPQosXytPRwZxgZTmSO7FNQnTIGNFjprGpkYbMxmPx83pg7tCN4vJUvCMdzvN61fTvH41j6zbzmD1hjFZNdqYWcytdtOzM3kAm9Fxmd6okaG+o0c5jQvXJOd1Kih0x5UTa/oK+wY/MnhwF7litrIDUWNmcdd3wz/JYt+M9zIQ3Ff/HrauWxU6Fz2lK9n4YB2uwHFFbh/af1kZdB8JtYf32aZAXVOnQxcUuuPKCjJmMvPvXcjE7h1RI+Wx+3d27ABuJvbvGJHF30ZKqutrtDl53xjtfUW3T/w1mM33umw41tUFBeV4Ate/nS3TN3KrVH9iCRWNTzKVF/iXLd/ht38cwW1ERERkRGgEeRQkSieE6BTigkI39PuGuWqxHRzlz9tI07zYOhxN+irLOsyLO6toWlaFx7w5uvMSgyNcKTfK5LiiR0ctXytPf6OVVKNn0eXZC1LR3RZOZw4G6IGFrYJpq5YVPQoflW4aOC6A6SuqeGdnF7VlxRhDqKw+puCJWTDLsg7z+sEaSqqLKAD6YvZt7yeYNptg0awUKdRpF+iaNIOSAujZF061H9KxQ2CEOxiIhI/tpW9cOsHyWHPyvpEb+7K/gPL6RvO9zqHAIlYl5VPY7ztpZ1BEXNtZ80c/5/HwH++E3734NToHI8v387//aP8/O9uIiIjISFKAPByn3qZnYCGzY1L4IgVvGGezl63roufz1cZuXFiMy5hh3zgmnX+aiwvyZLAg1egclx2MRwaJ0aOy4fThQ99LMMIcWZeBXgYqH2Bp/y62+Gdwe2Ex7soqZhd08cruE8Bt0eUG2KO8wXTP4rht3ItrmGpZHE+QNps6hTq+rHjRaeHuxauYUxixL4fHHvwpKW+SVO7Q3nr9EPgyIMW06Azqf3nI6H0jlWy/RyUUyJRg9N/r0gmOcs9eMAPX7mLmVkP7k5HXti2zfpjAQB//GyBicS2AvJs9TPijl3cHALK0zZCuaxEREXFKKdbDELz5sgoX0bDitqjnPPWN0auKRoyYmIrGuN+9PfbqXk4XLGTp4inDqM9hXj/YR8myBzJa0TT8+5/hFOaB/r6o1MlEv9WbDcEUzJIFS3EZgzGTuePB6H0N9bhS8dS30LT5mVDac0ggAIyaOxz72Ckfg7gpKU9xrlxF5BcuomEZvLH7hP2agoWsWV4ebufKKkpi9uWqaaa2tI/25wMBRsRIdPD5NfOKMKY38fxmCKVDm+I67oo9PiC/yK633dbN3FEc2aZuJgaypU1FY9RCSE6PPaOfkuo4Qg9lTKtMvRkQWkjpnY7ETyc9p2PB38tpp8eVSpr3jXSy+R4VK9H7hpNysvFeF+KknTt20c5C5q6ooiTZ6HEm/TABy3qb33X4mVB5L1Py7TYNLq41+NYuzltW1raJk+a6EBERkcxYpaWlURFHXl4e586dG6v6XJISrfobOdoZXPgoP3jT2L+HV7zl1Ba2Ra/CHLMdRK/s6mRlaYhf4RWi5w4mCnZjR2djj8l4t9PSX0NDRJ2TBc3p9hW7Tey+Bg9s4mVWRe3LyXGlWxgpUrBesSth24txHY1adTfRY4nOVWSacXAV3thVrWezN1ROwuNJsOJvZBua/j20PA9L1xbxRoLjjFz9N21ZCeZZx62Q/jwsTbiCdopjT7J6cKpzUVu4N+XqzKH2SzGnOdk5jT3uqHJj+mq668tJOUGx5zf2Wk57XTh433Ban2y8Rzl638jie1022jl2m1Qr2qfqhxNu+yaVVe74+vzhNTpfCAeusdsN/Oy/c/zXqcsa6jbg7LoQERGRzChAFpExFQze8g8+GhfYhLbJ4MsPGRmJvkC4VCT6kiuWk36Ya3RdiIiIZJ9SrEVkTNmLxHWRP28jd1XEp9Cb4joal5WlXOlcJBlTXMfSajc9+1L/fnS6fphrdF2IiIiMDAXIIjLmrM4tbD3QS0nZbXHPTb/T/l3mTH+nW65srppmmjY/w8NfX+Q43T9VP8w1ui5ERERGhlKsRURERERERNAIsoiIiIiIiAigAFlEREREREQEUIAsIiIiIiIiAihAzlheXt5YV0FERERERERGgAJkERERERERERQgi4iIiIiIiAAKkEVEREREREQABcgicpkxFY1srJ811tUQERG57CX7zPXUt3B/zeQxqJFIZhL11fGFhYXfinzgmmuu4c9//vOoVuxSova5PJiKRh5e30DpVV289ev/b6yrA9gX6H+590vMvdP+L5fqNlSj3c6mopGmZS7aX/gnfnPWGvH9XanS9dVcvL7k8uCpb2FN+QBvHP39WFflkpdr12mu1edKMNzrKdVnrr//am798ko+M/gTuvty4/P4Uuxjl2KdLzWJ+upVY1wnkcuep76FOo/F4IFNPN12MuE2rppmaku7aF33FF4r/oPE/hCCV9Ynfj5b9awt3EvLYy/jj9mHp76FWnaw6dnDWd1nNo/LmFncvayM0wcfZb8vNz6MR4Mxk5n/0AbmFIaP+fgLq3ipc2TaIF1fvRSl64fBazhSquv5SjTa/TBbnLw/p5ON9zFT0cjDy8vjHr8c+tlofH45lehahqG1s6ummTXziqIeuxT6fLak+8y1fK1s2VlE07IH8HSMzLk3xXU0rl1IfqL7JtNL+5MbR/V+IFifwZ2ro/qB/Xg5PSNQn2xeX/kljXz5pvxw2WaQjl88RXvgyw9TdDf/rXJq3Ov++N4/8nyPP+J1LuZ8fg1VeeH6vN/xLdp6I9okpizT9zJPHfFGvb5ywum4/X+1Al7d/SN6mM7ixXXcGHPMsftxclyJ+qoCZLkiWZ1baO4c+f0YM4tppX0cOuBntmcGrt0n4oJPgIJCN3S3jenNw0B/HxQmf/50vy/jMkernQGmr1hJycBeWnafgMskcEvHmFncvXklJd07aH48/OWFp37kbkic9NXRPO+jxXi3h74gsm92NnA/j17ywUs2jEU/zAan78+jV5+joxpE5tp1Ohr18T7bgJfhByye+pbAF4UbY85Xbvb1keDoM7djF+0LNlC74ja8Wf6CHezA5ulvtALJzml0vXKtzzsxGnUOBaQc4p9/+hqDSfp0wXX5mHP/wo9+HrtNRFnX3sHf/c0crve38oPXIwLeGfPJ99mvu6WqiTtdpznyxrdoP2thjIfFi+u4t2QgEGgXcP0EsKx8rs8Dzob3z/nj/AHgOhef5DRH3ogN4L9FTSBIdnpcQFxf1RxkkZFUWUXJwFG8u4/QU7CQuZXxmxgzGVeKwFTSs290oWdf/Oj35Sx0g/LDN6Me9z67ZWS+rVdftZ16m54BmFhYPNY1yQmj3Q+zxsH7s0is4OfN6YO7crt/jyCnn7mWdZLX9nVBaRUeY0axhpKR6zzcMOE0HR3JA1+AT+ZNhHP+5MGx8bD4b+bA+1tDo8EAluWn/ch+Bi0LU3Q3d7qiR4Yty8sv3z/N9W4P+cZAcSk30MP7fYYbiqcn3n9ePtczyOCZ8P6t3hf5WeRrHB6XXYfovqoRZMkJsell8aM1C5k4EE7/DabzzS7oCn3j7qlv4fb+R3mjcEMohSr2G/nY/SRKhzIVjTQt6KXlMR9zN69kauC1sdumqnPQ9LIyTnt34bdO8k73SmrLboPOwwlfT+F9NG2+L6reA4s3RaVw1T2xjbrAv2NTwtLVJ91x9fX6obqIAqAv4pvY105NsYOifuftk66dY1PThnNcgH2jSxevdJD0C/zYfSYarRluGyZNrwrO04r4ZnvY+wrdpL2d9kuBuGPv3xOVSp/u2nHSVxNtlyzdMFFqYqrtnR5XonJStXMm/TBK5RLmFFoc3/cmkR3OSV9N1w+dvI8lLCfDc+q0PumOK5N+GFdOTJ3t8uJTtROdi8h6JyxnmO/PwTaMnVoS+Vgm/Sfd+UrnkvkcjDgup+0z1PeNofb5dNKX4+P0AJRUL8GzO3XZTvqhkz6frWNPlMpvvFF/OnpPcPKZG9JxhJ5lK5lWCd4xGr1N18fs66uInoMu5swrstt3XxFrlpenvX4S3pOkkY3rdMifX0lN5IZiN+0RqdKRjHGRnwcf9g0kLaFg6lxuOH+IHx3vS5hVYIyLObeUgL81FBxHmZDPJwECI8XvncvnhhtLucUcowc3+XnwwbvHAIuS4hI4f8geTY6V5yLfHGPAwXFFieirCpBlzLlqmmmo9tO6bpV9kx34sNhYD5uePWzPDVjv4+7NK1m6+G2ebjuJe/GqqJuCoPx5G6n1bqd5/eFQOZGpPcFUlWBKYDJW4SIaNvfS/uRqmn32B31DxNyEdHWGcPpez6snAItjXV3ULqvCY97Ea1kRdQnc5PTHzPG1LGhrorkt/RwTJ/VJd1zHogosIt8qgvIpvHbKfmiw1z4OJ+2Trp39WT4ud5ELBo6S7G3bVDQGyolJh4sJFIbbhl5fK290L6R2wVJcHRE3sQvKoHtHKDjOyvmaVEx+zHlJJDYVMLivhoeIusGKvnbs83b74il4204666s4u77Cx74xKqgeSnCcrpx07ey0HwJYnugvBYJlxtcnxXuCg34Yfy7i38eycU6d1iftcTnsh6a4jsayIzSv3xJoQ7s+DSt8Ue+ZiVK1E52LhpjjCn42OD4Xad6fnXDaf5yeL8sqj7rJhfBNcS5+DqY7p07bx0l9stXnnUr5fmid5LXHdjBx80rqnthGbZK5rk77Ybo+n61jj61PqOyIfTl9j0r3mRst8IVC0RToHJspKc76fBmzPXvZ+r2jLF27kIYFe9m67ghzN4eDe6ef3U6kO1/Zuo9ywjq7n73vT+XLN/0XvnpT4nm89mgsfCKwTVBw/rExHm69cSIfvu9NPlobGtG1g9w45wf5A+GR4h4f3HrjVPKvgx7s135wLhysJx3NDjzu6LiihPuqUqxlTBkzGY/HHZWqlCglx7IO8+KTe6F6A3fVN9JQDe1Pxr8ZRH6TN5zUntjFHfqOHuU0LlyTnNc5lL4XCDDx93KaMqZlOY3PcX3SHJddP9v0MheHDhxlomcG7gzbZyyOywnLKk/a9llrQ+BYVxcUlOMJtsWkGZQU9NH+6ptZ31c6priO20uhZ+dT0ft6fi+nI+tI7LVzmHe6RyaF2J7DfCR87Xbs4lC/Ib9oSlbLyXb/Md7tNK9fzSMvHI1/LoN9peqHkftK9j6W7XOaresiHcvXytORX/4E6hPJvbgmYap2XL1SHFfOvT9ncr4CX7w0r18d+i/yS6Nc+hwEZ+c0G8bifSxdOZZ1mJe+0cAj6zbRPuBmzte3sfG7zdxRbLex036Yrs9n69iNmcXcandUOck4eY+6PPXR/vzL9AX+6tkX/jeMzGfKaHzmOjXYs4Uf7H6En/UZbqz8Fg/U3M0tkceUl8/12POGf7D7kdB/ocW5rnPxSeAPZ/oSlh8uIzotGuyA9xa3HRQPBEeKfcfgjJcPztsjwNGvtecof+A7FlOOh5tc8OG58Fc3aY8rCY0gyxgrZmKB/U1a07zoZ4yJvhENrjIXHCVyvrCG/YHuzWiNKT/+U4S+4AovBGE5rvP0sjLoPxJOoTv1Nj0DC5kdk8Y3fM7bMOVxFYPdVrcxsdTPOz88Qk91FQUUM7Ggj9N+h+WMyXGlZnVu4RF/HY1rn6FpuV3H6BSkLLUhhBZ6KCmfwn7fSdzl5UwM3ohbWdyX48/R2HMHnPIxyEImuoDM114bloH+PqiOGKkLpiunGYHMvJzs9Z9IVucWXilriRmVcrav9P0wFft9zL4dyM45ze51kVqiNFKITu8sKHRDv2+Y6wjk2vszZPMazJ3PQWfnNHty630syLJOsv/xBl4LZtfcuxTvYy/T57AfOuvzWTj2YKZHuuMZ1nvU5W5kPlNyzbtHmukJLLR161Q37wYC4OACWe+eYci3elGLbEUKjE5/8O4xuG5+aKTYsvwMnoPKvAIKiF+g64NzMeUUl3IDp+nw9cVVMtlxJaMAWXJC0vTKyLkzxXU0LnNx6IU9lCx7hrtY7TAlM/pDPltS1Tk4L8+ywmmZQaYgszS+bNQnI+VVlHQf4SXrMHSvZFrlkexUcIicHFfk/Olkb3nxq13Gr0KcjTYMfqM8e9kSPLuPMK3aTc/O+LmGw95X8IY+Ip07MXf8TdSkYvLpw8mUnJEQm0o61J9GcVJO1q6LCHY6bvz8Qyf7ctIPEwu8j02CbJ7TYV8XDvphKDWfvWxdFz1vsjZ248JiXMYMe7G93Hp/zt75ypXPwYzOaVbk3vtYJMs6idfbx+zgOh6Bxx29/6Tt81k49lO+tMFxqGoO3hOcfOaG2YFlumkYl4rU74dJ2tlVxMQRuhcdEWf8dqpzxEPpFuhyYuDMINxoz1jBNgYAACAASURBVDOObKeSW+Zw/flD7PUBxREjxRb0+Hq4s6KUW5nIh312+nZB8dSobcAePV5ckWJ+c5Ljihbuq0qxllHhqW+hafMz3F8zOepxyzrM6wf7KFn2QMr0lOACJRzcxv7OVrbs7KJk2aZQOlPC14R+oy+7K006qnNgAYvYdLlHvrdnaGl8KdL/nLZhWqd8DOJmzrxyerrsdK9jXV2ULKghP81Lhyxbx9VxhJ5M2jWwCvGQ9uVEsD4rqigZ2MvrHdnfVzAQtwoX0bDitqjnPPWNeIzB8rXyRjdR+zJmMvPvXcjE7rZR/73oYIra8ReSp5FGSva+4aScjNo50/Tajl20D5Rx++Ipme8rUkw/TCT2fWxEz+kQrgsn/TAkYqTMVDTG/R7tsVf3crpgIUsXZ5ZuH12f7L0/D/T3RaVOJvsN3ZTvY1k8X7n0ORiS5pwCw05fz7X3sUSCKczBaR9O3xPS9flsHXswhbdkwVJcxmDMZO54MEl/jpTsPSqTz9zA9fZOR+KnZ8+8hueW/AXfmTr25zEVZ++H0e0MRKxDcmRkrkGH11eyz9NESmbUcQM9/PK4/VVPotTlOGe8fHAebqi4JyqFOb/kbmZfG/j73CAfUsKtU8OT9+yffOrh1cBPR9mjzIPhUebAa250W6H07U/mTYzaxlx7B3+3uM5eIOzt6LTrVMcVJ6KvagRZRpU9vyJ6pMTf1kQLzayJWZwkOD8juPiO8W5nU8TiBa+UtVD39W1MjPg2L3IhHbC/6Xs64qY57gZn+Taalme+CmG6Ok8vsxdlinszHGIan+Vr5eWD5awJ1Bei057S1ScTxvSG07k67BX9SujK6JtPp+2creOyP5RWRi2OFSnRasexaWPZbEP7g7SGNfPKGTywK64+2dqX1bmFRzrsBTxi+/1LgX16n22A+paokdahHJMT6c57MJh6OOJ8B6WqU+z7htNyHPefNP0wVnD/c5Zv5K5e+/3Hyb6c9ENI/z6WrXOaresiXT+0sOdMlqwNP2/699B6wEVtxM+GWb5WtjwJjWs30DQvfLyZpnhm6/25b3cbPdUrQ+1svNvZeqCGhpifOkvXf5yer0SLdAXLybXPweA82HTn1En7OKlPtvp87L7yv76NOWTWx4KLJk2N6T+DBzaFzg04vHYc9PlsHfuxH+5g2uaVrHliUWgfW1kV1Z8dv0el+cwNHWvEIpXJgsNDpy6yxj0ed9E4pvzqY06MQBA5Wvd+ED5fwXaOfT7bdc708yvy8zT4O8FVeTHTJPpe5qk2bzjTITC/OHaBLtP3cujnnCzLz6Gfb4XPr+ELX/wWXwhs88f3/pHngz/ndHY//7Mzn/9WGS7HnPsXfrQ7/DNMcSPVZ7x8cH4OlRMG+TBigS4r76/58hf/OnAcg3T84hF75NiynB9X5HMxfdUqLS2N+hokLy+Pc+dik7olSO2TuxL9JIdcOYI3LfkHnaSrylgIrcYZ+zNYSX4ea6TLyUV6H5PhUP+R0eLkM9fJCsvGjONrS66i4vwFHj4wMgGySDqxfVUp1iJyWbCsw7y4s4v8eRu5qyILadKSfYGFYmK5y8uZmGghmpEuR0REhiTdZ649X74s7crZn/7seCoti84eBccyNhL1VaVYi8hlw+rcwtaiZhpGZCVaGa7wCrzRqdHGHM3oNxyzVY6IiAxdqs/c6XcuhIOPJs3mCY0cY9j98z/xUrKFlURGWKK+qhTrDKl9RERERERELk9KsRYRERERERFBAbKIiIiIiIgIoABZREREREREBFCALCIiIiIiIgIoQBYREREREREBFCCLiIiIiIiIAAqQRURERERERAAFyCJyCTEVjWysnzXW1RCRK1Cy9x9PfQv310wegxqJiMhIuGqsKyByuTIVjTy8vDz09/EXVvFSpzXs8gYPbOLptpPZqOIlxVQ00rTMRfuTbwJDb0cZGvVnGWnZ7mPZlOr959ire7l97Qbu6l2dlfq6appZM68IY3ppf3Ij+3250QYiIlcKBcgiI8Tq3EJzJxgzi7s3r0y4jSmuo3FtOT2jdBNk3+TBK+ufwmtdOjddxszi7mVlnD74aM7fLHrqW6jzRNfxcggC1Z9Hh6e+hVp2sOnZw0C4vUsG9tLy2Mv4c+w4PfUt1JZ2JTwHnvoWagud19tJHxsL6d5/LF8rW3YW0bTsATwdw+uLpqKRhmo49L1VgX3l1vkWEbkSKEAWuUQEbx6vRNNXBAKE3ScgxwKERIx3ezjAKa6jce0G7ufRSz5IzqYruT8H2X2jiDdSBPihvp+DwTHAsa4uaktduCaB1xd+3JhZTCuFnp25We9Mvsxx9P7TsYv2BRuoXXEb3sC1PxTuIhcMHMV7CsXGIiJjRHOQRSSnhW609+XmjXZap96mZwAmFhaPdU0kh5iKRh7++iI4uCtpcOyqabZHZ3M0OAag4wg9uCkpnxL9eGUVJXTxTsfYVCsdy9fKG91u5nx9G3dVmKTbOX3/sayTvLavC0qr8Jjk5YmISO7TCLKMOVPRSNOCXloe8zF380qmBm5CYuefxc5Pix+lK6LnoIs584ow/Xto2VfEmuXlGHM0Kv0vOL8rVE7/ntDojF3OQgZ3ro7btz3/LDzaEFefiHKy3T5O5uXFHVfEccc+V/fENuoC/45N/03VzmCnTd7e/yhvFG4IpRLHtrGTcpye9+CN9isdJBxRmT3zGr509iN+cu3VrHEH63OBll0f0R5Zn+Kr+Keq8eG/+z6i/q2LAEyZejWPFF3k4QMfcyLm/M2eeQ0NfBzaNmOVS5hTaHF8X/TcRfVn2xXXnyOOLdUcW1Ncx9JqaH8y8ehy+v7j7LwPl2Ud5p3uldR6ZuDafSLUX6aXlUH3jtRtOIQ+FpuCnuyxdOcLwPtsAwM1zaxZvo37i5JMg0jz/hOl4wg9y1YyrRK8V3h2hIjIpUwBsuQEq3ARDZt7aX9yNc0++wa4IWI+l6ummYZqP63rVuG1LIyZzPyHNrCxnoibnjJme/ay9XtHWbp2IQ0L9rJ13RHmbg7fsATny7Wu2xhVTsND2Ddqvlbe6F5I7YKluDoCQYaZzPwF9s1eKJgorqOx7AjN67fYfwfmzDWs8MXdhA27bZzM/axoDLTPxuib6cC//W1NNLeln7PprJ0hf95Gar3baV5/OFSv2xdPwRu4wXRaTrrzDuGUw4EUbVR08zU09H3EV3ZdxJhxfG3JVXzps+NoP26P5EyZejWP3GTY+pM/0W5ZGGNx97yreXamHfj+9oyBmywmASci29VYfCoP+nozGxGyPPfRtPm+QBlHQ+2QWTurP1+O/dk+Z30Rc0wTKWb+vXaAm2ibdPWxEpx3CAet2Z4ffqyri9pl5XgmvYzfF5leHf5SaDT7mNPzBXZfeuSoPQ1iY+GOuOedvP+E+Tg9ACVFU6BzaNMpCgrd0O/L3YwBEZErgFKsJSfErtbZd/Qop7HntRkzGY/HzemIVMTE6Wx9tD//Mn2Bv3r2hf8N9g3a7aXQs/Op6HKe38vpgnI8k+ztjnV1QcTfTJpBSUEf7a++GSrL8rXydOSNsXWYd7qz3CgZsqxyplUO/fXO2zl6NCZ47MEU4ozKSXHeM6p7xGiwZV3kLT+4rw2OBlp8rsii770LoRFlyzK82HMRXOOYbQycNaG+Yq4dz3e+eDV3XWsAi6IJ0Hsms9Fj491O8/rVPPLC0fjn1J8dudz6szGTuePB4IJWqUdwLc8i5hRa5BdNiXvOaX1iz7vdX6LPe9bEplknSK8erT6WyfmKrNuW9TvoKV3JxgfrcI1BirSnvoWmzc8wrWt11r8wEBGRzGgEWXKEH3/EoiSWr5Wnv9EaeKCYiQX2KE/TvOhXGRMfgKTWx2l/zEOnfAyykIkuwEdosZWS8ins953EXV7OxJhFU4IjEnMKo29yjTfD6mSJ1bmFR/x1NK59hqbldp0yXzk5W+2cSTmpznu22EFu0c3X8NzNsfW5YP/jjKGXcXzqOvj0pHH0+g2Vk8bx4hkAQ+/ZIe65cwuvlLVEjUaqP6d3OfZnyzrJ/scb8Ne3ULt5E64Uac7Gu53mrioeXr6Ru3pj07Ad1ifRee9uG5HVxWPTrAsSpVePWh/L/LwHU9IndgdGkMdg9Nb7bAPHzGTmP/QMG8viR7JFRGT0KECWS0bS+XoZ3cy4w4FD0KRi8umjxx8szh5tmL1sCZ7dR5hW7Y5aiTV4ozebvWxdF37cngc3dsI348NbOTk77Zy9cvp6/VBdRAEQGwtmouPIn/iHRMGBZYEx9J63KLp2HJ8rMrx14CIz543j06egCMNbZxhyzG6nny7Bszs6DVj9ObXLtT+H5r1+fRsTU8xBtjq3sLWomYZlm7jDHx9Mp6tP6LwvmIFrdzFzqxnR3xAPp1n7mBibXj0Gfczp+Yr8Pe5NCfpWZu8/dnA+2HuCobSzZZ3E6+1jtqcYlzFKsxYRGSNKsZZREUwfu79mcsavtazDvH6wj5JlDwxrdVB7Xh5R5Rgzmfn3LowfWek4Qg9lTFtRRcnAXl5PtBJrxDwxU9EY99u3YyqwcnIcfy+nKUuYupq1ds5SOSHBczHEdFvLusj/es9QUXm1nU6dcBvD789B0aTxVJ67SLt1kbfOjec/T7VwnzecGkb16dhF+0AZty+eEtiX+nPGLqf+TGDe6wtHmbp8W8r3RH9bE690u5m9NrzvjOrTsYt2FjJ3RRUlKUaPZ8+8hueW/AXfmTqMcx5Ms763Jvnq1VnoYwP9fVGp0rG/O55J+3jqW3h4eTnHX1iV/IuXTN5/cnzlbhERcUYjyDKq7Hl9mS9e4m9rooVm1kSsVguJVyZNxftsA9S3RK16m6gM+yarhjXzyhk8sCvqm/zgPM+StSvDCzH176H1gIvawnAZsTduLN9G0/JE+7N/amRO5HFFrO7qpJzYVX0hcUqq5Wvl5YPlrAmUEbtdtto5W+VARPpmzIJDmThx/CMe5mqav/SXrImsT8Tc5VNnDUU3j6fjyEeAxaFTF1lTNR7T91HcytaZ1d8eyZsTkS6r/nzl9udQ3UNp5PHZBZGO/XAH0zavpHbzAxBYjMxpfYIjkmvmlXP8hadINqp56NRF1rjH4y4ax5Rfxa/k7uh4AtdpnacI422LOp5s9rG+3W30VK8M9Xnj3c7WAzU0RJTjpH2Cc7IPfS/NfHCH7z+Ri98lO5ciInJpsEpLS6O+Ys3Ly+PcuXNjVZ+cp/YRGX3BFW/zD2aeYityJXPVNNPgOZry55SCK79XnL+Q8KfOrnRO3n/SrajulJPzJSIiI0sp1iKS8yzrMC/u7CJ/3kbuqhj9FWZFLkX2bym76dmXOtj69GfHU2lZdPYoOE4k3fuPKa6jcVlZ1IryQ9XX649edV5EREbd+MLCwm9FPnDNNdfw5z//eazqk/PUPiJjw+p7i+NXzeQLN/6JN47+fqyrI5KzXDXNrFuzjM/fdjMnd65OuhCYPXJ8NV/+JLS9/n/YcVrBcTKp3n+mL13LlO5HefYXZ7Kyn56rq6ldtpzbF8zk6u4D/OaszouIyGhSinWG1D4iIiIiIiKXJ6VYi4iIiIiIiKAAWURERERERARQgCwiIiIiIiICKECWLMvLyxvrKoiIiIiIiAyJAmQRERERERERFCCLiIiIiIiIAAqQRURERERERAAFyCIiIiIiIiIAXDXWFRAZCzO+coF7Sy0AjIEXHrR427LGuFbDZyou8g9fhr6DFt/Zk/54ZnzlAsuxWPucvisTEREREVGALFcUYwxLHrzIHf0WX3vQDgpNxUW+/7iBBwkFycFAM/S6bhREioiIiIhc5hQgyxVlZr0dHEcGu1bnOF74TxeYX2Px9h741KILrPu8xfPfsEeVjbnIqscNT37lYs4HyVbnOL7WOda1EBERERG5NOX23b5IFhlzkbJpsP/V+NTjt/7NwlVoMEUXuffz4P1ROOXassax7fsW/mmGLxaZ0a62iIiIiIiMEo0gyxXjP9YYPO9YbO+1oucgD8ATrwGFMMkFLixe6wAi42gfDACectjFRf7+a4aBH41je2d4I1Nxke/fY9j//XH8tNdZqrapuMj358MTj8MXHjdMDwTlx/7ZCpXtdJvI/UQ+Fyl2O7Aw3am3UXq5iIiIiFwpFCDLFcNdCN5/szAVF1k+zU6hpv4iy7H4XWCbQreBQYu+uFdb+AcNBYDVO47X3rnA8vmGT3XA7y3Lnts838A7Vig4jk/Vtuc/x6ZqWwWw7nE7sN7ea9mvuwdmdITnRKfbJphaHUwHj47uSVgfCC/SlWybZHUWEREREbkc6Y5XrgjGGNyF4O+Dmf/J4P+5xVvYQbO/PxAg9sOgw4Ws3/o3C/IN5cWBB4oNnvxw+rYxhnIP+H8emaptses1C6bBDBNO1TYmetT5d0ct/BjcxWS0Terjv8gXYlLHE7WR0zqLiIiIiFyONIIsVxx3IdAPYHDlw0DscHE+uIHfRz0Ys22Hxf75Bk85/LQX/mO5wTVo8byPwOCtvb272vD96ujAMj7OtOgLvc4eof7OQ0PZJoViKMBOE08ukzqLiIiIiFx+FCDLFcIO/vyRD1WCB9jfBzPvNHj/bRy/6wP/5w1llRZvdybeFsIjq3fcY5jRZigLjM7+PmZ0Ntlc4AQZ0CPLly44DsuZOouIiIiIjDKlWMsVwsI/aP/rqDcwSjofXvg5zF9rWI4dFNrzi8FzjwmlFBtzkVX3GPw/D6c4A9ABXgxl9eAZtPhZR8TerHH87OfR5YwlyxpH1zvgmW/4lDEYY/jiN8ILlQW3yaU6i4iIiIiMNo0gyxXBsiz6+qHMDb/fM56v7Qk/9/ae6G3ffm48fOUC934X7sUOFI/98zi+EzOqageUF1hfDX0H40ePf79nPE9wgfUR5cDIrAoduSo3WPBlw/e/bKL29dazFmWPG9Z/196q7+A4NnORdYXheo9mnUVEREREco1VWloaNVSUl5fHuXPnxqo+OU/tk1out8+nFl1gXaGlQE9ERERERBJSpCBXjN+1WXinGb65KGJktOgi9y1SOrGIiIiIiCjFWq4gljWObQ9eZNXjF/l+dfjnmPZ/X6tPiYiIiIiIAmS5wljWOLZn8vNIIiIiIiJyxVCKtYiIiIiIiAgKkEVEREREREQABcgiIiIiIiIigAJkEREREREREUABsoiIiIiIiAigAFlEREREREQEUIAsIiIiIiIiAihAFhG5opiKRjbWzxrraoiIyCXKU9/C/TWTx7oaIiPmqrGugMilaPbMa2jgY+rfuph0G1N8Ff9UNT70d8eRP/EPPivltr2//jPfPG6yXt+RkGmdnbSZZMbM8tB9X2Ho74Pb9/PVw4n7GNjBcdMyF+1Pvgkk3+5yYSoaeXh5eejv4y+s4qXOsT/uYL0GD2zi6baTSbfz1LdQ5wnXN3Z7p+WMllyrz5UoV/t8rtE1ODzHXt3L7Ws3cFfv6qz0L1dNM2vmFWFML+1PbmR/knslkdGiAFlkhFi+j/mK72OMGcfXluhSG0tLGqv5dnn0B+5v9vwrS1rPj1GNssM67MVzGIwp5KlnSlNua8ws7l5WxumDj8bdfMTeBEL8jeClyOrcQnNn4Ng3r4x7Pvh4CV28sv4pvJbdBvYXCUQ95sRQX5eIq6aZ2tIuWtcNv6zhyuZxjQZPfQu17GDTs4eBiPM8sJeWx17Gn2PH4Klvoba0K2H7eupbqC10Xu90ff5yp2twdFi+VrbsLKJp2QN4OoZXJ1PRSEM1HPreqsBn09gfn4ju2kVyQDCYvpRccnU+6sWzpR8AM/kGfrrhVnbxy0s+SHZq+opAgLD7BCS4mTHe7eGAoriOxrUbuJ9HL/kg2YnTAy5uXzwF7ygdazCISaWg0A3dbSlvPJ2UM5rGoj52Xy3ijRSBQ6jv52BwDHCsq4vaUheuSeD1hR83ZhbTSqFnZ27W2277cnouwRE/XYNZ0LGL9gUbqF1xG97AZ8dQuItcMHAU7ykUG0vO0BxkEbnynPBzsA8+UzRhrGsyKkI32vsc3mifepueAZhYWDzylcsBg/vaGKxegsfkxvQGYybjKky/3ZXOVDTy8NcXwcFdSYOY4CjgKzkaHAPQcYQe3JSUT4l+vLKKErp4p2NsqpWO5WvljW43c76+jbsqcuPayRZdg+lZ1kle29cFpVU5894pki0aQZYryuyZ1/Clsx/xk2uvZo07kE5pLtCy6yPaAzdPiebKJps/O2Xq1TTfPC5hOU44nadsjMXd865mcV74uUzmK5trx/PY3PH0dvyfqPJN8VU8V2nR9vqfeemsFXdMAObcxzx84GNOBNNPndY5ZjsA0+eoulE+W/c5frwoIpDt/S1/u/F9fhWoz5LGahp6f0lL0a3hNGrTz9+vPsauZOfits+wssjiYJufyK+sY+f0xo86/xUH905g5aIJdj3a/oof31cYt79UdbbLmcJvdxyImi9sZnnoXjmBHY8e5nsnrcT1iTl2xwI32q904Owb+solzCm0OL4veq5y7PzG+FHnInoOupgzrwjTv4eWfUWsWV6OMUejUgOD881C5fTvCY3u2eUsZHBn9Ny28Pzp8GhVXH0iysnMm7zTvZJpleBNMvqSqs6xz9U9sY26wL8jU9XTzQ+NfZ7C+2jafJ/9XEQbOp1nasxk5j+0gTmF6edQjuRxOWlDsNOJb+9/lDcKN4RS/mP7TmxZqebYmuI6llZD+5OJR5fT92dn/XC4LOsw73SvpNYzA9fuE6H2mF5WBt07ouqejT4fm4Ke7LFU7RPkfbaBgZpm1izfxv1FQ5uW4fS86xrMrWsQsL/cWZb6vVPkUqQAWa44RTdfQ0PfR3xl18VQ4Nlw63jaM1w8ynJfzSN8xFd2fTTkcpzMUw4+V+H/mK8cHNoCV9bZC/zEP56GkquYcsoOdo2xuLtkHPg/DgXHs2deQ4PrIlt/8ifag9vMu5pH5hEKkp3UecrUq3nkJhMqJ1R2hvVe0ljNt8sG+PtVh9llWRgzgXWbbuXHm4gKFD+z6HN8+6gXz+r+0HzchqV57IpMny734H0m8G/Tz9+v2h8VQH+27nP8eOH50OPBfXkbCQXJUMDK8hP87aYBHt8whR/XnOBvV3m5/5lS7rwNdh12UOeTH9DSNYVv19zIZ98MBM1mAutqCqCrOxwcT76Bn1b141nttf8OHNePHzgXUR9ngilsAym2sTzRN4Kt61bF3Zw2VPtDjwdv/DbWE3HTXMZsz162fu8oS9cupGHBXrauO8LczeEbqOB8y9Z1G6PKaXgI+0bN18ob3QupXbAUV0cgaDaTmb/ADhZCwXFxHY1lR2hevyVQZ3vOZcMKX9xNvBPHXt3L7ffa+4z9HidtnduaaG5LP08w3fzQ8PN2+bP7owOWYGq8k3mmoXm33Ttofjxxe6Rrw2wdl6M2DJSbP28jtd7tNK8/HCovNv3dLqsvYs5iIsXMv9cOcBNtk64/Wwn6IYSD1mynFB/r6qJ2WTmeSS/j90WmV4e/pMp2n0/F2fVu87c18chRe1rGxsIdQ6pLuvOuazC3rsEwH6cHoKRoCnQObYpKQaEb+n25m+EhVySlWMsVx/R9FBoJtizDiz0XwTWO2RmmCGWrnHQ+/dnxVJy/wMO/vDCscg6duggTxvG56wIPXDeOygmGtuN2ueba8XzJBZ0d4VFwyzK8+PYF+iJfl4Yx4/jPN1lR5QyFmXwDDWVwcEd4ZNayzvPEthP8xl3AoshsxIiRXsvq59WuBOnTR714Vh+gdHt8cGnMBBaV/xW/2fub6H21DUBZIUtC5/Tf2bHtfd4J/HWwLfzvTOr8kyMDEHkMU1xUu/+dHbv8obKskx+wJCIQDh7XSDHe7TSvX80jLxyNf85MxuNxczoilTVxel0f7c+HA8yefdHBpimu4/ZS6Nn5VHQ5z+/ldEE5nkn2dse6uiDibybNoKSgj/ZX3wyVZflaeTrixtUehRtGA5x6mx4i9plhnXONe3GNPe/2h28m3SbrbZhEJm0YOUoZrE8w1d+YydzxYHBBq9QjuJZnEXMKLfKLpsQ957Q/x/ZD+zii+2HWxKZZJ0ivHrXz5fh6j67blvU76CldycYH63Bl+nma6rzrGhy2bF2D2eSpb6Fp8zNM61qd9S94RIZLI8giAFh86jrgbK6UEzbpWgvOmVCK85CdukBbydVUThrHS8cNn540Dvf5i/zrGSKyaA29sXU/Y+jFouhanB3XdRZFQO/wahvw7/zGF/PQiXP8lil8phgYwhfW1mEvf19VHTPCPIHPuO2RaO+imBeYzEZrHdX5zd+wo+ZWqmfk8b2T55k2o4DP9A3w4AlC5yI48ryyKOa8x8evWWV1buGVspaYEYNiJhbYIwtN86K3NybTCvVx2h/z0CkfgyxkogvwEVr8paR8Cvt9J3GXlzMxZhGXRKmLAMabYXUC7ADAT9Odt/Fa3BcRDuqcY5yMymS7DVMbfhta1kn2P96Av76F2s2bcKVIczbe7TR3VfHw8o3c1RubbuqwPyfqh91tI7IgVWyadUGi9OpRO1+ZX+/BlPSJ3YER16yPBuoaHL7cakPvsw0cM5OZ/9AzbCwbWuaByEhRgCwCgOH3UYHiWJcTI89iihlekBwc5a6pHM/sX11k5k0WnR0fx5SZIBC+zqIIQ4fToP+MyVJwDPBX8YHwlDw+zb9zcBgf5j85MsC3V36GJS9Hz1NO+jvCGbV7+joHR6dXrvwMS17u586Ff8XBHeGU8VBwzAn+dlX0fOtvZ3aoAPT1+qG6iAIg9v4oETvdcwme3dHpfEnne2bUPu74m7FJxeTTR48/WJw9WjV72RI8u48wrdodtZJvKP2RvWxdFz1/rjaDmsTpOELPsiqmxwXI6euckwqLcRmT8AZ9xNowqey1YWje69e3MTHFHGSrcwtbi5ppWLaJO/zxwXS6/hzqhwtm4NpdzNxqRvQ3xMNp1j4mxqZXj/r5wb6F2AAAIABJREFUcn69R/727qYRWwle1+DwjUQb2l+mDPZGfLubAcs6idfbx2xP8nYSGQtKsZYrmjHj+FrlOPreuxBKBz511kSlSs+eeU1oQa9MysmWQ8cv0DdhPP/1s1m4XE9dpJNxzLx1HBXnL/C/ToWfsucpQ0Xl1aFjN8bi7hnjcfsvhOYpp2NZF3nLDxUlVzHFGIyxuKs6fRvGlXPyA1q6oHrl9FCKszETWLdqCp/p+k1oru6QvPkbdvQV0LA0L1Dnfp7e++9R+xqKjOr8Zj8HKeDOBwqp7jvB04my8PznwkHzLE/cbzk71nGEHsqYVul0+120D5Rx+2I73dOyDvP6wT5Klj0wrNVK7XmdRJVjzGTm37swfmQuWOcVVZQM7OX1RCv5RozOmIrGuN9yzrh+1mFeP+ji9gWuodXZ38vpTNp5BB17dS+nCxaydHF8inEUJ204zOPKqA0d8rc18cgLR5m6fBv310xOud0r3W5mrw3vO6P+3LGLdhYyd0UVJSnqOnvmNTy35C/4ztRh9MFgmvW9NclXr85Cnx/o74tKlY79HfRM2sdT38LDy8s5/sKqEftJOF2D5OQ1COT8SusiQ6URZLniWO6reW5J+O+OI3/imxEfDr/91QU6b7qKNV/6S9ZgzzVu+vV4Hrk2/JpTZw3WzanLiQusq/6S56qi5y472cY6e4GHXofH5l7NczeHt81kFevQsVsX+V/vGZpvHk/vr/8cNyLd/tafYeY1oWOH6Lo4rfOhX37MzCVX0fylq0J1beKqqDZ0YteWg9BYzbe33REeOY2YbzxUoRHc+z7HD3z2qPGvWv+Vv+Vz/DhyX0PYn9M620H5Z/jxokJ+s+dfo1amDs5brt5QivcZj/1g72/5+z3n+XZ4AVJ7RDkyaL7vDrz3xe8vlL4Zs+BQ8vaxR87mRKSn+tuaaKGZNRGrqELilW1T8T7bAPUtUauxJirDvkmvYc28cgYP7Iqqc3DuXMnaleGFxfr30HrARW3Eot+xN/4s30bT8tR17tvdxmD1SiZGjLU7rrOvlZcPlrMmsB+IXml2KPVJxEk5lq+VLU9C49oNNM2LX0HXaRtm67ictmEmrM4tPOKvo3FtfLZDpGM/3MG0zSup3fwABBY5ctqfgyNca+aVc/yFp0g2Snbo1EXWuMfjLhrHlF/FZuY4PJ7AdVrnKcJ4o39/N5t9vm93Gz3VK0Pnwni3s/VADQ0R5Thpn+Cc7EPfG/nfQdY1mHvXYOTiial+K1rkUmSVlpZG3WHn5eVx7ty5sapPzlP7pJbr7ZPs55pELnfB1UjzDz46YiM9IpcjV00zDZ6jKX9OKfRrA+cvRP0snsjlKt3K2k45ub5ERptSrEVErgCWdZgXd3aRP28jd1Vkd6V1kcuV/VvKbnr2pb55//Rnx1NpWXT2KDiWy58prqNxWVnUqthD1dfrj/7VApEcoBRrEZErRGjRorLboFMrhook46ppZs08ez5D0sWqiBg5xrD7539yvFaDyKVs+p0L4eCjSa+LTFidW2gpshfdm216aU+xOr3IaFGKdYbUPqmpfURERERE5FKlFGsRERERERERFCCLiIiIiIiIAAqQRURERERERAAFyHKZy8vLG+sqiIiIiIjIJUIBsoiIiIiIiAgKkEVEREREREQABcgiIiIiIiIigAJkERERyUGmopGN9bPiHvfUt3B/zeQxqJGIiFwJFCCLyBXJU9+S8OZbhs9UNNK0+Zm0QYynvoWmzc+E/ovd3mk5oyXX6nM5MxWNNC1z0f7qm3HPHXt1L1Rv4K4KMwY1ExGRy50CZJExFBukGTOLu77bwsYH63AZ3fyNJp2L9ExFIxu/24gnC+3hqmmmtrSL1nWraF6/mub1q3m67WQWapm5bB7XpSbdsY/FdWHMLO5eVsbpg9vY77Pinrd8rWzZ2UXJsgeuyHMmIiIj66qxroCIhE1fsZKSgb20PPYyfiv+xlBGj87F0FmdW2juTL1NQaEbutvwpmhbJ+WMplyrz1gYjesitI/dJyDZPjp20b5gA7UrbsP77OERqYeIiFyZNIIskiOCI2qvKCAbczoXI8uYybgKx7oWkqnRuC6MmcW0UujZl3oflnWS1/Z1QWmVRpFFRCSrNIIskgNMcR1Lq6H9yacSjqiZikYeXl4e/tu7nU2BURNTXEfj2oUM7lzNS51W1Gualrlof3JjwjTFhPWoaKRpQS8tj/mYu3klUwN1Of7CqriyU9eniJ6DLubMK8L076FlXxFrlpdjzFFeWR8+RldNM2vmFYXL6d8TGpnK5LhS1SdZne3tErRBjpyLbPHUt3B7/6O8UbiBOk+gvWLOA6Q+F7HP1T2xjbrAvwcPbAqlRse2Tbp+Q+F9NG2+L65O6coJlWcmM/+hDcwpDD8XWZ9E+xyJ43LShuD8XDgRu69EdUvVV50ee+i1o3VdVFZRQhevdADpmqTjCD3LVjKtErwJRvanTL2a5pvH0fvrP/PN4wqiRUTEGQXIImOumPn32jePiYInV00zDdV+WtetsoOHQFCwsR42PXsYy9fKG90LqV2wFFdH+GZ8elkZdO/IOCCzChfRsLmX9idX0+yzg4iGZQ/g6bBvjNPVx1bGbM9etn7vKEvXLqRhwV62rjvC3M3hm1lPfUtgDurGqHIaHsIOKhIclzGTmb8g+ric1Cd2GwjsP0fPhTGzuDviC4qo52KCLify522k1rud5vWHQ2XfvngK3kAQlPZctDXR3BYMaEga0AVTkIP7SP68Xf7s/h3RX2QEykxXTmQblXTvoPnxxCm2priOxrIjNK/fEvWahhU+Nj17OGvH5agNA+WmOxdOhPvhxqgvFCKD43R91emx20bvunAXuWDgKAOOWsLH6QEoKZoCnWMzf11ERC4/SrEWGWOWZxFzCi3yi6bEPWfMZDweN6cP7grdvCZKLTzW1QUF5XgmBV5XXMftpX0JV4BNx5jeqBGdvqNHOY0L1yTn9YE+2p9/mb7AXz37wv8O1w96dj4VXc7zezkdcRyxx8WkGZQUhI/LSX2MmcXcanfUvpLJlXNhWYd56RsNocWrIv/b9HhrxumtkaN5lnWYd7phYmFxRP3Sn4tc415cY89T/WHydrV8rTwdEYAHjz3bMmnDVOfCKXv+9pFwf+7YxaF+E+q3zq9TZ3LlusjUieMf8ZVd/0ejxyIikhGNIIuMMePdTnNXFQ8v38hdvbGpm8VMLLBHnZrmxbzOHA3/EViwpqR8Cvt9J3GXlzOxu22I6bx+/KcIpTdavlae/kZr4AGH9XGkj9P+mIdO+RhkIRNdgC/JcQ0cxRuqn4P6TComHxh0UKPcOxejxcG5yDEFhW7o96X8siBRCjYkTq0fvtFrw4H+PqiuwmPetIPSyiXMKbQ43nuC7F+nV/J1ISIiVyIFyCI5wOrcwtaiZhqWbeIOf/w81WRzHokZsZm9YAau3cXMrYb2J98k/SS+oUlXH2fc8YHDpGLy6aPHHywucFzLluDZfYRp1W56dsanF6eszymfo+A49JIcOBfZTrFOL/25yEmFxbiMSdgWoTRu9rJ1XfQ84PjU+mwY3Ta0rPKoecOJ+mV2rtPAS0bpuujr9UN1EQVA+mazg/PB0BcDIiIiw6cUa5Ec4W9r4pVuN7PXhn/b07IO8/rBPme/99mxi3YWMndFFSUjNDKTUX1SleNr5Y1uosoxZjLz710YP6rUcYQeypi2ooqSgb283pFZfYJprCULluIyBmMmc8eDLaFFkhIZ63OR7RTrlPvK5Fz4ezlNGdMqs7b7ITv26l5OFyxk6eL4tN8oEaPMpqIx8Xkf5nFl1IYOeepbaNr8DPfXTI56PJjSfPyFVVH9IjI4zaivZnDso3JdBK93J+cisKDXOx2Jn54y9WqeW/IXPDtTtzoiIuKcRpBFcsixH+5g2uaV1G5+AAKL5vjbmmihmTURo0UQv1KzZZ3E6+1jzbxyjr/wFCM1ouK0Pul4n22A+paoUbBEZdg34DWsmVfO4IFdccGhk/oE23XNE4sAe5XerayiIcVPDV0K5yJbHJ8LXysvHyxnzfL/n717DW7qSvOF/9+5dVe1CTnti2SZNu90MsivLV7LNhcHpqFtME3sw1RZPgXdJlNtHLBPYdI1vCGd+YBFIvgwmXGa6tOQGkRCyJzAm1CFqWoPDoO5JOmJcQKW7YPMsdKdOROCZcmXngBOVXfSnfV+2LptXbdk2ZKt/6+Kqlja2nrW2nsr+9F61tJrMG+XHwtc8djQFPTFg2e7eM8NNfuRnJ04ehho27sf5urQVay9c4D1e5v9K2WPv4vOKxrUBx33ZLRLbR/GS56f7F+AyjsSeyAgVq/A91N9rsZoe7DZvi7kL7SaQxb0Cha4YF+ktQX+Y/QbjD0hQat5AGvEn9HLn2wjIiIVpJKSEsVXvllZWZienk5VPGmP/RNduvVPusUz2zS1FrQYBmehBJfixWNBs8G3knbwTyZF+CmldKPmuvC2MefqoYiJuprVt4WQsK36YdR+5xtYu75mgkxERKqw7ohogZB/p1QLRw8TslTjsaBZ41l0LpjWaER2uIXC0oja60KS+vDO6SHkVLdja1lo2bbQmdDWWBp7ZfqCB1GXJcH1O44eExGReiyxJprnNLUWtFbnA4iyUA7NCR4Lmm2SsxNHT+eHlFgLMRjjt4xTJ5HrwrcoWOmTwICyTH35ps3A1UMR9+MdOa7LkmDr/wN+yZWyiYgoDiyxjhP7J7p06590i4eIiIiIiNIXS6yJiIiIiIiIwASZiIiIiIiICAATZCIiIiIiIiIATJCJiIiIiIiIADBBJiIiIiIiIgLABJmIiIiIiIgIABNkIiIiIiIiIgBMkIkylihrQ3tTZarDIEorka4LQ5MVu2sLo75WzTZERESU3pggE6UBoXsIb275Fv6+SIq63ZqVj+DNLd/y/Yu1fcT3K2uDuVGD3ovXEnr9QmBosqb1FwTpHt9MibI2mDuOp1VCGe26uHnxAlC1H1vLRMTXq9kmHppaC8wdx9H+jxZs0CVnn0RERBTdQ6kOgIjUWVr0MFo03+DYr79Gr5RYYgwAQlRiW2Mppq4ewmVn4vtZaAxNVtTjBA6e7APg6aeOZugnLsD68lm4Z9Dn6c7QZIXJoGzf5JWDeLX7dooimnuxrgvJ2Ymjp/NhbtwDg+0I7GHOBzXbqI6nrA0tVcCHv9jpiWfhnn9ERETphAkyURqQnH/CT51/irpNwSIJcP95RskxACzf4Un6zn8GLOCkb6Z8/bTAk2MvYX/d/+WAzoS2vfuxG4dmLUmWBo7CMjAru06IquvC1oXemv2o3/Ek7J6+SmgbFbT5GmBiEPZRMDcmIiKaQyyxJpoHhJCwJCsZ+6lEcQng6MmMpC9RmloL6kuGcC5DkuMQozfgmACy83SpjmROqL0uJOk2LvUMASUVMIjwJc9qtiEiIqL0xRFkohQSuofwzxUP+v629f8Bvwwo7wx+HlkP480tnufEn2HtirPcurwCegzhnA1hR6VEWRvMNWOwvuzE+o5mFHn2PXJqJ84MSIrtDmw3+v8OGX3Mh+OqBmur8yHG34W1Jx+t240QYhDn9vlLTzW1FrRW5/v3M/6ub8RW3s9mTJ7eFfLe5kYNeg+3+0pho8UTKWZ5uzB9oDOhoQroPRy+RDZ229XFrFZgHwX2T8R4wmwT0s9BxyFE+RaszZMw0nMNgSeKmn4Ofi8v7zkUvI/gcytizEHtMjRZsW78ED7I2+8rDw/XLlVtj3FdKNj64WhsRnE5YI80Aq5mGyIiIkpLTJCJUshbWi3EA/jbLaGXo/95CduqH0bt9J/QdP2bgA3iS7a8ZZsT0WLKewotHWPoPbwLFqcETa0FLQFzKjW1FrRUudH53E7YJQlCFGLjC/vR3oSAZKkUawwXcOwXg2jYuxktNRdw7Ll+rO/wJw2GJivqS4bQ+Vy7Yj8tL0BOhJyd+GB4M+prGqCxeZJmUYiNNaXA8AlfoqkmnuBtAO+c42A6bHxaTnDDJbKx3ksKEzMALC9VxqyWZHgGLfbXYdnX55sT3VB3w1f2LHQmtJX2w7LvqPy3Z5uWHU5/0l7W5om5XZkUBp07kuEZmDue8exnUNFX8fez55h6kuHAJNhbWu2NNZyY54YnrpzqdtQH9c+6uqWwe/tHZdvVXBd+TkxNAPr8pcBApPJzNdtEl5unBcadmVnBQERElEIssSYiBSHGFCOdrsFBTEEDTQEgRCEMBi2mrnb5Eo7wJaUu9L51Fi7PX44e/38DcmK3rgRwnD6i3M9bFzCVa4ShQN7u5tAQEPA3ClZAn+vyrTKsJh4hKrG+Sqt4r0gkw1NYmychJ39pmH5R1/bgmOW2uhJaMTxwhFaS+nBrWFn2LDk78WrACK53m5B2SUYUl8d+L8u+XXjp1GDocyrbnpunBYb7/f1s68KH4yJsf0aMQ+W54Y05Wv+obXs6MTRZYe44juKhXSGj80RERDT7OIJMREHccAcsDCQ5O/Hq852eB3TIzpVH7szVylcJEZpYRefClDvooVEnJrEZ2RoATvgWPNIbl+Ky8za0RiOyFQsXqYinQIccAJMqIhL212EZqsCB7e3YOhZc+quy7eFiHu6elRXDvSOra/OU+w4sHZcGjuIltwlte4/DvF3eLtoK1dLAUZwrtSpGYtW2fWLcBVRVwCCuycmtt1R77DPEt9KUinNDhXjbng7sJ1twUxRi4wvH0V56gkkyERHRHGOCTJRBXGNuoCofuQCC8494RJo3Gl/JtzY02SnQIQcuONze3cmjlGsat8Bwvh/FVVo4TocupBQ1nlGnquTY95KBoziWb0FL40FscIfOGY7Vdl/MNSugOa/D+iqg97ByLm8yeJPjNbiAY88p5+YGl477v+RQt0L1zaEh1DdugeG8ctRdzXGXJCNMr7wGU6zXRBX73FBLTdvjuy7kLwsmoyb9araJErN0G3a7C2sMOmiEYJk1ERHRHGKJNVEmsfXDgdKES04lqQ/vX3VB37hnRiv0ynN1odiPEIXY+PTm0NFWb8w7KqCfuID3bfHF4y291dc0QCMEhCjEhp+H/u5vIHe3GeeGtViz17/fuNpu60IvNmP9jgroo4wee8tpd9cWRt9fNAHzVEVZW9R2AfCtUB2VrQu9E6VYVyeXRqtpu7cMe+TUTlj27fL9izc5juvciFektsdzXXgW9Lplm+E2RERElJY4gkyUQmtWPoJWbcANf8W38WYFIFxfKxfjShI5WWwOWUQqHu5uM6ywoDVglBAIv6JxNPaTLUCTVTHaGG4fcnJWi9ZqIyavdIXErCaem2+cQHFHM1pfeQqAXGZ7DDvRkhc5Pu9r6jv2AJ5Vj9W23TsC2FptxMipI4g1iijPm42v7Nc7L1e/t9m/uNb4u+i8okF9QLvCrSodq8zYOwq+NqDUPFbbva85sP01mLcr9xfYP4amoC8nPNsHbqP23IhFbdvVXheBi8RFms+uZhsiIiJKX1JJSYliOCArKwvT09OpiiftsX+iS7f+Sbd40oF3td+cq5FLbGnmNLUWtBgGQ35yaaHyrUod/BNXEX76Kt2ouS7kn+tC1J/IUrONGpl2/hAREaULllgTZRhJ6sM7p4eQU92OrWWJl0lTZPJvKWvh6Mmg5MazGFowrdGI7HCLbqWZWNeF0JnQ1lgadTV0Nduo5RpzK1dwJyIiojnBEeQ4sX+iS7f+Sbd40omm1oKWvG6ukptEgSW9iS1ONb95f/dY8ZgYnPFo6lyKdF0YmqxYNx696kLNNvHG0lqdH/LTa0RERDR7mCDHif0TXbr1T7rFQ0RERERE6Ysl1kRERERERERggkxEREREREQEgAkyEREREREREQAmyERzKisrK9UhEBERERFRBEyQiYiIiIiIiMAEmYiIiIiIiAgAE2QiIiIiIiIiAEyQiYiIiIgWDFHWhvamypDHDU1W7K4tTEFERPMLE2QimtdEWRvMHcd9/7aWiVSHpJo39kRvWAxN1rA3QQvFTPuH0ttCOH/5+TO/j99MpeNnlChrg7lRg96L10Keu3nxAlC1f16dp0Sp8FCqAyCi9GFosqIeJ3DwZB8AQIhKbOtohn7iAqwvn4VbklIcYShp4CgsA/5YU8nQZEV9Xvi+Cu5bNeQbHeDcviOwJ9D3vuOHIcU+EtmvockKk0G57eSVg3i1+3bccRGFw8+fmUm3z59kixUPP6M852FjKaauHsJlZ2gfSc5OHD2dD3PjHhhs6XFcidIRE2Qiimj5jvS+OU03E+MuIC/y81PjTsXf3pvr2TY1ocG6uqWwz/BGUdhf9ycvOhPa9u7HbhyatRvQueofSk/8/IlPun7+zKVM/4zyXTPnPwMiXTO2LvTW7Ef9jidhj+MLE6JMwhJrIgpLU2tBfckQzvHmdN6b7OnGZNUWGEQSy+pGb8AxAWTn6ZK3TyIPfv7QjGXYZ5QQlSguARw90a8ZSbqNSz1DQElFcv+fQLSAcASZiEIInQkNVUDv4fAlWKKsDQe2G/1/h3xrvxmTp3fhzICkeI25UYPew+1hS78ixiIKsfGF/Vib539NImVzmloLWqvz/fsdf1cxMmVosmLd+CF8kLffV6YnxGBIOV+0trvG3EBVPnIBuHQmtO01wnG4HZdGl0KTB2A8/D5GTu1U9FVwrKZXXoMpStsDtw9ul+wabg03o7gcsEcY7YjVPyHKt2BtnoSRnmsA1PVPpPfy8vZDrP5RG7PaYxqynzDbzBVR1gZzzRisLzuxvqMZRZ4Ygvsg9jWYD8dVDdZW58v90pOP1u3GkLZF68N4rmU1xz14G3m7MH3Azx/Pey+Mzx81bQ8u/w58LN54fDLtM6q8Qp5OY1M0NzxbPxyNkf+fsLToYVj+8gGM/fYr/N0Ik2jKPEyQiSiIDhuflm8ww91IamotaKlyo/O5nbBLku8Gsr0JOHiyD5KzEx8Mb0Z9TQM0Nv+NwPLSUmD4RJw3p545iMMnYPmHxEvBDE1W1JcMofO5dkXMLS9AcbOSU92OevvrsOzr8713YGlyrLYrOyofOVI+YFyKS6PyQ5NjnwGQYs5bdHebYelWNwdQMjyDlqCYG+puhNw03rx4Aeuelo+JK8H+kQzPwNzxDAD5Bs3bD74mq+gf/zae9/LcaAbeYKqZ15msYyrK2hTx+Ds2/vO0KFwyF+uLhjCkvKfQ0jGG3sO7YHFKcp8FzBlUdx6WYo3hAo79YhANezejpeYCjj3Xj/Ud/pvimH0Y5loWohAba5TXcnzH3X/OyElQMH7+LKTPH7VtjybeeDL1M0qbrwEmBjERs0cBwImpCUCfvxQYyJw52kRqscSaiBQkw1NYmychJ39pyHNCFMJg0GLqapfvf9ThyrVuDg0BuUYYCjyv05mwrsQVdlXNaLR1tfJ8qjfie50iZp0J60oAx+kjypjfuoCpgBgB5UiCJPXh1rC/PE9V291jmPLsa3mpBh9eGUS2YQW0CUevon1RYlYYvQEHlO0F4u8fy75deOnUYGgcKs+N3DwtMNzvv9GzdeHDcRH2fIvY5iQdUy9JMqK4XPXbh5CkPpx5vgWWfbtC/h38h864S4SFGFOMdLoGBzEFDTQF6vsZcKH3Lf+XIY4e5Rcjavsw+FpGwQroc/3Xspp4hKjE+iqt4r0i9iU/fzzbzP/Pn3jansx4+Bk1c5+NfI2fdv2Ro8eUsTiCTEQKwv46LEMVOLC9HVvHgsvGdMjOlb/xNlcHvU4E3JB4FgHRG5fisvM2tEYjsoe74xq9ATw3KuPOJMxBdGHKHfTQqBOT2IxsDQBnuNcEU9l2aKApeBLZJW7ceqMfjqoK5EKH7NwwMcwh+UbQDfOmJ3FpKPjZ+PpHGjiKc6XWoIW/1PXPxLgLqKqAQVyTbxy9ZZCe0S31knFM5ba85Dahbe9xmLfL75/6lW/dcI/C1x2SsxOvPt/peUDteaiGij4Mdy1PDMLui09FPAU65ACYVBERP38ima+fP8m5TuPFzygimgkmyEQUQho4imP5FrQ0HsQGd+icvUjzrRD0rfyamhXQnNdhfRXQe1g5D0y1PB00QszwJlUbekNSoEMOXHDEedMYq+0AAGMF9MP9OCP1AcPNKC7vTyTo5LP1w9FYgeUhCXL8/XNzaAj1jVtgOK8cFVTTP5JkVMwjjPiaqJJ3TP0JaGIr3ya7xFoNVedhTLH70HctN26B4Xw/iqu0cJwObU/UeEadqpJj30v4+RPR/Pv8SV7b45Vpn1GBc9Bj717+smAy7qSfKDOwxJqIwnJ3m3FuWIs1e/f4Ss8kqQ/vX3VB37gn9uqXti70YjPW76iAPoHRG0CeNzuVuxkNdepL24LJcxKhiFmIQmx8enNco0qq2j7qxCS0WFtthGNILsu8OTQEfU0tchIJ3j2GKZQmrbROboMG62o0/scS7R9bF3onSrHOc2zU9I+3xHHk1E5FGXK8N57JOqZheVa+jSueJJdYx3ov1ddgtP3E04e2fjhQiuIdFdBPXMD7tvji8ZaN6msaoBECQhRiw89Df7M20Fx9/hiarDB3HMfu2sKQ5/j5M7PPH7Vtnxh3KUqcw/2ecULxZNpnlPc6VdM/ngW9btnCP7206GG8ueVbOLmSaQJlJo4gE1FEN984geKOZtR37AE8C6O4u82wwoLWgG/XgdCVQCXpNux2F1qrjRg5dQSJfEstOTtx9DDQtnc/zNXhV5ENuZna/hrM25Xx2E+2AE1WxYhAuJVLY1HbdiHG/KV1ntVC9Rjylc2qidnb/rNXjWj1PB/c9kS4zndjsqoZ2QFjDIn0j3eUbm1AKWys/vG+5kBAe4K3Aeb2mIZbrTbdyxfVnoexqO1DObGoRWu1EZNXukISfjXxeD9LWl95CoDcx8ewEy1Rfrd3Lj9/5DmfymPOz5+Zf/6oabvrfDccVc2+bYT9dRy7UhtybsQbT6Z9RslfRDWHLFAXLHChvUjMdEyVAAAgAElEQVRrAvzH6DcYe0KCVvMA1og/o5c/tUYZRiopKVF8jZaVlYXp6elUxZP22D/RpVv/MJ7U0tRa0GIYnJUSU5p/fCu+Bv8ET4Sf5iGaCX7+ULzm+2eUN/6cq5GniKhZDVwICduqH0btd76BtetrJsiUcVg7QUSzQv4tUy0cPbw5JQ/PYk3BtEYjssMtaEOUIH7+UELm+WeUJPXhndNDyKlux9ay0DJyoTOhrbE09oryBQ+iLkuC63ccPabMxBHkOLF/oku3/mE8cy+wHCyxhU1oIfP+pqjiMTEYdTSDSC1+/tBMLYTPKE2tBS153SHl3IYmK9aNRxld9owc12VJsPX/Ab+cyVxponmMCXKc2D/RpVv/MB4iIiIiIlKLJdZEREREREREYIJMREREREREBIAJMhEREREREREAJshEREREREREAJggExEREREREQFggkxEREREREQEgAkyEREREREREQAmyERERGlLlLWhvaky1WEQ0QJgaLJid21hqsMgSnsP5uXlvRj4wCOPPIKvvvoqVfGkPfZPdOnWP4wn/Yn8bfjZ+v+GZQ+M4H9NfZnqcOaU2rYvqzCjsfyHWL1M/he8fSb34UImytpgbtSg99Q/4//cl+J+7YF9LVi/6a+xftNfQzPxawy74ttHqnhjL3loCNd/ezfu1xuarGg1TuCDwTuzEF3qzbR/KHVSfW66xx/Gqp804y8m58/nAVEqPJTqAIiI5kKOvg0/eSJH8dinthfRPZbeNwk5+jZs0jjwr//yNj6RZifWZRVmbEInjvTbAQBCGFBXZ8L3v/wQb793CZOz9L4UmRCV2NZYiqmrh3DZGX//SwNHYRnw7KejeRYiVM/QZEV93gVYXz4Ld9C5ZGiyoh4ncPBkn+r9yV8cAOf2HYE9gXPT2yd6DCn2kch+DU1WmAzKbSevHMSr3bfjjosyT/D57zs3J8JfLzMlOTtx9HQ+zI17YLAldv0QZQImyESUUtLYO/jV+dl9j2UVZk+SeSQoyUztzYGatn83Kxtwvx81OU52H+pXMDlOteU7PDfJ5z8D5vkxmBh3AXmRn58adyr+9ib3s21qQoN1dUthn2EyK+yv+xMcnQlte/djNw7NWpI8V/1Dc8933c9Ccuxj60JvzX7U73gS9ji+mCLKJJyDTEQLmhAGPKEBvvj0vVkbgZ0tQmiQkzW37+kdsb7I5DhlhKhEcQng6JnFm2TCZE83Jqu2wCBE8nY6egOOCSA7T5e8fVJG0NRaUF8yhHOzmRwDkKTbuNQzBJRUJPfcJ1pAOIJMRD4ifxueXTaJt99zY1WdCY97/icdXIos8rfhZ+VF/r9dZ33luV7hSpoD9xW8j0jlzsH7EdP/phjZXFZhxqrpY/g4qxU/0npKJcUILp73liRP4Isvge8//kMsG4lcphx7P+rbLoQGa3/Yioos/+v+83f/hLcc7rD7iNW/yGrAs3UNITGp7cNY8fi2W7QBmx8HbL8J30/R2i4WbcDf/GAtfj/wUkhbni3Lge03R9DrmUcbckzD9HMsoqwN5poxWF92Yn1HM4o8rx05tRNnBiTFdge2G/1/h4z25cNxVYO11fkQ4+/C2pOP1u1GCDGoKLXV1FrQWp3v38/4u75RHnk/mzF5elfIe5sbNeg93O4rk44Wj095hVz+a0PEIgchCrHxhf1Ym+ffIJHS3mjtAuQS0HXjh/BB3n5fKXFw38Rql2vMDVTlIxeAS2dC214jHIfbcWl0KTR5AMbD7yP4WAbHanrlNZiitD1w++B2ya7h1nAzissBe4QR2Vj9E6J8C9bmSRjpuYbAg6fmuAe/l5e3H2L1j9qY1R7TkP2E2SYZFvK1HLyNvF2YPtCZ0FAF9B4O37+x264uZh9bPxyNkc/9pUUPw/KXD2Dst1/h70aYRFPmYYJMRApS1l/hx3WTsP3mJfzqvoQcfRt+XPZjLHPKCUyOvg0/fnwS//ovL8pJmif52lMBX7Lk3+aIIpELTOC8ZcHe+a7hBJdGe9/rxz+EIkn+L0/8d2xyncWvztt9+1tVpMUnDjckyY0P3+vEY3Um/Oi/vohNYlKRrAVS7kd+r00rluOTkHZFbrtv/q67E796P8ydkIq2+5+X918+3alMwiX1fagmHpkGa8vlBDdc38Rqu3T/Mj52r8WmZRuR4/QfG71OD7g7ffsU+dsU50Zwm+Ih5T2Flo4x9B7eBYtTgqbWgpaAuXWaWgtaqtzofG4n7JLkSyrbmxBwI1uKNYYLOPaLQTTs3YyWmgs49lw/1nf4bx4NTVbUlwyh87l2xX5aXoB8Y+3sxAfDm1Ff0wCNzXOjLQqxsaYUGD7huzlVFw+gzdcAE4OYiNBu3zzF4ROw/EPiJZIx2+U5JjnV7ai3vw7Lvj7feweWJqttl7xxPnKkfMC4FJdG5Ycmxz4DIMWcN+3uNsPSrW6usGR4Bi1BMTfU3QhJom9evIB1T8vHzZVg/0iGZ2DueAaAnER6+8HXZBX949/G816ehCgwSVQzrzxZx1SUtSni8Xfs7IxsLsRrOXgb3/EJab0OG5+WE9xw6w3Eei8pTMwAsLxUGbOSE1MTgD5/KTDA+fJEwVhiTUQKIiiBnHCO4AvkIOdROWFbps1WlCtLkhsffuIANCVY5inXkufNDvsTIOd76J8W+O6jWvVxLNqAVRrg3wfeVr6X7UN88Z0iLHs0YNuAkUxJsuN3buCxrFzf85JkR3e3Bf/jX/4Jti+zUbHuReypbcOaRcpvxpX7UbZLbdtzi9bL83dv3FTd1tmkNh5J+1eoyJLCHiO1bXc4HUDAsZGP4RRsnyjfW5KK8EQSKlCFGFOMjrgGBzEFDTQF8girwaDF1NUu381p+NJCF3rf8idHjh5loiR0JqwrARynjyj389YFTOUaYSiQt7s5NAQE/I2CFdDnutB78ZonVrXxxKatq5XnKb5xLd4ui7tdgHK0SpL6cGvYX0Ksql3uMUx59rW8VIMPrwwi27AC6j8NEmhflJgVRm/AAWV7gfj7x7JvF146NRgah8rjnpunBYb7/cmorQsfjgvk5C9V3+YkHVMvSTKiuFz128/IQruWhajE+iqt4r0ikQxPYW2eFPZYq217cMxyW/0xx+uzka/x064/cvSYMhZHkIkoyCQm78FXHSjdv4y3ui97HsjFY9+RR1qffUL5KiFGfP/9++kp4PESLBM35YRK90NUZEn49J7Lv2NVpvDFdNBD99z4PdbisSwA9+NrmSS50fu+BR96R2bLN+KTmHNt5S8HHPfUtf27WdnAtDtt5u+qjUe4zuJXzhL8rPy/o/ZecKm2urbD+R5sy1rxfZ0WvQ43cnVFeMz9vmJEWhp7B//jgw34mx8cwLPl8uPhyr3VccM9Cv+56uzEq893eh7QITtXHikzVwfHHJrIROfCVHB4o05MYjOyNQCc8C18ozcuxWXnbWiNRmRPDMLuiy958eTmaYFxZxLmKapoV0xq26WBpuBJZJe4ceuNfjiqKpALHbJzw8Qwh+Rkww3zpidxaSj42fj6Rxo4inOl1qCFv9T1z8S4C6iqgEFckxMhb6m2Z3RdvWQcU7ktL7lNaNt7HObt8vvP7urcC+xaLtAhB8CkioiE/XVYhipwYHs7to4Fl82rbHu4mIe7E1oBn4iYIBNRAiL+PFLADbskFeFH//VF/CjWa6LKDk2EH9Xgu5jCvwcnznGQJDc+cU2h/PEcfBexbmI8Xxh4qGk7sjTIETfTJklWG4809g7+v9+14cdle7BmOrQMPVbbvaPK5csMyBnJxarHAdtvbiL4Bt//pYt37nIrnsaxBJPk6CLN04yvVFQbmlwU6JADF7whe0d11jRugeF8P4qrtHCcDp2rqiaewDm7EXskTweNEDNMkmO3Sy1V/WysgH64H2ekPmC4GcXl/YkEnXy2fjgaK7A8JEGOv39uDg2hvnELDOeVI4dq+keSjIp51RFfE1Xyjqk/SZ2b1bljmVfX8qhTVXLse8nAURzLt6Cl8SA2uEPnDMdquy/mmhXQnNdhfRXQe1g5D15JTrwn4/4ChigzsMSaiFSTJDs+/nQK3y/7sa+sNpi3HPdT24v41fmXfP/iTY7lOa1QvJcQ8jzZ4FHJeAlhwKrHg8rAw2xTV6b3lRWraTsAOD75EF98Zy02F81mAal68cYz6TiKi+5slP/A3061bQcgjyJjLVatKMH31Ryne3b8+5fhnzI0WWHuOI7dtYWqYg8kSX14/6oL+sY9M1qpVZ7fB8V+hCjExqc3h47Q2PrhQCmKd1RAP3EB79sSjMe7nwjlrTcvXsBU7mY01Kkvv51Ru6LtR027Rp2YhBZrq41wDMklnzeHhqCvqUXoMn4quMcwFaV/4iW3QYN1NRr/Y4n2j60LvROlWOc5Nmr6x1tGO3JqJyz7dvn+xZscJ+uYhuVZnTucNSsfwZtbvoW/L5ql+cnz8Fr2lq3raxqgEQJCFGLDz0N/MzuQu9uMc8NarNnr3298nxtd6MVmrN9RAX2s4+1ZCPCWLfzTS4sexptbvoWTK5kmUGbiCDIRxWXScRRvow0/CRgdBvzzd72jiD8rfxHPBr02cI7vsgqzb7VoAIBn+8BtPum3ABVmxUh0uFWjo/EuUvV4UCL8n7/7JxwJGlKRtP7VogF5xPStgMQ+VtsBObH/n78B/uYHrXj2Cf9rA8uI1bRdDTX7URNPMMeNTjxRZ8Kmuh8DntWl1bQd8I/O/+SJInxqexvBoxPhVjePVWItz42Mf9TK3W2GFRa0BozKARFWjo7CfrIFaLIqRvfC7UO+ma1Fa7URk1e6Qkac1MYj31w3hyy643ve2Ymjh4G2vfthrg44PwNKYA1NQTfj21+DebvyvdS2Kxa17RJizF/e6llFV48hX2mtmpi97T971YhWz/PBbU+E63w3JquakR0wZp9I/3hH8tYGlMvG6h/vaw4EtCd4G2Buj2m4FbUj9fGHo9+gVfsgtPkPYOn//hM+m4XKmfl4Ld984wSKO5rR+spTAOT+O4adaInym+De19R37AE8i9Cp/9y4DbvdhdZqI0ZOHUGkkeHARccizY/+j9FvMPaEBK3mAawRf0ZvulRDEc0RqaSkRPGVVFZWFqanZ1C7uMCxf6JLt/5hPHPPt6Jy8M/9RPgZoHSxrMKMTeiMK0Gl8HL0bfixdkSx0jjFx7uycM7V1JW00tzwrUod/DM9EX6+J90I8QD+dstDKPvyzzhwZXYSZFJHU2tBi2Ew6k+RqVkFXggJ26ofRu13voG162smyJRxWDtBRMn1qAbfDfNwrq4Ij4VbdIsWFPm3lLPx758wOZ4JSerDO6eHkFPdjq1lXEl2QfMs6BRMazQiO9yiUmnm//q/H0S5JGHAweQ4leTfUtbC0RMlOdaZ0NZYGnt17YIHUZclwfU7jh5TZmKJNREllXT/Mv7nQE5IibUQI7h4/u2Ic35pfgssnU5sQTYK5lu4p/RJYCDx3zum9CY5O3H0dH5IibUQg1FH+VLNN3IMgfPv/QFnZrAuBCUusBw+1sJuyzdtBq4eiriNd+S4LkuCrf8P+CVXwaYMxRLrOLF/oku3/mE8RERERESkFkusiYiIiIiIiMAEmYiIiIiIiAgAE2QiIiIiIiIiAEyQieYU5x8TEREREaUvJshEREREREREYIJMREREREREBIAJMhEREREREREAJshEREREREREAICHUh0AUSYTohLbOppRJEmYvHIQr3bfTnVIREREREQZiyPIRCkkSX0483wLXvrFu0DVfmwtE6kOiYiIiIgoYzFBJkoHozfgmABy8pemOhIiIiIioozFBJmIiIiIiIgITJCJiIiIiIiIADBBJkoLknQb7nEg27ACGsF5yEREREREqcAEmShN2E+2wPIW0NBxHO1NlakOh4iIiIgo4/BnnojShKbWghbDIKz7dsEtSakOh4iIiIgo43AEmSgNCFEIg0GLKfsNJsdERERERCnCBJmIiIiIiIgITJCJiIiIiIiIADBBJiIiIiIiIgLABJkoPRSsgD4XmBz7LNWREBERERFlLK5iTZRCQlRiW0cziiQJk1cO4swAF+giIiIiIkoVJshEKSRJfTjzfF+qwyAiIiIiIrDEmoiIiIiIiAgAE2QiIiIiIiIiAEyQiYiIiIiIiAAwQaYFbnp6OtUhEBERERHRPMEEmYiIiIiIiAhMkImIiIiIiIgAMEEmIiIiIiIiAsAEmYiIiIiIiAgA8FCqAyCaS0JUYltHM4okCZNXDuLV7tupDomIiIiIiNIER5Apo0hSH84834KXfvEuULUfW8tEqkMiIiIiIqI0wQSZMtPoDTgmgJz8pamOhIiIiIiI0gQTZCIiIiIiIiIwQSYiIiIiIiICwASZMpQk3YZ7HMg2rIBGcB4yERERERExQaYMZj/ZAstbQEPHcbQ3VaY6HCIiIiIiSjH+zBNlLE2tBS2GQVj37YJbklIdDhERERERpRhHkCkjCVEIg0GLKfsNJsdERERERASACTIRERERERERACbIRERERERERACYIBMREREREREBYIJMmapgBfS5wOTYZ6mOhIiIiIiI0gRXsaaMIkQltnU0o0iSMHnlIM4McIEuIiIiIiKSMUGmjCJJfTjzfF+qwyAiIiIiojTEEmsiIiIiIiIiMEEmIiIiIiIiAsAEmYiIiIiIiAgAE2RKsunp6VSHQERERERElBAmyERERERERERggkxEREREREQEgAkyEREREREREQAmyJQmDE1W7K4tTHUYRERERESUwZgg06wSohJb/9EKc8fxqAnwzYsXgKr92Fom5jA6IiIiIiIivwfz8vJeDHzgkUcewVdffZWqeNIe+yc+knQHwz1deM/+MFb9pBl/MflrDLuk0O3u/298PFmIhsZV+P3FjzEuhW5DREREREQ0mziCTHNj9AYcE0BO/tLI29i60DtRivodT85dXERERERERB5MkCltSNJtXOoZAkoqYBAstSYiIiIiornFBJnSi60fDpSiuDzVgRARERERUaZhgkxzQpJuwz0OZBtWQBN1dNiJqVil2ERERERERLOACTLNGfvJFljeAho6jqO9qTLV4RARERERESk8lOoAKHNoai1oMQzCum8X3FylmoiIiIiI0gxHkGlOCFEIg0GLKfuNGMmxDtm5wOTYZ3MWGxEREREREcAEmdJNeQX0GMItW6oDISIiIiKiTMMEmdKGEIXYWFMKDPfDzhJsIiIiIiKaY0yQKX2Ub8Ga3CGce+NaqiMhIiIiIqIMxEW6aG4UrIDeN7c4dHRY6ExoayyF4/Qujh4TEREREVFKMEGmWSVEJbZ1NKNIkjB55SDODIRPfpdv2gxcPRTxeSIiIiIiotkmlZSUiMAHsrKyMD09nap40h77h4iIiIiIaGHiHGQiIiIiIiIiMEEmIiIiIiIiAsAEmYiIiIiIiAgAF+kimhWLFy9OdQhE89Ldu3dTHQIRERFlMI4gExEREREREYEJMhEREREREREAJshEREREREREAJggEyWFKGtDe1Nl9G2WrEb96iVzFBElYsnqemwsTu788XQ47rPRLiIiIqKFiAkypZyhyRozuYyHKGuDueM4dtcWRnzO+29rmZhxjKKsDeZGDXovXosc05LVMK1cBMfI5+oaMQuWrK5PeaKWDLPZjs9HHIC+GquXqDsvYol03BcXb0T9xmIsFsl5n1iS3a5kWVy8ESaTCfX1G1G8OL1iIyIioszEVawpo0gDR2EZAISoxLaO5hnvT4hKbGssxdTVQ7jslCJsswSVK3W477iCW3dDtxFiMUpqqlH0qP+50Y/P4qM74feXamJxMWqqdXBe6QnbnvlMunsLPdcXwbSyEks+78MdKfH2xTrucymZ7UoWsWQ1qvXAyOWznv5JfUxERERETJBpwfEmwXNh+Y5m6CcuwHr+MyBC0vG9ypXQ3XfgyvAXIdsIsQSVppXQOa+j89Id3+NLVqdPIpNxPh+Bo6gaKyu/hzsf3Ym9fQTRjntKJKldyfLYo4uA+06MfgHmxkRERJQ2WGJNlCAhKlFcAjh6zsIdIQESYgkKdIBzZBh3w2zjS6L6lCW4dz76iMlxikjSXQyPOAFdAZYkWAId67inQjLa5SWWrJ7TEnEiIiKiucIRZEobmloLWqvzAQBCDOLcviOwe5ILQ5MV9TiBgyf7fNsHPybK2nBgu9H3/MipnTgzkFhyErwvABD2oI3KK6DHEM7ZEHkE7HsF0MGJ65+HbuNNou47RmMmUWLJajSsKvD/fW8EV3qUyVe4Uu17I5dx6dZdxb4WF2/EhqJHI+8n+L1GP8a5BEYcA99H9Xup2EaOSflesWIWS1bDVHQfV3ruoci0EgWe/UcsZf98FM6VK1HwPeBOIoOtUY57OHLZuh6LcB+OgNL1aO3yvub+9U5FG3zznsOVwM+0XUH7qTYtwvVOVjoQERHRwsEEmdKCZHgGLfbXYdnXByEKsfGF/ajf8STsAQlxzH0kaX6xptaClio3Op/bGZSgK2nzNcDEICai7MtbRno//JNYBOD+veg1pmJxMWoKRtHZ+ZH8t6csu7rynj9ZilCqHUwqWIXq0Y/R2XnH95qVJaO+JHpx8UZU6+/j47NncUeSfEl3/WrElSQvWV2PlTonPj7bo9hPdQ18CbCadgXH49t3wHupjVl6tAjVpntwXOlE511Jfl3EObn3cf8+oHv0MQB3Ea+oxz2IHD/guNKpmIsbq13S3VsYceqxsqgEiz/3f6nwvQId4LweYd7zzNrlJUl30NcJ+fwx1eDRBOajL1q0CLh/L21G2ImIiIgAJsiUJoT9dd9IsCTdxqWeIaxprIBBXPMlqXMSh6jE+iotHKfb5/R9o5Hu3sKljwL+lu5g1LkSuoBtHisp8pdqR4k7cATSu5+VixYBuAshFqNAtwj3Hdd9CaO3LFe/sgBLxOeqRgrF4mIU6QDn9T7lfq47oKvWoeCxYdy9G7tdQixBkX4RnNd7Ir5vPDELcU8xqvrFqBP39TrMMFdMmPRoETY0FMmj5p2h1QBq2vX5qBMrV/r7VO77+3BcUTl0rUK4ygSlR6Ev+h5uqfwCZcnqeqwqkDD68VmcS9OF6IiIiChzMUGmNKaBpgCwO+fwLQt0yAEwOYdvGUukBCWwzDg5o3GLsGgR8GjRBpiKgmMYDf+SiOSRSoUv7uE+9PDk47Hb5R1hT1rM9xE4WC/dvYVL524hVStEiXsjuO7UYaXen+D6qWyXZ+EtXcFjuHX3Lh4r0GGRcySpq2ZL0l3cunQOt4LjX7IappWIu8T6zkfn8LlYjJIaE+oLridUvk9EREQ0W5ggUxpzwz2Kuc1fRp2qk2PXmBuoykcuAHeEbb64dx/QL4InJwx6chTO+3rog0pkA3mTSD0cuHzWv01wmTEAYNGjWCzEjEtWI87LjWu/i3yJsM9jj2IR7sN5X2W7vrinqkQ5eTGHxh+r/D2SqMc9wP3hHlxfZMJKufY8JLGN1S7fqHJRARYPL0KRHjFGj2fWLi/fnO7OxBYhk6S7GHXeh16XnHOWiIiIKFm4ijXNCUOTFeaO49hdWxhzW/9vC3f5ypwnxl1ASQUMnlVzDU1WmAzJv6mWpD7cGgb0NQ3QCAEhCrHh5xHey9YPB0pRXB5lh5+PwgkdCr4X7r3k5EZ6tAjVlcoNlqxerVxpOGB0WCxZjVUFyng+H3Hg/iI9VpY8prapYeK5gxHHfehWVs5olWN5biwU+xFiMUpW6kNHN6O0Sy65BnRFJVgsBIRYjOKN9SHbJCPmEJ5FtkY/j71pWFGOe7A7H53Ddeci6Kv9bYirXZ+PwAE9iioLoIs1ejzTdnlIdz7CuUu3mNgSERHRgsMRZJpT2Xk6ALcVj02MuyBVPwNzxzO+x0ZO7cSrAStQu853w1HVDNMrr8EEec7ysSu1aMnz7yckad7+GszblfOb1Wxz840TKO5oRusrTwEAJq8cxDHsVLwX4E2mm1Ff0wCNLfxPPfnm+UYYJZbufISzn8uLU5lMq3yPj358Fh9JEiR45+76nxf3RvDxyD2sXBSwn7u30HMFqKmuhqko+irW0dy9dQlXsBEbGhqwKuDx0JWsF6FoQwMCq38DV6C+89E5YHU9VgXsRzn/WV27Pu+7jgLTSmxoKPK157JzJaoDtlEfszpCLEaJPIk64dWZYx33YJ/3XcGjNdVY1dCAAs+osdp2eUdjNxQVYPTjPkQaGU5Gu4iIiIgWOqmkpEQxPJGVlYXp6elUxZP22D8UyLtids7VQ3i125/4L168OGAbOQFe5LgSV7JKqZHo3NqQ/czhcV9cvBHVOmfIT2Qp4klSu5IlUsx37/IaISIiotRhiTXRDEhSH945PYSc6nZsLQtfCitJd9B33YlHizZg9ZIklgFT0onFxahZqVOswJ2ouTruYnExVuoXwTkSJTlOYruS5Yt794FFOhQkPiuAiIiIKOkezMvLezHwgUceeQRfffVVquJJe+wfCia5rmPkoZX40eN/wAeDcunrt7/9beU290bhlArw/+R8jZHRe6kIk1T4nvGvkOO8gt98+sek7G82j/vi4o2o+4ERxd/PweT1zvCLeXkku13JIN0bxdgD38eqVWUoKirAA2OfYuKPEv74x/SJkYiIiDIPS6zjxP4hNQJLrIlIPZZYExERUSqxxJqIiIiIiIgITJCJiIiIiIiIADBBJiIiIiIiIgLA30GmJOMcbRnnURIRERERzT8cQSYiIiIiIiICE2QiIiIiIiIiAEyQiYiIiIiIiAAwQSbKWKKsDe1NlakOg9JQpHPD0GTF7trCqK9Vsw0RERFRumKCTJQGhO4hvLnlW/j7IinqdmtWPoI3t3zL9y/W9hHfr6wN5kYNei9eUzyuqbWg/ecmaIRIaL/JZmiyLugkXpS1wdxxPK0SykjnBgDcvHgBqNqPrWWRzw8128RDU2uBueM42v/Rgg269Ba7PvkAACAASURBVDgviYiIaOHiKtZE88TSoofRovkGx379NXqlxBJjABCiEtsaSzF19RAuOxPfz0JjaLLCZFD2x+SVg3i1+3aKIpp7sc4NydmJo6fzYW7cA4PtCOxhzkM126iOp6wNLVXAh7/Y6YmH5ysRERHNLibIRGlAcv4JP3X+Keo2BYskwP3nGSXHALB8RzP0ExdgPf8ZMMN9LTTC/joOnuyT/1tnQtve/diNQ7OWJEsDR2EZmJVdJ0TVuWHrQm/NftTveBJ2T18ltI0K2nwNMDEI+yiYGxMREdGcYIk10TwghIQlWcnYTyWKSwBHz1m4mRxHN3oDjgkgO0+X6kjmhNpzQ5Ju41LPEFBSAUOEUnw12xARERGlI44gE6WQ0D2Ef6540Pe3rf8P+GVAaWvw88h6GG9u8Twn/gxrV5zl1uUV0GMI52xQNSInj6JuRjZc6D3c7iu7FWVtOLDd6N8uZOR1MyZP78KZgYC2eOe2BuxHLU2tBa3V+fJ+xt+F9WVlEhcST5htAvcBAEIM4ty+KCXA5VuwNk/CSM81BHZWtLZHei+vkVM7cWZACtmH9/Fo7Q7XLkOTFevGD+GDvP2+8vBw7VLV9njODVs/HI3NKC4H7JFGwNVsQ0RERJRmmCATpZC3tFqIB/C3W0IvR//zErZVP4za6T+h6fo3ARvEl2h6S1YnVGyrqbWgpQroPbxLMf9TftyNzud2wi5JEKIQG1/Yj/Ym4ODJPkjOTnwwvBn1NQ3Q2PzJ3PLSUmD4RNzJsWR4Bi3212HZ1yfPke1oRkPdDV/Zs9CZ0FbaD8u+o/Lfnm1adjj9SXtZmyfmdmVSGNR/kuEZmDue8exn0NdGZZ9EbrtyG/m9vMlwYBLsLa32xhqOocmK+pIh/34879XyAhRJck51O+qD+mdd3VLYvf2jsu3xnBuAE1MTgD5/KTAQqfxczTbR5eZpgXEnqx2IiIhozrDEmogUpLyn0PrKa2gxDMK6TznaK0QhDAYtpq52+ZKtcOW0N4eGgFwjDAWe1+lMWFfiCrsyciyBI7SS1Idbw8qyZ8nZiVcDRnC924S0SzKiuDz2e1n27cJLpwZDn1PZ9tw8LTDc709GbV34cFwgJ3+p+jbrTFhXAjhOH1G+11sXMBXQr96Yo/WP2ranE0OTFeaO4yge2hUyOk9EREQ0mziCTEQKYvxdnLMbUV9lhKHgLNzOwGd1yM6VRy3N1UGvEwFJpWeRJr1xKS47b0NrNCJ7uHtWVs32jqyuzVPuW9j9/y0NHMVLbhPa9h6Hebu8XbQVqqWBozhXalWMxKpt+8S4C6iqgEFck5Nbb6n22GeIb6UpF6bcQQ+NOjGJzcjWAHCGe034tsTT9nRgP9mCm6IQG184jvbSE0ySiYiIaM4wQSbKIK4xN1CVj1wAwblXoInz7TiXdxz1ew8CYeYMR5ozi6CR1TU1K6A5r8P6KqD3sHIubzJ4k+M1uIBjzynn5tYHh+bsxKvPd8qvU7FC9c2hIdQ3boHhvHKubqy2y/9phOmV12CK9ZqotKGJcIEOOXDBEe3ghaGm7WrPDZn8ZcFk1KRfzTZRYpZuw253YY1BB40QLLMmIiKiOcESa6JMYuuHA6Wqym3tJ1twbliLNXv3+MqHJakP7191Qd+4J/bqxLYu9GIz1u+ogD7K6LG3nHZ3bWG8rfELmKcqytpCfs84hGeF6qhsXeidKMW6Ork0Wk3bvWXYI6d2wrJvl+9fvMmxPI8bivcSohAbn94885H4SG2P49zwLuh1yzbDbYiIiIjSDEeQiVJozcpH0KoNSHYqvo03KwDh+lq5GFeSyHNUm0MW0Irk5huHoHlhP0yvvIZizyiou9sMKyxoDRghBUJXc/aOALZWGzFy6ghijSLK82bjK/v1zsvV7232L641/i46r2hQn+ffLtyq0rHKjL2j4Gu3t2PrmLq2e19zYPtrMG9X7i+wfwxNVmUS79k+cBv7yRagyaoYiQ63YnYsatuu9twQohAba+QF1yKtAK5mGyIiIqJ0JJWUlCiGQrKysjA9PZ2qeNIe+yc69k/68650nHM1cnlxsmhqLfJiXy9nxu8u+1alDv6Jqwg/fZVu1Jwb8s91IepPZKnZRo1MO3+IiIgo9VhiTZRhJKkP75weQk51O7aWxSiTngGhM6GhSgtHTwYlNwU65IR5WGs0IjvcoltpJta5IXQmtDWWKlbXTmQbtVxjbsVq6ERERESzjSPIcWL/RMf+mT80tRa05HUnfYXgwJLexBanmt+8v3useEwMzng0dS5FOjcMTVasG49eeaBmm3hjaa3OhxBj6A2zYBwRERFRMjFBjhP7Jzr2DxERERERzVcssSYiIiIiIiICE2QiIiIiIiIiAEyQiYiIiIiIiAAwQSaaU1lZWakOgYiIiIiIImCCTERERERERAQmyEREREREREQAmCATERERERERAWCCTEREREQLjChrQ3tTZcjjhiYrdtcWpiAiIpovmCAT0bwmytpg7jju+7e1TKQ6JNW8sSd6s2Zosoa9AVwoZto/85Gm1oL2n5ugEfPvPOY1mJnS8ToVZW0wN2rQe/FayHM3L14AqvbPq/OUiObWQ6kOgIjSh6HJinqcwMGTfQAAISqxraMZ+okLsL58Fm5JSnGEoaSBo7AM+GNNJUOTFfV54fsquG/VkG/ygHP7jsCeQN/7jh+GFPtIZL+GJitMBuW2k1cO4tXu23HHRQsLr8G5EyseXqee87CxFFNXD+GyM7SPJGcnjp7Oh7lxDwy29DiuRJRemCATUUTLd6R3cpxuJsZdQF7k56fGnYq/vYnFbJua0GBd3VLYZ3iTLOyv+7880ZnQtnc/duPQrN18z1X/0MKRrtfgXMr069T3/63znwGR/r9l60JvzX7U73gS9ji+MCGizMASayIKS1NrQX3JEM4xOZ73Jnu6MVm1BYZklu2O3oBjAsjO0yVvn0SUXBl2nQpRieISwNET/f9bknQbl3qGgJKK5H4uEtGCwBFkIgohdCY0VAG9h8OXn4myNhzYbvT/HTJisRmTp3fhzICkeI25UYPew+1hy94ixiIKsfGF/Vib539NIiWDmloLWqvz/fsdf1cxMm5osmLd+CF8kLffV6IoxGBIKWO0trvG3EBVPnIBuHQmtO01wnG4HZdGl0KTB2A8/D5GTu1U9FVwrKZXXoMpStsDtw9ul+wabg03o7gcsEcY6YnVPyHKt2BtnoSRnmsA1PVPpPfy8vZDrP5RG7PaYxqynzDbpIr3esqGS3Ht8BqcX9egmrYHl38HPhZvPD6Zdp2WV8hTSmyK5oZn64ejMfLn4tKih2H5ywcw9tuv8HcjTKKJMgkTZCIKosPGp+Wb63A30ZpaC1qq3Oh8bifskuS7eW5vAg6e7IPk7MQHw5tRX9MAjc1/E7S8tBQYPhHnjblnDu3wCVj+IfEyOEOTFfUlQ+h8rl0Rc8sLUNyo5VS3o97+Oiz7+nzvHViaHKvtyo7KR46UDxiX4tKo/NDk2GcApJhzNt3dZli61c1/lAzPoCUo5oa6GyE3zDcvXsC6p+Vj4kqwfyTDMzB3PANAvjn19oOvySr6x7+N5708N9mBN9dq5rQm65iKsjZFPP6Ojf88LQr3ZVKsLxqikPsK6D3svRalgMd5Dc6Xa1Bt26OJN55MvU61+RpgYhATMXsUAJyYmgD0+UuBgcyZo01EsbHEmogUJMNTWJsnISd/achzQhTCYNBi6mqX7yYlXKnazaEhINcIQ4HndToT1pW4wq4oGo22rlaeS/ZGfK9TxKwzYV0J4Dh9RBnzWxcwFRAjoBxFkaQ+3Br2lyaqart7DFOefS0v1eDDK4PINqyANuHoVbQvSswKozfggLK9QPz9Y9m3Cy+dGgyNQ+W5kZunBYb7/Te5ti58OC7Cnm8R25ykY+olSUYUl6t++xCS1Iczz7fAsm9XyL+D/9AZd3Is5T2F1ldeQ4thENZ9ytFeXoPz6xqMp+3JjIfX6cx9NvI1ftr1R44eE2UgjiATkYKwvw7LUAUObG/H1rHgkjkdsnPlb/vN1UGvEwE3Y54FUPTGpbjsvA2t0Yjs4e64Rq4Az03auDMJc6BdmHIHPTTqxCQ2I1sDwBnuNcFUth0aaAqeRHaJG7fe6IejqgK50CE7N0wMc0i+CXbDvOlJXBoKfja+/pEGjuJcqTVo4S91/TMx7gKqKmAQ1+SbZm8JqGdkT71kHFO5LS+5TWjbexzm7fL7p3rVXzH+Ls7ZjaivMsJQcBZuRVt4Dc6/azA552q8eJ0SESWGCTIRhZAGjuJYvgUtjQexwR06XzHSXDMEjUisqVkBzXkd1lcBvYeVc+BUy9NBI8QMb9C1oTdjBTrkwAVHnDfMsdoOADBWQD/cjzNSHzDcjOLy/kSCTj5bPxyNFVgekiDH3z83h4ZQ37gFhvPKUk81/SNJRsUcyoiviSp5x1RyduLV5zsBJLbq72yUWE+cb8e5vOOo33sQCDNnmNfgfLoGk9f2eGXadRo4Bz327uUvCybjTvqJaKFjiTURheXuNuPcsBZr9u7xld1JUh/ev+qCvnFP7JU/bV3oxWas31EBfQIjV4A8b3YqdzMa6tSX9QWT52NCEbMQhdj49Oa4RtRUtX3UiUlosbbaCMeQXJJ6c2gI+ppa5CQSvHsMUyhNWlmh3AYN1tVo/I8l2j+2LvROlGKd59io6R9veefIqZ2KMuR4b7qTdUzD8qz6G1c8SS6x9rKfbJmTa9DQZIW54zh21xaGPMdrcGbXoNq2T4y7FCXO4X7POKF4Mu06tfXDobZ/PAt63bKFf3pp0cN4c8u3cHIlb5WJMg1HkIkooptvnEBxRzPqO/YAnkVh3N1mWGFBa8DIAhC6Cqok3Ybd7kJrtREjp44gkW/oJWcnjh4G2vbuh7k6/Aq6ITeS21+DebsyHvvJFqDJqhgNCbdqayxq2y7EmL+s0LNSqh5DcI8CkNTF7G3/2atGtHqeD257IlznuzFZ1YzsgPGVRPrHO0K5NqAUP1b/eF9zIKA9wdsAc3tMw63Um06lmzffOATNC/theuU1FJ9S189e8V6D8pxPZbt5Dc78GlTTdtf5bjiqmn3bCPvrOHalFi1Bv+kcbzyZdp3K85ebQxaoCyZEITbWyIvWRVrs7D9Gv8HYExK0mgewRvwZvWmwqj0RzQ2ppKRE8RViVlYWpqenUxVP2mP/RMf+iS7T+kdTa5EXGuJvKRMCVrsN/vmhCD9LRDPHa5DiNd+vU2/8OVcjT5NQsxq4EBK2VT+M2u98A2vX10yQiTII60aIaFbIv6WshaOHN+bkUaALW+aqNRqRHW4xH5oRXoOUkHl+nUpSH945PYSc6nZsLQstIxc6E9oaSxWra4dV8CDqsiS4fsfRY6JMwxHkOLF/omP/RJcJ/RNYCpfYoi60kHl/T1XxmBiMOpJD8eE1SDO1EK5TTa0FLXndIeXchiYr1o1HGV32jBzXZUmw9f8Bv5zJXGkimpeYIMeJ/RMd+yc69g8RERERUfpiiTURERERERERmCATERERERERAWCCTERERERERASACTIRERERERERACbIRERERERERACYIBMREREREREBYIJMREREREREBIAJMhERUVxEWRvamypTHQbRgmFosmJ3bWGqwyAiAgA8mJeX92LgA4888gi++uqrVMWT9tg/0bF/omP/hBL52/Cz9f8Nyx4Ywf+a+jLV4cwptW1fVmFGY/kPsXqZ/C94+0zuw7kmytpgbtSg99Q/4//cl+J+7YF9LVi/6a+xftNfQzPxawy74ttHqnhjL3loCNd/ezfu1xuarGg1TuCDwTuzEF3qzbR/0o2m1oL/t/6/wPFvt/ClNPvnqHv8Yaz6STP+YnL+XBNEtHA9lOoAiIjmQo6+DT95Ikfx2Ke2F9E9lt43Yzn6NmzSOPCv//I2PpmlG9VlFWZsQieO9NsBAEIYUFdnwve//BBvv3cJk3Nwg5xKctILnNt3BPYobRWiEtsaSzF19RAuO+PvE2ngKCwDnv10NM8k5BkzNFlRn3cB1pfPwh3UZkOTFfU4gYMn+1TvT20fRny9p0/0GFLsI5H9GpqsMBmU205eOYhXu2/HHRfNDcnZiaOn82Fu3AODLbFziIgoWZggE1FKSWPv4FfnZ/c9llWYPUnmkaAkM7U3YWra/t2sbMD9ftTkONl9qF+ROclxPJbvaIZ+4gKs5z8D5nm/TIy7gLzIz0+NOxV/e5P72TY1ocG6uqWwzzCZFfbXfQm+0JnQtnc/duPQrCXJc9U/C5qtC701+1G/40nY4/hyhogo2TgHmYgWNCEMeEIDfPHpe7M2AjtbhNAgJ2tu39M7Yn2RybGCEJUoLgEcPaEjrpQ8kz3dmKzaAoMQydvp6A04JoDsPF3y9klJJ0m3calnCCipSO7xJyKKE0eQichH5G/Ds8sm8fZ7bqyqM+FxTyIQXIos8rfhZ+VF/r9dZ33luV7hSpoD9xW8j0jlzsH7EdP/phjZXFZhxqrpY/g4qxU/0nrKMsUILp73liRP4Isvge8//kMsG4lcphx7P+rbLoQGa3/Yioos/+v+83f/hLcc7rD7iNW/yGrAs3UNITGp7cNY8fi2W7QBmx8HbL8J30/R2i4WbcDf/GAtfj/wUkhbni3Lge03R9DrmbMbckzD9HMshiYr1o0fwgd5+33ltEIMKkpxw5UKBz6mqbWgtTrf95zplddg8vx3SElueYVc/mtDxMIDIQqx8YX9WJvn3yCR0t7guMT4u4pSaDVtBzzzYrcb/X8HjKq6xtxAVT5yAbh0JrTtNcJxuB2XRpdCkwdgPPw+Rk7txJkB/3vE1YdB2we3S3YNt4abUVwO2COMyMbqnxDl/397dxscVZnnffx38aBbZRBv89CdZIpsjUiypK2EBBwMO7jJAMOEZWoTq8QFt0SUsDVxtpYS13lBokRfrFu41qzivcaHwXuVe6SKsLUZIrcKDE4ZmR3TIUXiJupMCbfppEmyq8BUObJw9sXp53SS00kn3YHvpypV5PTpc/7XdU60/339r+ts1Koco953P1TkxRuvf8Y6V1CwHybqH6cxO72mo44TZ5/pYI/Cr1emBtX+XENoisF4fRh8z/CB7VF9EprHH3GcEG+H+jaPff0Liuar6fY5Gvj0G/2klyQawPQgQQYQxWT8qe7bMCzvr/bo+YtGWYX1um/ZfVrisxOYrMJ63XfbsP7fL560k7RA8vVIuULJUnifF6ISucgELlgWHJzvGk9saXTwXPf9maKS5P+1+K+1bvCQnj/SHTrenUVufdLnlzF+ffDLFt2yoVbf//Mntc4ajkrWIkUfxz7XuuV36JNR7Rq77aH5u/4WPX+ye9Q5nLQ9/Lp9/LJLLdFJuHHeh07isbm0qsxOcOP1zURtNxeP6d/9q7RuyRpl+cLXpjCvUPK3hI5p5W6Kujdi25SIrKoG1XS/qqZdp0LJaSLlmf62RjW1OZvn6s51SUOnNTTGsUJzaHteU9M/TL481LO1WTXFXWp5tEHdxoTaVfe4ohKq6Lbb544sTXZVN6mu0q+WRx+OOk7DVo2eW+zKVZbJlUoL9F6/vWl44KwkM+G86UT60HgeUl1MzPds+GhUEn3mnaNaff89cnkPaXCS/WM8D6lx70OS7CQy2A+hJjvon/A+gXMFksHIJNjJvPJkXVNrWX1UPOGOnd7k2O4Hqf257YGE1kRsH7sPja9F7/esV81a+1oG23lHSYnU89oY8/h9GhmSCnMLpE7mjANIDUqsAUSxYhLIIV+vvlSWsm62E7Yl7syocmVj/Prgkz7JVawlgbI4e95sTzgB8v1SHZcs3Xqz23kcC76nO13S7zp/Hn0u7wf68qYiLbk5Yt+IkUxjuvWZX7olIzv0ujHdamtr0j/94p/l/X2mylc/qUeq61WxIHoEIvo40e1y2vbsorvt+bsfnXHc1unkNB7j/lOVZ5i418hp2/t8fVLEtbGv4Yi8n0Sf25giLU5CtWvkaFWqyzPdG6rt+ck/+3DSx7DyarW6WOo7EE4yjTmn9944qpHsUnnyI/aNavspfdwTLiG2rEXyeNwaOdEafZzI/vEPaCRwrDtKXPrg+GllepbL+V/oJNo3TsxR+j9Sn6LbKyXeP027tmvPm6dHx+GkfyRl57ilno5wMupt1QfnLWXlFjhvc5KuaZAxpVpa5vj0U2JyfqAdz76iOs9pNe+KHu112odnurqkiHba/TGo9ncm93dytveyHmj9A6PHAKYVI8gAYgxr+IJClYjm4jG90XYssCFbt9xkj7T+eHH0uyyrN/Tv/7w0It1WrCXWGTuhyvszlWcY/fbCYPjAjozoy0sxmy749Z9apVsyJF1MrGXG+NV+skkfBEdmy9bokwnn2tpfDvRdcNb2WzMypUv+tJm/6zQea/CQnvcV62/K/lrVF2JLtZ21Xb5fyrtkh76d51Z7n1/ZeUW6xX8yakTaDLylf3r/e/qr7z6hH5fZ2+OVe0+eS658qds38Z7JlJ3jls77kjA/eVAjsV3R79Ow1ivTJclRu/KUmW2PSDZWRb9iWZEJo0uu/LuUWezXxz/rUF9lubKVp8zsODHMIDvR8qtx3V16ryv21cT6x3Tu0+GS5piFv5z1z9D5QamyXB7rQzsJDJZqB0bXnUvGNbXbssdfq/qdL6txi33+6Vyd2zr/tg53l6qmslSe/EPyR8Xp8B4LLLxVWFqgY75zcpeWKrOnbVKrwAPATCFBBpCwMR+PFJEcGFOk7//5k/r+RO8ZV+boRPhml27ViH4XmzgnwBi/PhkcUdltWbpV0vC4ewe+MAhw0nZluJRlnUmbJNlpPGbgLf3fz+p137JHVHFpdBn6RG0PjiqXLfEoqzdbd94meX91RrHJRPhLl+Dc5R26Xy8lKUn2y98/6pRTFjlnd8woc/LksqwpJsnu0UlTfp6yNKhEu2es+bBR92ppuQp7OnTQnJJ6tmlpWcdkgk4+b4f6NpfrjlEJcuL9c6arSzWbN8pzJLr820n/GFMaNa96zPeMK3nX1Pha9OJjLZJmZnXuoSMNOpzzsmp2PiXFmTM8UR8GR5Ur1i6X60ie7q6U2p+LngsezU68hxP+EgIAkocSawCOGdOtf//tiL697L5QWW2sYDnub71P6vkje0I/iSbH9pxWRZ3Lsux5srGjkomyLI/uvC2mDDzOPhuWFYbKip20XZL6PvlAX960SuuLprNY1blE4xnu26d3/Jkq+264nU7bLskeRdYq3bm8WN92cp0udOt3v4//kmdrsxr3vqwfVS+aMO7wM4rDJZ9D5wejyj3jPR9XUqDcuGT80lVvh/rG2efMO0c1kr1e92xwXn4by56zKRVufiQUs2Ut0pr71yc06mbMKZ08MRh1nFH6fRqWW6uqStXXZZe7nunqUuHaao1eWs8BJ32YALsNLq1e6wpvm2z/eFvVPlSi1YFr46R/giXEvW8+rKZd20M/iSbHybqmcQVW546nYsUNen3jjfr7oqknmd3763S4x62KneE2OLrHgrytatd63f1guQonanNgMbyPvfFfLiiar9c33qj9K/j4CmD6MIIMICHDffv0c9XrLyNGh6Xw/N3gKOLflD2pH8e8N3KO75LyxtBq0ZKkwP6R+3zS0SSVN0aNRMdbNXo8wUWqbotJhP/rs3/WCzHDN8YdXi1askdM34hI7Cdqu2Qn9v/yK+mvvrtDP14cf9VoJ213wslxnMQTq++jFi3eUKt1G+6TAqtLO2m7FB6d/8vFRfqt9+eKHQWKt7r5RCXW9jzM0SNkkQsxSfZo1osRCczgkTb1VW4LjQBa3a/qpePVqot5/q/xtejQiVLt2PKKGrfY22JLV+05odtGLTgUeYx9z0n1O3ersSr+KtajEvTA+SLnnnbvr5O2NkeNWsZbXXki/rZGNatJOyKOE+9YljUQLv8NrCBcqK7QKLyTmJ32YaIGj7RpuHKbMiPG7CfTP8FRzFVbGnTvgD3iOVH/BN/zRER7YveRZvaaxltRe6w+/qD/qna458qdO0cF//HfOjvFapYzP3tarsd3q/bZV7T0TWd9GGTMOXV3D2pHVal633xBY40MW9YirVlrL+A11kJvn/df1cBiI7drjiqsK2pPlyodANcUU1xcHPXVX0ZGhi5dmkLt4jWO/hkf/TO+66F/Qisqxz7uZ4zHAKWLJeWNWqeWhBJUxJdVWK/73L1RK40nW7xHOE234MrCWSemr6QV6SG0KnXsI4rGeHRRurGsOfrbjfO07PdX9MTxqSfIU+WqbrIX+xrncVxOVkK3LKNNVfNVfdNVNbdeJkEGMC2oUQGQXDe7dGuczdl5Rbol3qJbuKbYz1LO1O8+mb7kOFWMOaW3DnQpq6pB9y5jFd1rWn5e3FJzd2mpMuMtupVm/vhP5qrMGHX2pT45tvJqdU+lW33vjpMc59WqfnNJ1GrfceXP1YYMo8HPGD0GMH0osQaQVObiMf1LZ9aoEmvL6tU7R34+5pxfzG6RpdOTW5BtdjCd+/RSbpPqSu6SOmdu9Bozy/hatO9A7qgSa8s6Pe4IZ6qFRo5l6cgvv9bBKazVMFWRJeETLW52x7r10omnx9wnOHK8IcPI2/G1fsoq2ACmESXWCaJ/xkf/jI/+AQAAANIXJdYAAAAAAIgEGQAAAAAASSTIAAAAAABIIkEGZhTzjwEAAID0RYIMAAAAAIBIkAEAAAAAkESCDAAAAACAJBJkAAAAAAAkSfNSHQBwPbOsldq0d5uKjNHw8af0Ytu5VIcEAAAAXLcYQQZSyJhTOvhYnfb849tS5W7du8xKdUgAAADAdYsEGUgH/R+pb0jKyi1IdSQAAADAdYsEGQAAAAAAkSADAAAAACCJBBlIC8ack/+8lOlZLpfFPGQAAAAgFUiQgTTRvb9OTW9I9+x9WQ1bV6Y6HAAAAOC6w2OegDThqm5Snee0mndtHtaSCgAAEEJJREFUl9+YVIcDAAAAXHcYQQbSgGUtksfj1kj3RyTHAAAAQIqQIAMAAAAAIBJkAAAAAAAkkSADAAAAACCJBBlID/nLVZgtDQ+cTXUkAAAAwHWLVayBFLKsldq0d5uKjNHw8ad0sJMFugAAAIBUIUEGUsiYUzr42KlUhwEAAABAlFgDAAAAACCJBBkAAAAAAEkkyAAAAAAASCJBBgAAAABAEgkyAAAAAACSSJABAAAAAJBEggwAAAAAgCQSZAAA0pa1rF4NW1emNAbP1mb9qHpRSmMAAGCmzEt1AACmzlpWrye2lIZ+733zYR3sNCmMKDmu1XYhfaT6HvNsbVaNXtNT+0/Fja1xs0vtz30oKRyTq7pJdZ7Tan7mkPxm+mM9885Rrd65W/cObOfvDwBwzSNBBlLEs7VZNcVdOrzrBXXHfMj1bG1WTc5Rxx+ATec+NXVKlrVSm/Zum66QZ9y12q5rmZ3UKe597ZRna7NqPdHvtbpfjZtETlW63mOWtVKbNpdo5MTTOuZLbVJqfC3adyBXjZsfkcc7+esKAMBsQIk1kCJnurokueTKj95uWSu1tFjqe3dmRoeAdGR1v6qmXdvVtGu79jz6qvqKt6nh72rlsqxUhzYj7nhwmwqHjurQkbOpDsXmbVX7UIlqHrwr1ZEAADCtSJCBVPF2qE9uFZYWRG8vK1ehuvSxNzVhAenGmFN660CXlF0qT/7E+8926fglmTHn9N67XVJxuTzXyZcUAIDrEyXWQIoYc0of92xTjWe5XEfOhj4I31FSIvW8FlXGGDtP0jr/dsLzD+PNdYy3bdS5EixttfJqVb9zvYYPRM9XDM+nbAiVjM6mdiWbq7pJO6pyR22PnAM7Ucyerc1aff5pvZ+zO1SSbFmnR5U3T3Qca1m9GtcOqPkZn+7eu01FgffGzscd73rFtqf22VdUG/j38PGn9GLbOcfxjM0vf79C03HHiyeR+9CJ2PbFu1ed3M+x+0iS1R1zssCXZIe9ipx6PKZgWzM1OP7fV0Q/T6p/vB3q27xNS8uk7s7RcRQUzVfT7XM08Ok3+kkvSTQAYHYiQQZS6ExXl2o2l8qTf0h+X8TI0YHwojxWXq3qSzrUtGuf/XtgrmTdg76kJ3iu6ibVVfrV8ujD6jZGlrVIax7frYatcnwu42vR+z3rVbP2Hrm8gWTFWqQ1a+3EP/ThfZa1KxhfUZzkPdHEPhxPgx1PIJGJTEidxpxV1aCa7lfVtOtUKMbVGwrUHUhInR7H5PxAdXsH1P7cdjX57IS3LmLO6UTXy9/WqKa2iecgT+ZaBOfjRn5xNFE88e5DKfwFVCLJcXC9gND1CsRc97iiE/IJ7ufYtoeOHXM+d65LGjqtIQex2ceU2p/bHmiTs/tncv3j08iQVJhbIHWei/M6AACzHyXWQCrFllnHKa82vha9GJnImFP6uCf5oVjWInk8bo2caA19eJ9sWeWZrphy2PzlKsweVPs7H4b2mW3tMuaUDj5WF5oXG/nz1D+0JDTqnZ3jlno6wgmkt1UfnLeUlVuQcMyRo4LBPszMyUv8ONZA1Kjh4OnTGomYI5+M65VIPMbzkBr3vqzGvS/riWcfkg5sj07oHcQTex9aebVaXRx9H04Yc16tVhdLfQdeiI75jaMaiTj2RPFY1krdXemOOs5UmJwfaMezr9irWe+KHu112s/J6J9IZ3sv64HWPzB6DACY1RhBBlIotsw6O155dWDkZ1VO7Kq+yY4mT5nZ9ohkY1X0K5Z1OrFDeVvVvna3CksLdMx3Tu7SUmUOnVZ3ZHnsbGxXkgydH5Qqy+WxPrSvddlGrcox6h04K7uDkhVzIseJLl82vha9+FhLaENyrpfzeEaXXcec10k88e7DnrZJrAo9qBF/zKZ+n4a1XpkuST4H8eTnKUvScIJnHot1/m0d7i5VTWW4AiXMYT8nrX8AALh2kCADKRYus/YpM7a8OvChu0JH9dKj4TLIeGWZyTLmc2ATGPUKjlZVbN4oz5EOLa10q+9AOP7Z2K5klljbpy2NmqcbL75kXItkHCfZ12um4gndh2uXy3UkT3dXatQzhZ1xhxLhkPw8ZWlQfX6H8fT7HCfHgwN+qTJX2ZJi8/JIQ0cadDjnZdXsfEqKM2d4on5OvH/sxHs49EUOAADXHkqsgVQLllnfXz326tXnfeHkcln9qGfEOjF0fjCqvDL2WbPGnNLJE4Mq3PxIclap9XaoTyVa+mC5CoeO6uQsb1eySqyD5a+9bz4cdYzIRCaZMSf1mjq5Xv4BjahES8vSJB5vq9q1Xnc/WK7CSYyO2nN1FRWzZS3SmvvXjx5tHSeeYMl14dp75LIsWdYife/vRj/v2Y458LcTpw9jde+v0+Eetyp2huNLqJ8T6Z8JVtgvKJqv1zfeqP0r+GgBAJi9THFxcdT/PTMyMnTp0qVUxZP26J/x0T+TE0zq4q3mG1xtNiv4wTtYWpnTFto3NikMvTdy1dqYEVCr+1U1n69WXcRxpPirK092xefgsWJXMZ7t7ZqqeCsZx4tnopidruA90XEmWlhLcna9xjpf7PWfTLuSEU+8EVUn91i8/UatBO4gnth7dfj4Uzqkh0fdq6E+yDkatzLBVd1kzz1+JmIRvEB5d+xCb07u+fH6J/S+4Cj5+bGvi7Vgrp65e67cuqrm1stqT5NHVAEAkAgS5ATRP+Ojf4DxBZMkxT5eZ4zH7mDqYhPK2SB4n2SdeHrUl0vJ5qR/HH2JYhltqpqv6ptIkAEAsxd1UAAwkwKLNcVyl5YqM95iUJgSK69W91S61ffu7EmOJbtM+q0DXcqqatC9y6ZvVWgn/WPl1ap+c8nEK3Dnz9WGDKPBz66QHAMAZi0W6QKAGWR8Ldp3IFdPbHlFjVvC2y3r9Lijc0hMZHnxeKXD6cx07tNLuU2qK7lL6kz+s8Gd9s8d69ZLJ54ep/zaHjnekGHk7fhaP2UVbADALEaJdYLon/HRPwAAAABmK0qsAQAAAAAQCTIAAAAAAJJIkAEAAAAAkESCDAAAAACAJBJkAAAAAAAkkSADAAAAACCJBBkAAAAAAEkkyAAAAAAASJLmpToAAJgKa1m9nthSGvq9982HdbDTpDAiAAAAzFYkyMA1wsqbp9fLpObWy2o310+CaDr3qalTsqyV2rR3W6rDAQAAwCxGiTUAAAAAACJBBgAAAABAEiXWQEpZefP0eqGlJ45b+ouN81QWKI32dnytn/pM1H7/p3xu+PfBy9r6m6uSpIKi+Wq6Pfxd144fztWOwL8HPv1GP+m1JEkVK25Qnf479L5425zEU7HiBv3w4mX924L52uG2t1nWlYRKu628WtXvXK/hA9uj5gtby+rVuNml9ucadCxwvtg5xtb5t9X8zCH5Eygj92xtVo1e01P7T427bdS5ul+Nej0o2OeR/QsAAIDZjwQZSDGTMU97Nl5V28k/6IGLRgVF87WnbL4q+u2Es6BovvYstvTSv32tdmNkWUabquZr/wo7sT3be1kP9CZvDvJE8UhS7u03qG7wsh5ovSrLmqO/3ThPP/yTOWp3mCwaX4ve71mvmrX3yOW1k13LWqQ1a0ukntfCyXFerepLOtS0a5/9e2Cecd2DvriJ61S4qptUV+lXy6MPqzsYz+O71bBVST8XAAAA0hMl1kCKWdZVtZ38Rgcv2knh5/1XNSijb90sWZbRd3KNBj+7EkpOjbH0Vt9VyTVHFVbyRy/Hiye0T8QItjFX9Ru/5F6QWFJ+pqtLyi6VJz+wIX+5CrMH1f7Oh6F9jK9FL0Ykp8ac0sc9k2vXeCxrkTwet0ZOtKo71M/n9N67XVJxuTwx/Xy297IeaP0Do8cAAADXGEaQgZSz9MUFSYH80ly8op/84kpgg1HuTfaI7eu3x7zLupKCeJLI26r2tbtVWFqgY75zcpeWKnPotLr7w6cKjuKuyok+t9Wd3FCkPGVmS1lVDWqsin7Fsk4n+2QAAABIUyTIwCwQOyc5ZBY/zik4QluxeaM8Rzq0tNKtvgPhucXB5LhCR/XSo+Ht9tzh6THmM5RncT8DAADAOUqsgTRmzFX962eWlpXNn7ic+qKlQc3Rivz4L/dftKLKsitW3BBaZCtlvB3qU4mWPliuwqGjOumNs895XzhpXlavWk/iMQ+dH4wqlfZsbY46jjGndPLEoAo3PzKqnDqegqL5en3jjdq/gv+EAgAAXEsYQQbS3Nney3pC89X0wz8KrU4tRc8DluxS6P/92Rw1lf+RXi+3t0Wusvz5f1xR5+J52hE4jjV4WY2fztWeBTPXllh2YlqtHVWlGj7eGrUytTHn9N4bR1W4c5sa9z4kyV7BuuW4SzU54WPEJrva8ooat0SvQD14pE19ldtU++wrqpX92kvHq1UXcRx/W6Oa1aQdgX2C4q1k/Xn/VQ0sNnK75qjCujKlRdEAAACQPkxxcXHUcElGRoYuXbqUqnjSHv0zPvoH14PgSuLVN12d8qrhAAAASB/UBwJAovLnakNG9OriAAAAmP0osQYAh4IjxxsyzNgLpwEAAGDWIkEGAIeMsXTwxDc6aP+W4mgAAACQbJRYAwAAAAAgEmQAAAAAACSRIAMAAAAAIIk5yEiyyEc8LVy4cML9v/rqq+kMBwAAAAAcYwQZAAAAAACRIAMAAAAAIIkEGQAAAAAASSTISBOerc36UfWiVIcBAAAA4DpGgoxpZVnf0ndqalRbW6s1S8detOvMO0elyt26d5k1g9EBAAAAQBgJMqaVMV/o14cP69CxXqmwSt/5VvwE2PhatO9Alwo3PyKPRZIMAAAAYOaRIGNmfNkv30Vpwc23jL2Pt1XtQyWqefCumYsLAAAAAAJIkJE2jDmn997tkorLGUUGAAAAMONIkJFevB3qU4mWlsV/uaBovl7feKP+vsjMbFwAAAAArnkkyJgRxnylCxelBXn5Wjju6LBPI0NSVm7BjMUGAAAAAJI0L9UB4Prxxa8P6/8vXKq1tbVa4PuNDv/6i4SPcbb3sh7onYbgAAAAAFz3SJAxYxYuXaOqPJ+Ot7ToK0OJNAAAAID0Qok1ZoRlLVR+3gJd9PVPkBznKTNbGh44O2OxAQAAAIBEgox0U1auQnXpY2/8l4OLdO1fwa0LAAAAILnIMpA2LGuR1qwtkXo61D3GKPPn/Vc1YFmSa44qeBQUAAAAgCQiQUb6KNuoiuwuHf7Zh2Pvc+GqvL+fuZAAAAAAXD9YpAsz45Z85S2QLl74UtLo0WErr1b1m0vUd2D7mKPHkqT8udqQYTTw6RW1s9AXAAAAgCQiQca0sqxvaWXtCuUbowu9x/TrL+IntXesWy+deFoHO+O/bllGm6rma0OGkbfja/3UR3IMAAAAILlMcXFx1ETOjIwMXbp0KVXxpD36x7mFCxdOuM9XX301A5EAAAAAwMSYgwwAAAAAgEiQAQAAAACQRIIMAAAAAIAkad6NN94YteHy5cuK3YYw+se5r7/+esJ96EsAAAAA6YIRZAAAAAAARIIMAAAAAIAkEmQAAAAAACSRIAMAAAAAIIkEGQAAAAAASSTIAAAAAABIkv4HETdZ4Op5nnYAAAAASUVORK5CYII=;" vertex="1" parent="1">
          <mxGeometry x="4090" y="555" width="968" height="490" as="geometry" />
        </mxCell>
        <mxCell id="h3T8TqcD6zdrMj5TEYQt-133" style="edgeStyle=orthogonalEdgeStyle;rounded=0;orthogonalLoop=1;jettySize=auto;html=1;exitX=0.5;exitY=1;exitDx=0;exitDy=0;" edge="1" parent="1" source="h3T8TqcD6zdrMj5TEYQt-134" target="h3T8TqcD6zdrMj5TEYQt-136">
          <mxGeometry relative="1" as="geometry" />
        </mxCell>
        <mxCell id="h3T8TqcD6zdrMj5TEYQt-134" value="eureka ui 界面" style="rounded=0;whiteSpace=wrap;html=1;" vertex="1" parent="1">
          <mxGeometry x="3040" y="100" width="120" height="60" as="geometry" />
        </mxCell>
        <mxCell id="h3T8TqcD6zdrMj5TEYQt-135" style="edgeStyle=orthogonalEdgeStyle;rounded=0;orthogonalLoop=1;jettySize=auto;html=1;" edge="1" parent="1" source="h3T8TqcD6zdrMj5TEYQt-136" target="h3T8TqcD6zdrMj5TEYQt-43">
          <mxGeometry relative="1" as="geometry" />
        </mxCell>
        <mxCell id="h3T8TqcD6zdrMj5TEYQt-136" value="&lt;pre style=&quot;background-color: #2b2b2b ; color: #a9b7c6 ; font-family: &amp;#34;consolas&amp;#34; , monospace ; font-size: 12.0pt&quot;&gt;EurekaController.status&lt;/pre&gt;" style="rounded=0;whiteSpace=wrap;html=1;" vertex="1" parent="1">
          <mxGeometry x="2930" y="225" width="340" height="40" as="geometry" />
        </mxCell>
        <mxCell id="h3T8TqcD6zdrMj5TEYQt-137" style="edgeStyle=orthogonalEdgeStyle;rounded=0;orthogonalLoop=1;jettySize=auto;html=1;exitX=1;exitY=0.5;exitDx=0;exitDy=0;entryX=0;entryY=0.25;entryDx=0;entryDy=0;" edge="1" parent="1" source="h3T8TqcD6zdrMj5TEYQt-139" target="h3T8TqcD6zdrMj5TEYQt-45">
          <mxGeometry relative="1" as="geometry" />
        </mxCell>
        <mxCell id="h3T8TqcD6zdrMj5TEYQt-138" value="默认为：true" style="edgeLabel;html=1;align=center;verticalAlign=middle;resizable=0;points=[];" vertex="1" connectable="0" parent="h3T8TqcD6zdrMj5TEYQt-137">
          <mxGeometry x="-0.1324" y="2" relative="1" as="geometry">
            <mxPoint as="offset" />
          </mxGeometry>
        </mxCell>
        <mxCell id="h3T8TqcD6zdrMj5TEYQt-139" value="&lt;pre style=&quot;background-color: #2b2b2b ; color: #a9b7c6 ; font-family: &amp;#34;consolas&amp;#34; , monospace ; font-size: 12.0pt&quot;&gt;useReadOnlyCache&lt;/pre&gt;" style="rhombus;whiteSpace=wrap;html=1;" vertex="1" parent="1">
          <mxGeometry x="2592.5" y="740.63" width="220" height="50" as="geometry" />
        </mxCell>
        <mxCell id="h3T8TqcD6zdrMj5TEYQt-140" value="&lt;font style=&quot;font-size: 14px&quot;&gt;获取增量的实例&lt;br&gt;&amp;nbsp;GET&amp;nbsp;&lt;span style=&quot;color: rgb(33 , 33 , 33) ; font-family: &amp;#34;inter&amp;#34; , &amp;#34;opensans&amp;#34; , &amp;#34;helvetica&amp;#34; , &amp;#34;arial&amp;#34; , sans-serif ; text-align: left&quot;&gt;http://localhost:7001/eureka/apps/delta&lt;/span&gt;&lt;/font&gt;" style="edgeStyle=orthogonalEdgeStyle;rounded=0;orthogonalLoop=1;jettySize=auto;html=1;dashed=1;fontFamily=Helvetica;fontSize=14;fontColor=#000000;strokeWidth=2;entryX=0;entryY=0.5;entryDx=0;entryDy=0;exitX=1;exitY=0.5;exitDx=0;exitDy=0;" edge="1" parent="1" source="h3T8TqcD6zdrMj5TEYQt-141" target="h3T8TqcD6zdrMj5TEYQt-146">
          <mxGeometry relative="1" as="geometry">
            <mxPoint x="2120" y="870" as="targetPoint" />
            <mxPoint x="1480" y="870" as="sourcePoint" />
          </mxGeometry>
        </mxCell>
        <mxCell id="h3T8TqcD6zdrMj5TEYQt-141" value="" style="rounded=0;whiteSpace=wrap;html=1;" vertex="1" parent="1">
          <mxGeometry x="1440" y="850" width="30" height="30" as="geometry" />
        </mxCell>
        <mxCell id="h3T8TqcD6zdrMj5TEYQt-142" value="" style="endArrow=none;dashed=1;html=1;rounded=0;entryX=0.5;entryY=1;entryDx=0;entryDy=0;strokeWidth=2;startArrow=none;" edge="1" parent="1" source="h3T8TqcD6zdrMj5TEYQt-90" target="h3T8TqcD6zdrMj5TEYQt-141">
          <mxGeometry width="50" height="50" relative="1" as="geometry">
            <mxPoint x="1455" y="1095" as="sourcePoint" />
            <mxPoint x="1455" y="680" as="targetPoint" />
          </mxGeometry>
        </mxCell>
        <mxCell id="h3T8TqcD6zdrMj5TEYQt-143" style="edgeStyle=orthogonalEdgeStyle;rounded=0;orthogonalLoop=1;jettySize=auto;html=1;exitX=1;exitY=0.5;exitDx=0;exitDy=0;entryX=0;entryY=0.75;entryDx=0;entryDy=0;" edge="1" parent="1" source="h3T8TqcD6zdrMj5TEYQt-149" target="h3T8TqcD6zdrMj5TEYQt-64">
          <mxGeometry relative="1" as="geometry">
            <Array as="points">
              <mxPoint x="2560" y="865" />
              <mxPoint x="2570" y="865" />
              <mxPoint x="2570" y="675" />
            </Array>
          </mxGeometry>
        </mxCell>
        <mxCell id="h3T8TqcD6zdrMj5TEYQt-144" value="&lt;span style=&quot;color: rgb(106 , 135 , 89) ; font-family: &amp;#34;consolas&amp;#34; , monospace ; font-size: 16px ; background-color: rgb(43 , 43 , 43)&quot;&gt;key=&lt;/span&gt;&lt;span style=&quot;color: rgb(106 , 135 , 89) ; background-color: rgb(43 , 43 , 43) ; font-family: &amp;#34;consolas&amp;#34; , monospace ; font-size: 12pt&quot;&gt;ALL_APPS_DELTA&lt;/span&gt;" style="edgeLabel;html=1;align=center;verticalAlign=middle;resizable=0;points=[];" vertex="1" connectable="0" parent="h3T8TqcD6zdrMj5TEYQt-143">
          <mxGeometry x="-0.067" y="3" relative="1" as="geometry">
            <mxPoint x="-7" y="45" as="offset" />
          </mxGeometry>
        </mxCell>
        <mxCell id="h3T8TqcD6zdrMj5TEYQt-145" style="edgeStyle=orthogonalEdgeStyle;rounded=0;orthogonalLoop=1;jettySize=auto;html=1;exitX=1;exitY=0.5;exitDx=0;exitDy=0;" edge="1" parent="1" source="h3T8TqcD6zdrMj5TEYQt-146" target="h3T8TqcD6zdrMj5TEYQt-149">
          <mxGeometry relative="1" as="geometry" />
        </mxCell>
        <mxCell id="h3T8TqcD6zdrMj5TEYQt-146" value="" style="rounded=0;whiteSpace=wrap;html=1;" vertex="1" parent="1">
          <mxGeometry x="2110" y="850" width="30" height="30" as="geometry" />
        </mxCell>
        <mxCell id="h3T8TqcD6zdrMj5TEYQt-147" value="" style="endArrow=none;dashed=1;html=1;rounded=0;strokeWidth=2;startArrow=none;" edge="1" parent="1" source="h3T8TqcD6zdrMj5TEYQt-86" target="h3T8TqcD6zdrMj5TEYQt-146">
          <mxGeometry width="50" height="50" relative="1" as="geometry">
            <mxPoint x="2125" y="1100" as="sourcePoint" />
            <mxPoint x="2125" y="675" as="targetPoint" />
          </mxGeometry>
        </mxCell>
        <mxCell id="h3T8TqcD6zdrMj5TEYQt-148" value="&lt;span style=&quot;color: rgb(106 , 135 , 89) ; font-family: &amp;#34;consolas&amp;#34; , monospace ; font-size: 16px ; background-color: rgb(43 , 43 , 43)&quot;&gt;key=ALL_APPS_DELTA&lt;/span&gt;" style="rounded=0;whiteSpace=wrap;html=1;" vertex="1" parent="1">
          <mxGeometry x="3320" y="720" width="190" height="60" as="geometry" />
        </mxCell>
        <mxCell id="h3T8TqcD6zdrMj5TEYQt-149" value="&lt;font&gt;&lt;span style=&quot;font-size: 12pt ; background-color: rgb(43 , 43 , 43) ; color: rgb(169 , 183 , 198) ; font-family: &amp;#34;consolas&amp;#34; , monospace&quot;&gt;ApplicationsResource.&lt;/span&gt;&lt;/font&gt;&lt;span style=&quot;color: rgb(255 , 198 , 109) ; background-color: rgb(43 , 43 , 43) ; font-family: &amp;#34;consolas&amp;#34; , monospace ; font-size: 12pt&quot;&gt;getContainerDifferential&lt;/span&gt;" style="rounded=0;whiteSpace=wrap;html=1;fontSize=14;" vertex="1" parent="1">
          <mxGeometry x="2170" y="830" width="390" height="70" as="geometry" />
        </mxCell>
        <mxCell id="h3T8TqcD6zdrMj5TEYQt-150" style="edgeStyle=orthogonalEdgeStyle;rounded=0;orthogonalLoop=1;jettySize=auto;html=1;entryX=0;entryY=0.5;entryDx=0;entryDy=0;" edge="1" parent="1" source="h3T8TqcD6zdrMj5TEYQt-151" target="h3T8TqcD6zdrMj5TEYQt-141">
          <mxGeometry relative="1" as="geometry" />
        </mxCell>
        <mxCell id="h3T8TqcD6zdrMj5TEYQt-151" value="&lt;pre style=&quot;background-color: #2b2b2b ; color: #a9b7c6 ; font-family: &amp;#34;consolas&amp;#34; , monospace ; font-size: 12.0pt&quot;&gt;&lt;span style=&quot;font-size: 12pt&quot;&gt;DiscoveryClient.&lt;/span&gt;getAndUpdateDelta&lt;/pre&gt;" style="rounded=0;whiteSpace=wrap;html=1;" vertex="1" parent="1">
          <mxGeometry x="1070" y="832.5" width="310" height="65" as="geometry" />
        </mxCell>
      </root>
    </mxGraphModel>
  </diagram>
</mxfile>
